SplineFontDB: 3.2
FontName: Multivers-Medium
FullName: Multivers Medium
FamilyName: Multivers
Weight: Medium
Copyright: 
Version: 1.000
ItalicAngle: 0
UnderlinePosition: -199
UnderlineWidth: 38
Ascent: 800
Descent: 200
InvalidEm: 0
sfntRevision: 0x00010000
LayerCount: 2
Layer: 0 1 "Back" 1
Layer: 1 1 "Fore" 0
XUID: [1021 473 -325923738 16067015]
StyleMap: 0x0040
FSType: 0
OS2Version: 4
OS2_WeightWidthSlopeOnly: 0
OS2_UseTypoMetrics: 0
CreationTime: 1659194366
ModificationTime: 1733159177
PfmFamily: 81
TTFWeight: 500
TTFWidth: 5
LineGap: 0
VLineGap: 0
Panose: 0 0 0 0 0 0 0 0 0 0
OS2TypoAscent: 970
OS2TypoAOffset: 0
OS2TypoDescent: -250
OS2TypoDOffset: 0
OS2TypoLinegap: 0
OS2WinAscent: 986
OS2WinAOffset: 0
OS2WinDescent: 350
OS2WinDOffset: 0
HheadAscent: 970
HheadAOffset: 0
HheadDescent: -250
HheadDOffset: 0
OS2SubXSize: 650
OS2SubYSize: 600
OS2SubXOff: 0
OS2SubYOff: 75
OS2SupXSize: 650
OS2SupYSize: 600
OS2SupXOff: 0
OS2SupYOff: 350
OS2StrikeYSize: 38
OS2StrikeYPos: 301
OS2CapHeight: 720
OS2XHeight: 510
OS2Vendor: 'NONE'
OS2CodePages: 00000093.00000000
OS2UnicodeRanges: a000006f.0000006a.00000000.00000000
Lookup: 1 0 0 "'aalt' Access All Alternates in Latin lookup 0" { "'aalt' Access All Alternates in Latin lookup 0 subtable"  } ['aalt' ('DFLT' <'dflt' > 'latn' <'AZE ' 'CAT ' 'CRT ' 'KAZ ' 'MOL ' 'ROM ' 'TAT ' 'TRK ' 'dflt' > ) ]
Lookup: 3 0 0 "'aalt' Access All Alternates in Latin lookup 1" { "'aalt' Access All Alternates in Latin lookup 1 subtable"  } ['aalt' ('DFLT' <'dflt' > 'latn' <'AZE ' 'CAT ' 'CRT ' 'KAZ ' 'MOL ' 'ROM ' 'TAT ' 'TRK ' 'dflt' > ) ]
Lookup: 6 0 0 "'ccmp' Glyph Composition/Decomposition in Latin lookup 2" { "'ccmp' Glyph Composition/Decomposition in Latin lookup 2 subtable"  } ['ccmp' ('DFLT' <'dflt' > 'latn' <'AZE ' 'CAT ' 'CRT ' 'KAZ ' 'MOL ' 'ROM ' 'TAT ' 'TRK ' 'dflt' > ) ]
Lookup: 1 0 0 "Single Substitution lookup 3" { "Single Substitution lookup 3 subtable"  } []

StartChar: .notdef
Encoding: 65536 -1 0
Width: 650
Flags: W
LayerCount: 2
Fore
SplineSet
73 0 m 1,0,-1
 73 720 l 1,1,-1
 577 720 l 1,2,-1
 577 0 l 1,3,-1
 73 0 l 1,0,-1
177 86 m 1,4,-1
 473 86 l 1,5,-1
 473 634 l 1,6,-1
 177 634 l 1,7,-1
 177 86 l 1,4,-1
EndSplineSet
Validated: 1
EndChar

StartChar: A
Encoding: 65 65 1
Width: 697
GlyphClass: 2
Flags: W
AnchorPoint: "Anchor-3" 667 0 basechar 0
AnchorPoint: "Anchor-2" 349 0 basechar 0
AnchorPoint: "Anchor-0" 349 720 basechar 0
LayerCount: 2
Fore
SplineSet
31 0 m 1,0,-1
 287 720 l 1,1,-1
 376 720 l 1,2,-1
 132 0 l 1,3,-1
 31 0 l 1,0,-1
559 0 m 1,4,-1
 315 720 l 1,5,-1
 410 720 l 1,6,-1
 667 0 l 1,7,-1
 559 0 l 1,4,-1
162 285 m 1,8,-1
 529 285 l 1,9,-1
 529 199 l 1,10,-1
 162 199 l 1,11,-1
 162 285 l 1,8,-1
EndSplineSet
Validated: 5
Substitution2: "Single Substitution lookup 17 subtable" ordfeminine
Substitution2: "'aalt' Access All Alternates in Latin lookup 0 subtable" ordfeminine
EndChar

StartChar: AE
Encoding: 198 198 12
Width: 918
Flags: W
LayerCount: 2
Fore
SplineSet
31 0 m 1,0,-1
 287 720 l 1,1,-1
 378 720 l 1,2,-1
 132 0 l 1,3,-1
 31 0 l 1,0,-1
459 0 m 1,4,-1
 459 720 l 1,5,-1
 564 720 l 1,6,-1
 564 0 l 1,7,-1
 459 0 l 1,4,-1
511 0 m 1,8,-1
 511 86 l 1,9,-1
 859 86 l 1,10,-1
 859 0 l 1,11,-1
 511 0 l 1,8,-1
219 330 m 1,12,-1
 219 416 l 1,13,-1
 825 416 l 1,14,-1
 825 330 l 1,15,-1
 219 330 l 1,12,-1
319 634 m 1,16,-1
 319 720 l 1,17,-1
 850 720 l 1,18,-1
 850 634 l 1,19,-1
 319 634 l 1,16,-1
EndSplineSet
Validated: 5
EndChar

StartChar: B
Encoding: 66 66 13
Width: 616
Flags: W
LayerCount: 2
Fore
SplineSet
149 0 m 1,0,-1
 149 81 l 1,1,-1
 348 81 l 2,2,3
 407 81 407 81 441 114.5 c 128,-1,4
 475 148 475 148 475 205 c 0,5,6
 475 265 475 265 439 301 c 128,-1,7
 403 337 403 337 342 337 c 2,8,-1
 149 337 l 1,9,-1
 149 417 l 1,10,-1
 333 417 l 2,11,12
 392 417 392 417 424.5 446.5 c 128,-1,13
 457 476 457 476 457 531 c 0,14,15
 457 583 457 583 426.5 611 c 128,-1,16
 396 639 396 639 337 639 c 2,17,-1
 149 639 l 1,18,-1
 149 720 l 1,19,-1
 352 720 l 2,20,21
 448 720 448 720 505 672 c 128,-1,22
 562 624 562 624 562 542 c 0,23,24
 562 490 562 490 538.5 451 c 128,-1,25
 515 412 515 412 475 390.5 c 128,-1,26
 435 369 435 369 384 369 c 1,27,-1
 388 390 l 1,28,29
 443 390 443 390 486.5 365 c 128,-1,30
 530 340 530 340 555.5 295.5 c 128,-1,31
 581 251 581 251 581 194 c 0,32,33
 581 136 581 136 554 92 c 128,-1,34
 527 48 527 48 478 24 c 128,-1,35
 429 0 429 0 364 0 c 2,36,-1
 149 0 l 1,0,-1
73 0 m 1,37,-1
 73 720 l 1,38,-1
 177 720 l 1,39,-1
 177 0 l 1,40,-1
 73 0 l 1,37,-1
EndSplineSet
Validated: 5
EndChar

StartChar: C
Encoding: 67 67 14
Width: 710
GlyphClass: 2
Flags: W
AnchorPoint: "Anchor-2" 370 0 basechar 0
AnchorPoint: "Anchor-0" 370 720 basechar 0
LayerCount: 2
Fore
SplineSet
373 -10 m 0,0,1
 301 -10 301 -10 240.5 17 c 128,-1,2
 180 44 180 44 135.5 93.5 c 128,-1,3
 91 143 91 143 67 211 c 128,-1,4
 43 279 43 279 43 361 c 256,5,6
 43 443 43 443 67 510.5 c 128,-1,7
 91 578 91 578 135 627 c 128,-1,8
 179 676 179 676 239.5 703 c 128,-1,9
 300 730 300 730 373 730 c 0,10,11
 453 730 453 730 517 696.5 c 128,-1,12
 581 663 581 663 621.5 602 c 128,-1,13
 662 541 662 541 671 458 c 1,14,-1
 568 458 l 1,15,16
 557 545 557 545 505 593 c 128,-1,17
 453 641 453 641 373 641 c 0,18,19
 306 641 306 641 255.5 607 c 128,-1,20
 205 573 205 573 177 510.5 c 128,-1,21
 149 448 149 448 149 362 c 0,22,23
 149 275 149 275 177 211.5 c 128,-1,24
 205 148 205 148 256 113.5 c 128,-1,25
 307 79 307 79 373 79 c 0,26,27
 453 79 453 79 505.5 127 c 128,-1,28
 558 175 558 175 569 261 c 1,29,-1
 672 261 l 1,30,31
 663 179 663 179 622.5 118 c 128,-1,32
 582 57 582 57 518 23.5 c 128,-1,33
 454 -10 454 -10 373 -10 c 0,0,1
EndSplineSet
Validated: 1
EndChar

StartChar: D
Encoding: 68 68 19
Width: 723
GlyphClass: 2
Flags: W
AnchorPoint: "Anchor-2" 362 0 basechar 0
AnchorPoint: "Anchor-0" 362 720 basechar 0
LayerCount: 2
Fore
SplineSet
136 0 m 1,0,-1
 136 87 l 1,1,-1
 314 87 l 2,2,3
 396 87 396 87 454 121 c 128,-1,4
 512 155 512 155 543 217.5 c 128,-1,5
 574 280 574 280 574 364 c 0,6,7
 574 447 574 447 543 507 c 128,-1,8
 512 567 512 567 454.5 600 c 128,-1,9
 397 633 397 633 314 633 c 2,10,-1
 137 633 l 1,11,-1
 137 720 l 1,12,-1
 314 720 l 2,13,14
 425 720 425 720 507.5 676 c 128,-1,15
 590 632 590 632 635 552 c 128,-1,16
 680 472 680 472 680 362 c 256,17,18
 680 252 680 252 634.5 171 c 128,-1,19
 589 90 589 90 507 45 c 128,-1,20
 425 0 425 0 315 0 c 2,21,-1
 136 0 l 1,0,-1
73 0 m 1,22,-1
 73 720 l 1,23,-1
 177 720 l 1,24,-1
 177 0 l 1,25,-1
 73 0 l 1,22,-1
EndSplineSet
Validated: 5
EndChar

StartChar: Eth
Encoding: 208 208 20
Width: 728
GlyphClass: 2
Flags: W
AnchorPoint: "Anchor-2" 368 0 basechar 0
AnchorPoint: "Anchor-0" 368 720 basechar 0
LayerCount: 2
Fore
SplineSet
3 319 m 1,0,-1
 3 403 l 1,1,-1
 370 403 l 1,2,-1
 370 319 l 1,3,-1
 3 319 l 1,0,-1
142 0 m 1,4,-1
 142 87 l 1,5,-1
 320 87 l 2,6,7
 402 87 402 87 460 121 c 128,-1,8
 518 155 518 155 549 217.5 c 128,-1,9
 580 280 580 280 580 364 c 0,10,11
 580 447 580 447 549.5 507 c 128,-1,12
 519 567 519 567 461 600 c 128,-1,13
 403 633 403 633 320 633 c 2,14,-1
 143 633 l 1,15,-1
 143 720 l 1,16,-1
 320 720 l 2,17,18
 431 720 431 720 513.5 676 c 128,-1,19
 596 632 596 632 641 552 c 128,-1,20
 686 472 686 472 686 362 c 256,21,22
 686 252 686 252 640.5 171 c 128,-1,23
 595 90 595 90 513 45 c 128,-1,24
 431 0 431 0 321 0 c 2,25,-1
 142 0 l 1,4,-1
79 0 m 1,26,-1
 79 720 l 1,27,-1
 183 720 l 1,28,-1
 183 0 l 1,29,-1
 79 0 l 1,26,-1
EndSplineSet
Validated: 5
EndChar

StartChar: E
Encoding: 69 69 23
Width: 607
GlyphClass: 2
Flags: W
AnchorPoint: "Anchor-3" 514 0 basechar 0
AnchorPoint: "Anchor-2" 304 0 basechar 0
AnchorPoint: "Anchor-0" 314 720 basechar 0
LayerCount: 2
Fore
SplineSet
73 0 m 1,0,-1
 73 720 l 1,1,-1
 177 720 l 1,2,-1
 177 0 l 1,3,-1
 73 0 l 1,0,-1
125 0 m 1,4,-1
 125 86 l 1,5,-1
 549 86 l 1,6,-1
 549 0 l 1,7,-1
 125 0 l 1,4,-1
125 330 m 1,8,-1
 125 416 l 1,9,-1
 515 416 l 1,10,-1
 515 330 l 1,11,-1
 125 330 l 1,8,-1
125 634 m 1,12,-1
 125 720 l 1,13,-1
 539 720 l 1,14,-1
 539 634 l 1,15,-1
 125 634 l 1,12,-1
EndSplineSet
Validated: 5
EndChar

StartChar: F
Encoding: 70 70 32
Width: 571
Flags: W
LayerCount: 2
Fore
SplineSet
73 0 m 1,0,-1
 73 720 l 1,1,-1
 177 720 l 1,2,-1
 177 0 l 1,3,-1
 73 0 l 1,0,-1
125 300 m 1,4,-1
 125 386 l 1,5,-1
 499 386 l 1,6,-1
 499 300 l 1,7,-1
 125 300 l 1,4,-1
125 634 m 1,8,-1
 125 720 l 1,9,-1
 523 720 l 1,10,-1
 523 634 l 1,11,-1
 125 634 l 1,8,-1
EndSplineSet
Validated: 5
EndChar

StartChar: G
Encoding: 71 71 33
Width: 730
GlyphClass: 2
Flags: W
AnchorPoint: "Anchor-2" 376 0 basechar 0
AnchorPoint: "Anchor-0" 376 720 basechar 0
LayerCount: 2
Fore
SplineSet
391 -10 m 4,0,1
 284.778841416 -11.0148518336 284.778841416 -11.0148518336 205 34.5 c 0,2,3
 127 79 127 79 85 161 c 128,-1,4
 43 243 43 243 43 355 c 128,-1,5
 43 467 43 467 84.5 551.5 c 128,-1,6
 126 636 126 636 201.5 683 c 128,-1,7
 277 730 277 730 376 730 c 0,8,9
 455 730 455 730 518.5 699.5 c 128,-1,10
 582 669 582 669 621.5 614.5 c 128,-1,11
 661 560 661 560 669 488 c 1,12,-1
 565 488 l 1,13,14
 556 560 556 560 505.5 600.5 c 128,-1,15
 455 641 455 641 378 641 c 0,16,17
 308 641 308 641 256.5 606.5 c 128,-1,18
 205 572 205 572 177 509 c 128,-1,19
 149 446 149 446 149 358 c 0,20,21
 149 269 149 269 178 206 c 128,-1,22
 207 143 207 143 262.5 110.5 c 128,-1,23
 318 78 318 78 398 78 c 0,24,25
 498 78 498 78 568 111.02734375 c 1,26,-1
 568 298 l 1,27,-1
 394 298 l 1,28,-1
 394 384 l 1,29,-1
 672 384 l 1,30,-1
 672 68 l 5,31,32
 581 -6 581 -6 391 -10 c 4,0,1
EndSplineSet
Validated: 33
Substitution2: "'ss07' Style Set 7 in Latin lookup 28 subtable" G.ss07
Substitution2: "'aalt' Access All Alternates in Latin lookup 0 subtable" G.ss07
EndChar

StartChar: H
Encoding: 72 72 37
Width: 702
GlyphClass: 2
Flags: W
AnchorPoint: "Anchor-2" 351 0 basechar 0
AnchorPoint: "Anchor-0" 351 720 basechar 0
LayerCount: 2
Fore
SplineSet
73 0 m 1,0,-1
 73 720 l 1,1,-1
 177 720 l 1,2,-1
 177 0 l 1,3,-1
 73 0 l 1,0,-1
525 0 m 1,4,-1
 525 720 l 1,5,-1
 630 720 l 1,6,-1
 630 0 l 1,7,-1
 525 0 l 1,4,-1
125 418 m 1,8,-1
 572 418 l 1,9,-1
 572 332 l 1,10,-1
 125 332 l 1,11,-1
 125 418 l 1,8,-1
EndSplineSet
Validated: 5
EndChar

StartChar: Hbar
Encoding: 294 294 38
Width: 713
GlyphClass: 2
Flags: W
AnchorPoint: "Anchor-2" 356 0 basechar 0
AnchorPoint: "Anchor-0" 356 720 basechar 0
LayerCount: 2
Fore
SplineSet
3 535 m 1,0,-1
 3 619 l 1,1,-1
 709 619 l 1,2,-1
 709 535 l 1,3,-1
 3 535 l 1,0,-1
78 0 m 1,4,-1
 78 720 l 1,5,-1
 182 720 l 1,6,-1
 182 0 l 1,7,-1
 78 0 l 1,4,-1
530 0 m 1,8,-1
 530 720 l 1,9,-1
 635 720 l 1,10,-1
 635 0 l 1,11,-1
 530 0 l 1,8,-1
130 418 m 1,12,-1
 577 418 l 1,13,-1
 577 332 l 1,14,-1
 130 332 l 1,15,-1
 130 418 l 1,12,-1
EndSplineSet
Validated: 5
EndChar

StartChar: I
Encoding: 73 73 39
Width: 250
GlyphClass: 2
Flags: W
AnchorPoint: "Anchor-3" 160 0 basechar 0
AnchorPoint: "Anchor-2" 125 0 basechar 0
AnchorPoint: "Anchor-0" 125 720 basechar 0
LayerCount: 2
Fore
SplineSet
73 0 m 1,0,-1
 73 720 l 1,1,-1
 177 720 l 1,2,-1
 177 0 l 1,3,-1
 73 0 l 1,0,-1
EndSplineSet
Validated: 1
EndChar

StartChar: J
Encoding: 74 74 48
Width: 424
Flags: W
LayerCount: 2
Fore
SplineSet
134 -10 m 0,0,1
 66 -10 66 -10 16 -2 c 1,2,-1
 16 87 l 5,3,4
 62 77 62 77 125 77 c 128,-1,5
 188 77 188 77 220 103 c 128,-1,6
 252 129 252 129 252 186 c 2,7,-1
 252 720 l 1,8,-1
 356 720 l 1,9,-1
 356 181 l 2,10,11
 356 84 356 84 299 37 c 128,-1,12
 242 -10 242 -10 134 -10 c 0,0,1
EndSplineSet
Validated: 1
Substitution2: "'ss08' Style Set 8 in Latin lookup 29 subtable" J.ss08
Substitution2: "'aalt' Access All Alternates in Latin lookup 0 subtable" J.ss08
EndChar

StartChar: K
Encoding: 75 75 49
Width: 674
GlyphClass: 2
Flags: W
AnchorPoint: "Anchor-2" 346 0 basechar 0
AnchorPoint: "Anchor-0" 338 720 basechar 0
LayerCount: 2
Fore
SplineSet
73 0 m 1,0,-1
 73 720 l 1,1,-1
 177 720 l 1,2,-1
 177 0 l 1,3,-1
 73 0 l 1,0,-1
156 374 m 1,4,-1
 494 720 l 1,5,-1
 633 720 l 1,6,-1
 285 374 l 1,7,-1
 156 374 l 1,4,-1
509 0 m 1,8,-1
 154 374 l 1,9,-1
 285 374 l 1,10,-1
 653 0 l 1,11,-1
 509 0 l 1,8,-1
EndSplineSet
Validated: 5
Substitution2: "'ss04' Style Set 4 in Latin lookup 25 subtable" K.ss04
Substitution2: "'aalt' Access All Alternates in Latin lookup 0 subtable" K.ss04
EndChar

StartChar: L
Encoding: 76 76 51
Width: 563
GlyphClass: 2
Flags: W
AnchorPoint: "Anchor-2" 311 0 basechar 0
AnchorPoint: "Anchor-1" 366 720 basechar 0
AnchorPoint: "Anchor-0" 124 720 basechar 0
LayerCount: 2
Fore
SplineSet
73 0 m 1,0,-1
 73 720 l 1,1,-1
 177 720 l 1,2,-1
 177 0 l 1,3,-1
 73 0 l 1,0,-1
125 0 m 1,4,-1
 125 86 l 1,5,-1
 517 86 l 1,6,-1
 517 0 l 1,7,-1
 125 0 l 1,4,-1
EndSplineSet
Validated: 5
EndChar

StartChar: Lslash
Encoding: 321 321 55
Width: 565
GlyphClass: 2
Flags: W
AnchorPoint: "Anchor-2" 314 0 basechar 0
AnchorPoint: "Anchor-1" 369 720 basechar 0
AnchorPoint: "Anchor-0" 128 720 basechar 0
LayerCount: 2
Fore
SplineSet
139 338 m 1,0,-1
 0 281 l 1,1,-1
 0 359 l 1,2,-1
 137 416 l 1,3,-1
 139 338 l 1,0,-1
138 422 m 1,4,-1
 324 500 l 1,5,-1
 324 421 l 1,6,-1
 139 344 l 1,7,-1
 138 422 l 1,4,-1
76 0 m 1,8,-1
 76 720 l 1,9,-1
 180 720 l 1,10,-1
 180 0 l 1,11,-1
 76 0 l 1,8,-1
128 0 m 1,12,-1
 128 86 l 1,13,-1
 520 86 l 1,14,-1
 520 0 l 1,15,-1
 128 0 l 1,12,-1
EndSplineSet
Validated: 5
EndChar

StartChar: M
Encoding: 77 77 56
Width: 875
Flags: W
LayerCount: 2
Fore
SplineSet
73 0 m 1,0,-1
 73 720 l 1,1,-1
 233 720 l 1,2,-1
 464 28 l 1,3,-1
 410 28 l 1,4,-1
 640 720 l 1,5,-1
 802 720 l 1,6,-1
 802 0 l 1,7,-1
 699 0 l 1,8,-1
 699 670 l 1,9,-1
 714 670 l 1,10,-1
 491 0 l 1,11,-1
 377 0 l 1,12,-1
 155 665 l 1,13,-1
 170 665 l 1,14,-1
 170 0 l 1,15,-1
 73 0 l 1,0,-1
EndSplineSet
Validated: 5
Substitution2: "'ss06' Style Set 6 in Latin lookup 27 subtable" M.ss06
Substitution2: "'aalt' Access All Alternates in Latin lookup 0 subtable" M.ss06
EndChar

StartChar: N
Encoding: 78 78 57
Width: 703
GlyphClass: 2
Flags: W
AnchorPoint: "Anchor-2" 352 0 basechar 0
AnchorPoint: "Anchor-0" 352 720 basechar 0
LayerCount: 2
Fore
SplineSet
73 0 m 1,0,-1
 73 720 l 1,1,-1
 194 720 l 1,2,-1
 554 105 l 1,3,-1
 530 100 l 1,4,-1
 530 720 l 1,5,-1
 630 720 l 1,6,-1
 630 0 l 1,7,-1
 509 0 l 1,8,-1
 149 615 l 1,9,-1
 173 620 l 1,10,-1
 173 0 l 1,11,-1
 73 0 l 1,0,-1
EndSplineSet
Validated: 5
EndChar

StartChar: Eng
Encoding: 330 330 62
Width: 701
Flags: W
LayerCount: 2
Fore
SplineSet
72 0 m 1,0,-1
 72 720 l 1,1,-1
 193 720 l 1,2,-1
 574 112 l 1,3,-1
 529 116 l 1,4,-1
 529 720 l 1,5,-1
 629 720 l 1,6,-1
 629 0 l 1,7,-1
 530 0 l 1,8,-1
 149 611 l 1,9,-1
 172 616 l 1,10,-1
 172 0 l 1,11,-1
 72 0 l 1,0,-1
468 -215 m 0,12,13
 442 -215 442 -215 424 -212 c 128,-1,14
 406 -209 406 -209 395 -205 c 1,15,-1
 395 -119 l 1,16,17
 405 -123 405 -123 420.5 -125.5 c 128,-1,18
 436 -128 436 -128 455 -128 c 0,19,20
 495 -128 495 -128 511 -112.5 c 128,-1,21
 527 -97 527 -97 527 -64 c 2,22,-1
 527 32 l 1,23,-1
 629 32 l 1,24,-1
 629 -67 l 2,25,26
 629 -136 629 -136 591 -175.5 c 128,-1,27
 553 -215 553 -215 468 -215 c 0,12,13
EndSplineSet
Validated: 5
EndChar

StartChar: O
Encoding: 79 79 63
Width: 755
GlyphClass: 2
Flags: W
AnchorPoint: "Anchor-3" 517 20 basechar 0
AnchorPoint: "Anchor-2" 378 0 basechar 0
AnchorPoint: "Anchor-1" 735 720 basechar 0
AnchorPoint: "Anchor-0" 378 720 basechar 0
LayerCount: 2
Fore
SplineSet
378 -10 m 0,0,1
 304 -10 304 -10 243 17 c 128,-1,2
 182 44 182 44 137 94 c 128,-1,3
 92 144 92 144 67.5 212.5 c 128,-1,4
 43 281 43 281 43 363 c 0,5,6
 43 472 43 472 85.5 554.5 c 128,-1,7
 128 637 128 637 203.5 683.5 c 128,-1,8
 279 730 279 730 377 730 c 0,9,10
 476 730 476 730 551.5 684 c 128,-1,11
 627 638 627 638 670 555 c 128,-1,12
 713 472 713 472 713 362 c 0,13,14
 713 280 713 280 688 211.5 c 128,-1,15
 663 143 663 143 618.5 93.5 c 128,-1,16
 574 44 574 44 512.5 17 c 128,-1,17
 451 -10 451 -10 378 -10 c 0,0,1
377 79 m 256,18,19
 445 79 445 79 496.5 115 c 128,-1,20
 548 151 548 151 577 215 c 128,-1,21
 606 279 606 279 606 364 c 0,22,23
 606 448 606 448 577.5 510.5 c 128,-1,24
 549 573 549 573 497.5 607 c 128,-1,25
 446 641 446 641 377 641 c 256,26,27
 308 641 308 641 256.5 607 c 128,-1,28
 205 573 205 573 177 511 c 128,-1,29
 149 449 149 449 149 364 c 0,30,31
 149 278 149 278 177.5 214 c 128,-1,32
 206 150 206 150 257.5 114.5 c 128,-1,33
 309 79 309 79 377 79 c 256,18,19
EndSplineSet
Validated: 1
Substitution2: "Single Substitution lookup 17 subtable" ordmasculine
Substitution2: "'aalt' Access All Alternates in Latin lookup 0 subtable" ordmasculine
EndChar

StartChar: Oslash
Encoding: 216 216 70
Width: 755
GlyphClass: 2
Flags: W
AnchorPoint: "Anchor-3" 517 20 basechar 0
AnchorPoint: "Anchor-2" 378 0 basechar 0
AnchorPoint: "Anchor-1" 735 720 basechar 0
AnchorPoint: "Anchor-0" 378 720 basechar 0
LayerCount: 2
Fore
SplineSet
110 -10 m 1,0,-1
 51 39 l 1,1,-1
 642 730 l 1,2,-1
 701 681 l 1,3,-1
 110 -10 l 1,0,-1
378 -10 m 0,4,5
 304 -10 304 -10 243 17 c 128,-1,6
 182 44 182 44 137 94 c 128,-1,7
 92 144 92 144 67.5 212.5 c 128,-1,8
 43 281 43 281 43 363 c 0,9,10
 43 472 43 472 85.5 554.5 c 128,-1,11
 128 637 128 637 203.5 683.5 c 128,-1,12
 279 730 279 730 377 730 c 0,13,14
 476 730 476 730 551.5 684 c 128,-1,15
 627 638 627 638 670 555 c 128,-1,16
 713 472 713 472 713 362 c 0,17,18
 713 280 713 280 688 211.5 c 128,-1,19
 663 143 663 143 618.5 93.5 c 128,-1,20
 574 44 574 44 512.5 17 c 128,-1,21
 451 -10 451 -10 378 -10 c 0,4,5
377 79 m 256,22,23
 445 79 445 79 496.5 115 c 128,-1,24
 548 151 548 151 577 215 c 128,-1,25
 606 279 606 279 606 364 c 0,26,27
 606 448 606 448 577.5 510.5 c 128,-1,28
 549 573 549 573 497.5 607 c 128,-1,29
 446 641 446 641 377 641 c 256,30,31
 308 641 308 641 256.5 607 c 128,-1,32
 205 573 205 573 177 511 c 128,-1,33
 149 449 149 449 149 364 c 0,34,35
 149 278 149 278 177.5 214 c 128,-1,36
 206 150 206 150 257.5 114.5 c 128,-1,37
 309 79 309 79 377 79 c 256,22,23
EndSplineSet
Validated: 5
EndChar

StartChar: OE
Encoding: 338 338 72
Width: 1023
Flags: W
LayerCount: 2
Fore
SplineSet
405 -10 m 0,0,1
 295 -10 295 -10 213.5 36.5 c 128,-1,2
 132 83 132 83 87.5 166.5 c 128,-1,3
 43 250 43 250 43 361 c 0,4,5
 43 471 43 471 87.5 554 c 128,-1,6
 132 637 132 637 213.5 683.5 c 128,-1,7
 295 730 295 730 405 730 c 0,8,9
 449 730 449 730 483 726 c 128,-1,10
 517 722 517 722 546 714 c 1,11,-1
 543 618 l 1,12,13
 519 630 519 630 484 635.5 c 128,-1,14
 449 641 449 641 406 641 c 0,15,16
 322 641 322 641 264.5 607 c 128,-1,17
 207 573 207 573 178 510 c 128,-1,18
 149 447 149 447 149 361 c 0,19,20
 149 274 149 274 178 210.5 c 128,-1,21
 207 147 207 147 264.5 113 c 128,-1,22
 322 79 322 79 406 79 c 0,23,24
 449 79 449 79 484 84.5 c 128,-1,25
 519 90 519 90 543 102 c 1,26,-1
 546 6 l 1,27,28
 517 -2 517 -2 483 -6 c 128,-1,29
 449 -10 449 -10 405 -10 c 0,0,1
514 0 m 1,30,-1
 514 720 l 1,31,-1
 956 720 l 1,32,-1
 956 634 l 1,33,-1
 618 634 l 1,34,-1
 618 416 l 1,35,-1
 931 416 l 1,36,-1
 931 330 l 1,37,-1
 618 330 l 1,38,-1
 618 86 l 1,39,-1
 965 86 l 1,40,-1
 965 0 l 1,41,-1
 514 0 l 1,30,-1
EndSplineSet
Validated: 5
EndChar

StartChar: P
Encoding: 80 80 73
Width: 634
Flags: W
LayerCount: 2
Fore
SplineSet
73 0 m 1,0,-1
 73 720 l 1,1,-1
 358 720 l 2,2,3
 434 720 434 720 488 694 c 128,-1,4
 542 668 542 668 571 620 c 128,-1,5
 600 572 600 572 600 506 c 0,6,7
 600 439 600 439 571 390.5 c 128,-1,8
 542 342 542 342 488 315 c 128,-1,9
 434 288 434 288 358 288 c 2,10,-1
 152 288 l 1,11,-1
 152 374 l 1,12,-1
 354 374 l 2,13,14
 423 374 423 374 459.5 408.5 c 128,-1,15
 496 443 496 443 496 505 c 256,16,17
 496 567 496 567 459.5 600.5 c 128,-1,18
 423 634 423 634 354 634 c 2,19,-1
 177 634 l 1,20,-1
 177 0 l 1,21,-1
 73 0 l 1,0,-1
EndSplineSet
Validated: 5
EndChar

StartChar: Thorn
Encoding: 222 222 74
Width: 633
Flags: W
LayerCount: 2
Fore
SplineSet
151 158 m 1,0,-1
 151 244 l 1,1,-1
 351 244 l 2,2,3
 420 244 420 244 457.5 277.5 c 128,-1,4
 495 311 495 311 495 370 c 256,5,6
 495 429 495 429 457.5 462.5 c 128,-1,7
 420 496 420 496 351 496 c 2,8,-1
 151 496 l 1,9,-1
 151 582 l 1,10,-1
 356 582 l 2,11,12
 431 582 431 582 485.5 556 c 128,-1,13
 540 530 540 530 569.5 482.5 c 128,-1,14
 599 435 599 435 599 370 c 0,15,16
 599 306 599 306 569.5 258 c 128,-1,17
 540 210 540 210 485.5 184 c 128,-1,18
 431 158 431 158 356 158 c 2,19,-1
 151 158 l 1,0,-1
72 0 m 1,20,-1
 72 720 l 1,21,-1
 176 720 l 1,22,-1
 176 0 l 1,23,-1
 72 0 l 1,20,-1
EndSplineSet
Validated: 5
EndChar

StartChar: Q
Encoding: 81 81 75
Width: 761
Flags: W
LayerCount: 2
Fore
SplineSet
389 -10 m 1,0,1
 283 -10 283 -10 205 37 c 128,-1,2
 127 84 127 84 85 168.5 c 128,-1,3
 43 253 43 253 43 363 c 0,4,5
 43 472 43 472 85.5 554.5 c 128,-1,6
 128 637 128 637 203.5 683.5 c 128,-1,7
 279 730 279 730 377 730 c 0,8,9
 476 730 476 730 551.5 684 c 128,-1,10
 627 638 627 638 670 555 c 128,-1,11
 713 472 713 472 713 362 c 0,12,13
 713 284 713 284 688.5 218 c 128,-1,14
 664 152 664 152 615.5 106 c 128,-1,15
 567 60 567 60 492 42 c 1,16,-1
 389 -10 l 1,0,1
377 75 m 0,17,18
 446 75 446 75 497.5 111 c 128,-1,19
 549 147 549 147 577.5 212.5 c 128,-1,20
 606 278 606 278 606 364 c 0,21,22
 606 448 606 448 577.5 510.5 c 128,-1,23
 549 573 549 573 497.5 607 c 128,-1,24
 446 641 446 641 377 641 c 256,25,26
 308 641 308 641 256.5 607 c 128,-1,27
 205 573 205 573 177 511 c 128,-1,28
 149 449 149 449 149 364 c 0,29,30
 149 277 149 277 177.5 212 c 128,-1,31
 206 147 206 147 257.5 111 c 128,-1,32
 309 75 309 75 377 75 c 0,17,18
389 -10 m 1,33,-1
 492 42 l 1,34,-1
 742 86 l 1,35,-1
 742 0 l 1,36,37
 683 0 683 0 640.5 -1.5 c 128,-1,38
 598 -3 598 -3 561 -5 c 128,-1,39
 524 -7 524 -7 483.5 -8.5 c 128,-1,40
 443 -10 443 -10 389 -10 c 1,33,-1
EndSplineSet
Validated: 5
Substitution2: "'ss09' Style Set 9 in Latin lookup 30 subtable" Q.ss09
Substitution2: "'aalt' Access All Alternates in Latin lookup 0 subtable" Q.ss09
EndChar

StartChar: R
Encoding: 65537 -1 76
Width: 633
GlyphClass: 2
Flags: W
AnchorPoint: "Anchor-2" 317 0 basechar 0
AnchorPoint: "Anchor-0" 317 720 basechar 0
LayerCount: 2
Fore
SplineSet
72 0 m 1,0,-1
 72 720 l 1,1,-1
 339 720 l 2,2,3
 415 720 415 720 468.5 694.5 c 128,-1,4
 522 669 522 669 551 623 c 128,-1,5
 580 577 580 577 580 516 c 0,6,7
 580 454 580 454 551 408 c 128,-1,8
 522 362 522 362 468.5 336 c 128,-1,9
 415 310 415 310 339 310 c 2,10,-1
 151 310 l 1,11,-1
 151 394 l 1,12,-1
 336 394 l 2,13,14
 405 394 405 394 441.5 426.5 c 128,-1,15
 478 459 478 459 478 515 c 256,16,17
 478 571 478 571 442 602.5 c 128,-1,18
 406 634 406 634 336 634 c 2,19,-1
 176 634 l 1,20,-1
 176 0 l 1,21,-1
 72 0 l 1,0,-1
470 0 m 1,22,-1
 136 364 l 1,23,-1
 261 364 l 1,24,-1
 616 0 l 1,25,-1
 470 0 l 1,22,-1
EndSplineSet
Validated: 5
Substitution2: "'calt' Contextual Alternates in Latin lookup 26 subtable" R.ss05
Substitution2: "'aalt' Access All Alternates in Latin lookup 0 subtable" R.ss05
EndChar

StartChar: S
Encoding: 83 83 80
Width: 598
GlyphClass: 2
Flags: W
AnchorPoint: "Anchor-2" 311 0 basechar 0
AnchorPoint: "Anchor-0" 308 720 basechar 0
LayerCount: 2
Fore
SplineSet
321 -9 m 0,0,1
 195 -9 195 -9 121 53.5 c 128,-1,2
 47 116 47 116 35 230 c 1,3,-1
 136 230 l 1,4,5
 145 155 145 155 193 115.5 c 128,-1,6
 241 76 241 76 323 76 c 0,7,8
 392 76 392 76 427.5 102.5 c 128,-1,9
 463 129 463 129 463 179 c 0,10,11
 463 223 463 223 439 250 c 128,-1,12
 415 277 415 277 363 296 c 2,13,-1
 243 340 l 2,14,15
 153 372 153 372 110 419.5 c 128,-1,16
 67 467 67 467 67 537 c 0,17,18
 67 596 67 596 96.5 639.5 c 128,-1,19
 126 683 126 683 179.5 707 c 128,-1,20
 233 731 233 731 304 731 c 0,21,22
 414 731 414 731 479.5 673.5 c 128,-1,23
 545 616 545 616 554 514 c 1,24,-1
 453 514 l 1,25,26
 443 582 443 582 405 614 c 128,-1,27
 367 646 367 646 300 646 c 0,28,29
 238 646 238 646 203 620.5 c 128,-1,30
 168 595 168 595 168 549 c 0,31,32
 168 510 168 510 191.5 484.5 c 128,-1,33
 215 459 215 459 270 439 c 2,34,-1
 395 393 l 2,35,36
 482 363 482 363 523 313 c 128,-1,37
 564 263 564 263 564 189 c 0,38,39
 564 94 564 94 500 42.5 c 128,-1,40
 436 -9 436 -9 321 -9 c 0,0,1
EndSplineSet
Validated: 1
EndChar

StartChar: uni1E9E
Encoding: 7838 7838 85
Width: 686
Flags: W
LayerCount: 2
Fore
SplineSet
398 -9 m 0,0,1
 362 -9 362 -9 328.5 -4.5 c 128,-1,2
 295 0 295 0 270 9 c 1,3,-1
 270 100 l 1,4,5
 295 89 295 89 326 83.5 c 128,-1,6
 357 78 357 78 393 78 c 0,7,8
 471 78 471 78 509 107.5 c 128,-1,9
 547 137 547 137 547 196 c 0,10,11
 547 254 547 254 504.5 292.5 c 128,-1,12
 462 331 462 331 365 361 c 1,13,-1
 334 372 l 1,14,-1
 541 640 l 1,15,-1
 535 577 l 1,16,17
 505 611 505 611 463 627.5 c 128,-1,18
 421 644 421 644 368 644 c 0,19,20
 274 644 274 644 225.5 594 c 128,-1,21
 177 544 177 544 177 445 c 2,22,-1
 177 0 l 1,23,-1
 73 0 l 1,24,-1
 73 440 l 2,25,26
 73 582 73 582 149.5 656.5 c 128,-1,27
 226 731 226 731 373 731 c 0,28,29
 456 731 456 731 521.5 705.5 c 128,-1,30
 587 680 587 680 645 624 c 1,31,-1
 451 374 l 1,32,-1
 414 435 l 1,33,34
 535 396 535 396 593.5 334.5 c 128,-1,35
 652 273 652 273 652 188 c 0,36,37
 652 126 652 126 622 82 c 128,-1,38
 592 38 592 38 535 14.5 c 128,-1,39
 478 -9 478 -9 398 -9 c 0,0,1
EndSplineSet
Validated: 5
EndChar

StartChar: T
Encoding: 84 84 86
Width: 626
GlyphClass: 2
Flags: W
AnchorPoint: "Anchor-2" 313 0 basechar 0
AnchorPoint: "Anchor-0" 313 720 basechar 0
LayerCount: 2
Fore
SplineSet
261 0 m 1,0,-1
 261 634 l 1,1,-1
 30 634 l 1,2,-1
 30 720 l 1,3,-1
 596 720 l 1,4,-1
 596 634 l 1,5,-1
 365 634 l 1,6,-1
 365 0 l 1,7,-1
 261 0 l 1,0,-1
EndSplineSet
Validated: 1
EndChar

StartChar: U
Encoding: 85 85 89
Width: 680
GlyphClass: 2
Flags: W
AnchorPoint: "Anchor-3" 479 20 basechar 0
AnchorPoint: "Anchor-2" 340 0 basechar 0
AnchorPoint: "Anchor-1" 662 720 basechar 0
AnchorPoint: "Anchor-0" 340 720 basechar 0
LayerCount: 2
Fore
SplineSet
339 -10 m 0,0,1
 207 -10 207 -10 136.5 68 c 128,-1,2
 66 146 66 146 66 288 c 2,3,-1
 66 720 l 1,4,-1
 171 720 l 1,5,-1
 171 276 l 2,6,7
 171 179 171 179 215 129 c 128,-1,8
 259 79 259 79 339 79 c 0,9,10
 421 79 421 79 465 128.5 c 128,-1,11
 509 178 509 178 509 276 c 2,12,-1
 509 720 l 1,13,-1
 614 720 l 1,14,-1
 614 287 l 2,15,16
 614 146 614 146 543 68 c 128,-1,17
 472 -10 472 -10 339 -10 c 0,0,1
EndSplineSet
Validated: 1
EndChar

StartChar: V
Encoding: 86 86 99
Width: 697
Flags: W
LayerCount: 2
Fore
SplineSet
287 0 m 1,0,-1
 31 720 l 1,1,-1
 140 720 l 1,2,-1
 364 64 l 1,3,-1
 340 64 l 1,4,-1
 563 720 l 1,5,-1
 667 720 l 1,6,-1
 410 0 l 1,7,-1
 287 0 l 1,0,-1
EndSplineSet
Validated: 5
EndChar

StartChar: W
Encoding: 87 87 100
Width: 1032
GlyphClass: 2
Flags: W
AnchorPoint: "Anchor-2" 516 0 basechar 0
AnchorPoint: "Anchor-0" 516 720 basechar 0
LayerCount: 2
Fore
SplineSet
238 0 m 1,0,-1
 43 720 l 1,1,-1
 149 720 l 1,2,-1
 319 58 l 1,3,-1
 294 58 l 1,4,-1
 457 720 l 1,5,-1
 580 720 l 1,6,-1
 743 58 l 1,7,-1
 719 58 l 1,8,-1
 889 720 l 1,9,-1
 989 720 l 1,10,-1
 794 0 l 1,11,-1
 671 0 l 1,12,-1
 506 645 l 1,13,-1
 527 645 l 1,14,-1
 362 0 l 1,15,-1
 238 0 l 1,0,-1
EndSplineSet
Validated: 5
EndChar

StartChar: X
Encoding: 88 88 105
Width: 667
Flags: W
LayerCount: 2
Fore
SplineSet
515 0 m 1,0,-1
 303 330 l 1,1,-1
 47 720 l 1,2,-1
 167 720 l 1,3,-1
 366 410 l 1,4,-1
 636 0 l 1,5,-1
 515 0 l 1,0,-1
318 410 m 1,6,-1
 524 720 l 1,7,-1
 635 720 l 1,8,-1
 363 320 l 1,9,-1
 318 410 l 1,6,-1
350 317 m 1,10,-1
 141 0 l 1,11,-1
 30 0 l 1,12,-1
 304 406 l 1,13,-1
 350 317 l 1,10,-1
EndSplineSet
Validated: 5
EndChar

StartChar: Y
Encoding: 89 89 106
Width: 661
GlyphClass: 2
Flags: W
AnchorPoint: "Anchor-2" 330 0 basechar 0
AnchorPoint: "Anchor-0" 330 720 basechar 0
LayerCount: 2
Fore
SplineSet
278 0 m 1,0,-1
 278 316 l 1,1,-1
 19 720 l 1,2,-1
 144 720 l 1,3,-1
 362 363 l 1,4,-1
 310 363 l 1,5,-1
 528 720 l 1,6,-1
 642 720 l 1,7,-1
 383 316 l 1,8,-1
 383 0 l 1,9,-1
 278 0 l 1,0,-1
EndSplineSet
Validated: 5
EndChar

StartChar: Z
Encoding: 90 90 111
Width: 605
GlyphClass: 2
Flags: W
AnchorPoint: "Anchor-2" 303 0 basechar 0
AnchorPoint: "Anchor-0" 303 720 basechar 0
LayerCount: 2
Fore
SplineSet
54 0 m 1,0,-1
 54 75 l 1,1,-1
 447 678 l 1,2,-1
 478 634 l 1,3,-1
 65 634 l 1,4,-1
 65 720 l 1,5,-1
 549 720 l 1,6,-1
 549 646 l 1,7,-1
 157 44 l 1,8,-1
 127 86 l 1,9,-1
 557 86 l 1,10,-1
 557 0 l 1,11,-1
 54 0 l 1,0,-1
EndSplineSet
Validated: 5
EndChar

StartChar: K.ss04
Encoding: 65559 -1 133
Width: 674
GlyphClass: 2
Flags: W
AnchorPoint: "Anchor-2" 346 0 basechar 0
AnchorPoint: "Anchor-0" 338 720 basechar 0
LayerCount: 2
Fore
SplineSet
73 0 m 1,0,-1
 73 720 l 1,1,-1
 177 720 l 1,2,-1
 177 0 l 1,3,-1
 73 0 l 1,0,-1
118 276 m 1,4,-1
 501 720 l 1,5,-1
 633 720 l 1,6,-1
 332 377 l 1,7,-1
 312 369 l 1,8,-1
 141 175 l 1,9,-1
 118 276 l 1,4,-1
524 0 m 1,10,-1
 247 409 l 1,11,-1
 352 429 l 1,12,-1
 653 0 l 1,13,-1
 524 0 l 1,10,-1
EndSplineSet
Validated: 5
EndChar

StartChar: R.ss05
Encoding: 82 82 135
Width: 626
GlyphClass: 2
Flags: W
AnchorPoint: "Anchor-2" 322 0 basechar 0
AnchorPoint: "Anchor-0" 315 720 basechar 0
LayerCount: 2
Fore
SplineSet
73 0 m 1,0,-1
 73 720 l 1,1,-1
 344 720 l 2,2,3
 418 720 418 720 471 696 c 128,-1,4
 524 672 524 672 552.5 627.5 c 128,-1,5
 581 583 581 583 581 523 c 0,6,7
 581 449 581 449 535 402.5 c 128,-1,8
 489 356 489 356 396 336 c 1,9,-1
 402 363 l 1,10,11
 499 363 499 363 531 319.5 c 132,-1,12
 563 276 563 276 570 201 c 129,-1,13
 577 126 577 126 584 71 c 144,-1,14
 591 16 591 16 601 0 c 1,15,-1
 494 0 l 1,16,17
 484 37 484 37 481.5 105.5 c 128,-1,18
 479 174 479 174 469.5 218 c 128,-1,19
 460 262 460 262 439 287.5 c 128,-1,20
 418 313 418 313 326 313 c 128,-1,21
 234 313 234 313 134 313 c 1,22,-1
 134 395 l 1,23,-1
 336 395 l 2,24,25
 403 395 403 395 440 427 c 128,-1,26
 477 459 477 459 477 516 c 256,27,28
 477 573 477 573 440.5 603.5 c 128,-1,29
 404 634 404 634 336 634 c 2,30,-1
 177 634 l 1,31,-1
 177 0 l 1,32,-1
 73 0 l 1,0,-1
EndSplineSet
Validated: 5
EndChar

StartChar: M.ss06
Encoding: 65561 -1 139
Width: 853
Flags: W
LayerCount: 2
Fore
SplineSet
53 0 m 1,0,-1
 121 720 l 1,1,-1
 259 720 l 1,2,-1
 447 22 l 1,3,-1
 405 22 l 1,4,-1
 593 720 l 1,5,-1
 731 720 l 1,6,-1
 801 0 l 1,7,-1
 697 0 l 1,8,-1
 631 677 l 1,9,-1
 666 677 l 1,10,-1
 487 0 l 1,11,-1
 360 0 l 1,12,-1
 182 671 l 1,13,-1
 215 672 l 1,14,-1
 150 0 l 1,15,-1
 53 0 l 1,0,-1
EndSplineSet
Validated: 5
EndChar

StartChar: G.ss07
Encoding: 65562 -1 140
Width: 733
GlyphClass: 2
Flags: W
AnchorPoint: "Anchor-2" 376 0 basechar 0
AnchorPoint: "Anchor-0" 376 720 basechar 0
LayerCount: 2
Fore
SplineSet
381 -10 m 0,0,1
 280 -10 280 -10 203.5 37 c 128,-1,2
 127 84 127 84 85 167.5 c 128,-1,3
 43 251 43 251 43 358 c 0,4,5
 43 469 43 469 86 552 c 128,-1,6
 129 635 129 635 205.5 682.5 c 128,-1,7
 282 730 282 730 382 730 c 0,8,9
 465 730 465 730 528.5 698 c 128,-1,10
 592 666 592 666 631 611.5 c 128,-1,11
 670 557 670 557 680 488 c 1,12,-1
 576 488 l 1,13,14
 570 531 570 531 545.5 565.5 c 128,-1,15
 521 600 521 600 480 620.5 c 128,-1,16
 439 641 439 641 383 641 c 0,17,18
 311 641 311 641 258.5 606.5 c 128,-1,19
 206 572 206 572 177.5 508.5 c 128,-1,20
 149 445 149 445 149 359 c 0,21,22
 149 274 149 274 177 211 c 128,-1,23
 205 148 205 148 257.5 113.5 c 128,-1,24
 310 79 310 79 384 79 c 0,25,26
 445 79 445 79 492 105 c 128,-1,27
 539 131 539 131 566 187 c 128,-1,28
 593 243 593 243 593 332 c 1,29,-1
 691 332 l 1,30,31
 691 219 691 219 651 142.5 c 128,-1,32
 611 66 611 66 541 28 c 128,-1,33
 471 -10 471 -10 381 -10 c 0,0,1
617 291 m 1,34,-1
 398 291 l 1,35,-1
 398 377 l 1,36,-1
 691 377 l 1,37,-1
 691 332 l 1,38,-1
 617 291 l 1,34,-1
EndSplineSet
Validated: 5
EndChar

StartChar: J.ss08
Encoding: 65566 -1 144
Width: 604
Flags: W
LayerCount: 2
Fore
SplineSet
292 -10 m 0,0,1
 219 -10 219 -10 164 20.5 c 128,-1,2
 109 51 109 51 79.5 106.5 c 128,-1,3
 50 162 50 162 50 235 c 1,4,-1
 151 235 l 1,5,6
 151 160 151 160 191.5 119.5 c 128,-1,7
 232 79 232 79 292 79 c 0,8,9
 333 79 333 79 365 96 c 128,-1,10
 397 113 397 113 415.5 150.5 c 128,-1,11
 434 188 434 188 434 246 c 2,12,-1
 434 720 l 1,13,-1
 538 720 l 1,14,-1
 538 256 l 2,15,16
 538 169 538 169 508 110 c 128,-1,17
 478 51 478 51 423 20.5 c 128,-1,18
 368 -10 368 -10 292 -10 c 0,0,1
EndSplineSet
Validated: 1
EndChar

StartChar: Q.ss09
Encoding: 65567 -1 145
Width: 755
Flags: W
LayerCount: 2
Fore
SplineSet
378 -10 m 0,0,1
 304 -10 304 -10 243 17 c 128,-1,2
 182 44 182 44 137 94 c 128,-1,3
 92 144 92 144 67.5 212.5 c 128,-1,4
 43 281 43 281 43 363 c 0,5,6
 43 472 43 472 85.5 554.5 c 128,-1,7
 128 637 128 637 203.5 683.5 c 128,-1,8
 279 730 279 730 377 730 c 0,9,10
 476 730 476 730 551.5 684 c 128,-1,11
 627 638 627 638 670 555 c 128,-1,12
 713 472 713 472 713 362 c 0,13,14
 713 280 713 280 688 211.5 c 128,-1,15
 663 143 663 143 618.5 93.5 c 128,-1,16
 574 44 574 44 512.5 17 c 128,-1,17
 451 -10 451 -10 378 -10 c 0,0,1
377 78 m 0,18,19
 428 78 428 78 470 98 c 128,-1,20
 512 118 512 118 542.5 156 c 128,-1,21
 573 194 573 194 589.5 246.5 c 128,-1,22
 606 299 606 299 606 364 c 0,23,24
 606 448 606 448 577.5 510.5 c 128,-1,25
 549 573 549 573 497.5 607 c 128,-1,26
 446 641 446 641 377 641 c 256,27,28
 308 641 308 641 256.5 607 c 128,-1,29
 205 573 205 573 177 511 c 128,-1,30
 149 449 149 449 149 364 c 0,31,32
 149 278 149 278 177.5 214 c 128,-1,33
 206 150 206 150 257.5 114 c 128,-1,34
 309 78 309 78 377 78 c 0,18,19
367 230 m 1,35,-1
 442 273 l 1,36,-1
 650 -88 l 1,37,-1
 575 -131 l 1,38,-1
 367 230 l 1,35,-1
EndSplineSet
Validated: 5
EndChar

StartChar: a
Encoding: 97 97 150
Width: 527
GlyphClass: 2
Flags: WO
AnchorPoint: "Anchor-3" 477 0 basechar 0
AnchorPoint: "Anchor-2" 266 0 basechar 0
AnchorPoint: "Anchor-0" 270 510 basechar 0
LayerCount: 2
Fore
SplineSet
374 0 m 1,0,1
 370 19 370 19 368 41.5 c 128,-1,2
 366 64 366 64 366 97 c 1,3,-1
 361 97 l 1,4,-1
 361 346 l 2,5,6
 361 393 361 393 339.5 416.5 c 128,-1,7
 318 440 318 440 269 440 c 256,8,9
 227 440 227 440 195 419.5 c 0,10,11
 167 402 167 402 163 361 c 1,12,-1
 66 361 l 1,13,14
 72 434 72 434 128.5 477 c 128,-1,15
 185 520 185 520 273 520 c 0,16,17
 369 520 369 520 415 474.5 c 128,-1,18
 461 429 461 429 461 341 c 2,19,20
 461 219 461 219 462.5 146.5 c 128,-1,21
 464 74 464 74 467 50 c 128,-1,22
 470 26 470 26 476 0 c 1,23,-1
 374 0 l 1,0,1
205 -10 m 0,24,25
 131 -10 131 -10 86.5 28 c 128,-1,26
 42 66 42 66 42 131 c 0,27,28
 42 198 42 198 88 237 c 128,-1,29
 134 276 134 276 217.5 284 c 128,-1,30
 301 292 301 292 383 299 c 1,31,-1
 384 245 l 5,32,33
 312 232 312 232 252 223.5 c 128,-1,34
 192 215 192 215 167.5 195 c 128,-1,35
 143 175 143 175 143 140 c 0,36,37
 143 106 143 106 165.5 88.5 c 128,-1,38
 188 71 188 71 230 71 c 0,39,40
 287 71 287 71 324 99.5 c 128,-1,41
 361 128 361 128 361 171 c 1,42,-1
 374 97 l 1,43,44
 357 45 357 45 312.5 17.5 c 128,-1,45
 268 -10 268 -10 205 -10 c 0,24,25
EndSplineSet
Substitution2: "'ss02' Style Set 2 in Latin lookup 23 subtable" a.ss02
Substitution2: "Single Substitution lookup 17 subtable" ordfeminine
AlternateSubs2: "'aalt' Access All Alternates in Latin lookup 1 subtable" a.ss02 ordfeminine
EndChar

StartChar: ae
Encoding: 230 230 161
Width: 842
Flags: W
LayerCount: 2
Fore
SplineSet
355 136 m 1,0,-1
 355 346 l 2,1,2
 355 393 355 393 332 416.5 c 128,-1,3
 309 440 309 440 262 440 c 0,4,5
 216 440 216 440 187.5 419.5 c 128,-1,6
 159 399 159 399 154 361 c 1,7,-1
 57 361 l 1,8,9
 63 434 63 434 117 477 c 128,-1,10
 171 520 171 520 264 520 c 0,11,12
 358 520 358 520 405.5 474.5 c 128,-1,13
 453 429 453 429 453 341 c 2,14,-1
 453 136 l 1,15,-1
 355 136 l 1,0,-1
207 -10 m 0,16,17
 132 -10 132 -10 87 28 c 128,-1,18
 42 66 42 66 42 130 c 0,19,20
 42 192 42 192 84.5 232 c 128,-1,21
 127 272 127 272 220 289 c 2,22,-1
 373 316 l 1,23,-1
 373 243 l 1,24,-1
 241 221 l 2,25,26
 189 212 189 212 166.5 191 c 128,-1,27
 144 170 144 170 144 137 c 0,28,29
 144 106 144 106 166 88.5 c 128,-1,30
 188 71 188 71 230 71 c 0,31,32
 265 71 265 71 293 84 c 128,-1,33
 321 97 321 97 338 120 c 128,-1,34
 355 143 355 143 355 171 c 1,35,-1
 423 136 l 1,36,37
 391 55 391 55 335.5 22.5 c 128,-1,38
 280 -10 280 -10 207 -10 c 0,16,17
588 -10 m 0,39,40
 517 -10 517 -10 466 24 c 128,-1,41
 415 58 415 58 387.5 118 c 128,-1,42
 360 178 360 178 360 256 c 0,43,44
 360 335 360 335 388.5 394.5 c 128,-1,45
 417 454 417 454 468.5 487 c 128,-1,46
 520 520 520 520 589 520 c 0,47,48
 656 520 656 520 705.5 489 c 128,-1,49
 755 458 755 458 782 401.5 c 128,-1,50
 809 345 809 345 809 268 c 0,51,52
 809 256 809 256 808.5 246 c 128,-1,53
 808 236 808 236 806 225 c 1,54,-1
 418 225 l 1,55,-1
 418 302 l 1,56,-1
 738 302 l 1,57,-1
 713 270 l 1,58,59
 713 354 713 354 682 397 c 128,-1,60
 651 440 651 440 590 440 c 0,61,62
 550 440 550 440 519 418.5 c 128,-1,63
 488 397 488 397 470.5 356 c 128,-1,64
 453 315 453 315 453 256 c 0,65,66
 453 168 453 168 489.5 119 c 128,-1,67
 526 70 526 70 590 70 c 0,68,69
 631 70 631 70 658 89.5 c 128,-1,70
 685 109 685 109 699 146 c 1,71,-1
 796 146 l 1,72,73
 773 74 773 74 719 32 c 128,-1,74
 665 -10 665 -10 588 -10 c 0,39,40
EndSplineSet
Validated: 5
EndChar

StartChar: b
Encoding: 98 98 162
Width: 594
Flags: W
LayerCount: 2
Fore
SplineSet
334 -9 m 0,0,1
 265 -9 265 -9 219 25 c 128,-1,2
 173 59 173 59 159 120 c 1,3,-1
 168 122 l 1,4,-1
 168 0 l 1,5,-1
 71 0 l 1,6,-1
 71 720 l 1,7,-1
 173 720 l 1,8,-1
 173 395 l 1,9,-1
 163 398 l 1,10,11
 179 455 179 455 226.5 487.5 c 128,-1,12
 274 520 274 520 342 520 c 0,13,14
 408 520 408 520 456.5 487.5 c 128,-1,15
 505 455 505 455 531.5 396 c 128,-1,16
 558 337 558 337 558 258 c 0,17,18
 558 177 558 177 530 117 c 128,-1,19
 502 57 502 57 452 24 c 128,-1,20
 402 -9 402 -9 334 -9 c 0,0,1
312 76 m 256,21,22
 378 76 378 76 415.5 123.5 c 128,-1,23
 453 171 453 171 453 257 c 0,24,25
 453 341 453 341 415.5 387.5 c 128,-1,26
 378 434 378 434 312 434 c 256,27,28
 246 434 246 434 208 387 c 128,-1,29
 170 340 170 340 170 254 c 0,30,31
 170 170 170 170 208 123 c 128,-1,32
 246 76 246 76 312 76 c 256,21,22
EndSplineSet
Validated: 5
EndChar

StartChar: c
Encoding: 99 99 163
Width: 524
GlyphClass: 2
Flags: W
AnchorPoint: "Anchor-2" 271 0 basechar 0
AnchorPoint: "Anchor-0" 277 510 basechar 0
LayerCount: 2
Fore
SplineSet
275 -10 m 0,0,1
 204 -10 204 -10 149.5 24 c 128,-1,2
 95 58 95 58 64 118 c 128,-1,3
 33 178 33 178 33 256 c 256,4,5
 33 334 33 334 64 393.5 c 128,-1,6
 95 453 95 453 150 486.5 c 128,-1,7
 205 520 205 520 275 520 c 0,8,9
 334 520 334 520 380.5 497 c 128,-1,10
 427 474 427 474 456.5 432.5 c 128,-1,11
 486 391 486 391 494 334 c 1,12,-1
 398 334 l 1,13,14
 389 381 389 381 357.5 408.5 c 128,-1,15
 326 436 326 436 277 436 c 0,16,17
 234 436 234 436 203 414.5 c 128,-1,18
 172 393 172 393 155 352.5 c 128,-1,19
 138 312 138 312 138 256 c 0,20,21
 138 201 138 201 155 159.5 c 128,-1,22
 172 118 172 118 203.5 96 c 128,-1,23
 235 74 235 74 277 74 c 0,24,25
 325 74 325 74 357.5 101 c 128,-1,26
 390 128 390 128 399 175 c 1,27,-1
 495 175 l 1,28,29
 486 120 486 120 455.5 78 c 128,-1,30
 425 36 425 36 379 13 c 128,-1,31
 333 -10 333 -10 275 -10 c 0,0,1
EndSplineSet
Validated: 1
EndChar

StartChar: d
Encoding: 100 100 168
Width: 594
GlyphClass: 2
Flags: W
AnchorPoint: "Anchor-2" 297 0 basechar 0
AnchorPoint: "Anchor-1" 584 720 basechar 0
AnchorPoint: "Anchor-0" 297 738 basechar 0
LayerCount: 2
Fore
SplineSet
425 0 m 1,0,-1
 425 115 l 1,1,-1
 435 112 l 1,2,3
 419 56 419 56 371 23 c 128,-1,4
 323 -10 323 -10 256 -10 c 256,5,6
 189 -10 189 -10 139.5 22.5 c 128,-1,7
 90 55 90 55 63 114 c 128,-1,8
 36 173 36 173 36 252 c 0,9,10
 36 333 36 333 63.5 393 c 128,-1,11
 91 453 91 453 141.5 486 c 128,-1,12
 192 519 192 519 260 519 c 0,13,14
 329 519 329 519 375 485 c 128,-1,15
 421 451 421 451 435 390 c 1,16,-1
 421 388 l 1,17,-1
 421 720 l 1,18,-1
 523 720 l 1,19,-1
 523 0 l 1,20,-1
 425 0 l 1,0,-1
282 76 m 0,21,22
 349 76 349 76 386.5 123 c 128,-1,23
 424 170 424 170 424 256 c 0,24,25
 424 340 424 340 386 387 c 128,-1,26
 348 434 348 434 282 434 c 256,27,28
 216 434 216 434 178.5 386.5 c 128,-1,29
 141 339 141 339 141 253 c 0,30,31
 141 169 141 169 178.5 122.5 c 128,-1,32
 216 76 216 76 282 76 c 0,21,22
EndSplineSet
Validated: 5
EndChar

StartChar: eth
Encoding: 240 240 169
Width: 581
Flags: W
LayerCount: 2
Fore
SplineSet
281 -10 m 0,0,1
 211 -10 211 -10 155.5 19.5 c 128,-1,2
 100 49 100 49 68 105.5 c 128,-1,3
 36 162 36 162 36 243 c 0,4,5
 36 323 36 323 68 379 c 128,-1,6
 100 435 100 435 154 465 c 128,-1,7
 208 495 208 495 271 495 c 0,8,9
 324 495 324 495 365 476.5 c 128,-1,10
 406 458 406 458 433 424 c 128,-1,11
 460 390 460 390 468 344 c 1,12,-1
 442 297 l 1,13,-1
 442 356 l 2,14,15
 442 453 442 453 403 519.5 c 128,-1,16
 364 586 364 586 288.5 620.5 c 128,-1,17
 213 655 213 655 103 655 c 1,18,-1
 118 730 l 1,19,20
 216 730 216 730 295 704 c 128,-1,21
 374 678 374 678 429.5 628 c 128,-1,22
 485 578 485 578 515 504 c 128,-1,23
 545 430 545 430 545 334 c 0,24,25
 545 169 545 169 476 79.5 c 128,-1,26
 407 -10 407 -10 281 -10 c 0,0,1
280 76 m 0,27,28
 324 76 324 76 357.5 95.5 c 128,-1,29
 391 115 391 115 411 154 c 128,-1,30
 431 193 431 193 431 249 c 256,31,32
 431 305 431 305 410.5 341 c 128,-1,33
 390 377 390 377 356 394.5 c 128,-1,34
 322 412 322 412 282 412 c 0,35,36
 222 412 222 412 182.5 370.5 c 128,-1,37
 143 329 143 329 143 243 c 0,38,39
 143 186 143 186 161.5 149 c 128,-1,40
 180 112 180 112 211 94 c 128,-1,41
 242 76 242 76 280 76 c 0,27,28
190 521 m 1,42,-1
 154 577 l 1,43,-1
 432 755 l 1,44,-1
 468 699 l 1,45,-1
 190 521 l 1,42,-1
EndSplineSet
Validated: 5
EndChar

StartChar: dcroat
Encoding: 273 273 171
Width: 594
GlyphClass: 2
Flags: W
AnchorPoint: "Anchor-2" 297 0 basechar 0
AnchorPoint: "Anchor-1" 584 720 basechar 0
AnchorPoint: "Anchor-0" 297 738 basechar 0
LayerCount: 2
Fore
SplineSet
251 589 m 1,0,-1
 251 660 l 1,1,-1
 594 660 l 1,2,-1
 594 589 l 1,3,-1
 251 589 l 1,0,-1
425 0 m 1,4,-1
 425 115 l 1,5,-1
 435 112 l 1,6,7
 419 56 419 56 371 23 c 128,-1,8
 323 -10 323 -10 256 -10 c 256,9,10
 189 -10 189 -10 139.5 22.5 c 128,-1,11
 90 55 90 55 63 114 c 128,-1,12
 36 173 36 173 36 252 c 0,13,14
 36 333 36 333 63.5 393 c 128,-1,15
 91 453 91 453 141.5 486 c 128,-1,16
 192 519 192 519 260 519 c 0,17,18
 329 519 329 519 375 485 c 128,-1,19
 421 451 421 451 435 390 c 1,20,-1
 421 388 l 1,21,-1
 421 720 l 1,22,-1
 523 720 l 1,23,-1
 523 0 l 1,24,-1
 425 0 l 1,4,-1
282 76 m 0,25,26
 349 76 349 76 386.5 123 c 128,-1,27
 424 170 424 170 424 256 c 0,28,29
 424 340 424 340 386 387 c 128,-1,30
 348 434 348 434 282 434 c 256,31,32
 216 434 216 434 178.5 386.5 c 128,-1,33
 141 339 141 339 141 253 c 0,34,35
 141 169 141 169 178.5 122.5 c 128,-1,36
 216 76 216 76 282 76 c 0,25,26
EndSplineSet
Validated: 5
EndChar

StartChar: e
Encoding: 101 101 172
Width: 548
GlyphClass: 2
Flags: W
AnchorPoint: "Anchor-3" 404 20 basechar 0
AnchorPoint: "Anchor-2" 274 0 basechar 0
AnchorPoint: "Anchor-0" 285 510 basechar 0
LayerCount: 2
Fore
SplineSet
282 -10 m 0,0,1
 208 -10 208 -10 152 24 c 128,-1,2
 96 58 96 58 64.5 118 c 128,-1,3
 33 178 33 178 33 256 c 0,4,5
 33 335 33 335 64.5 394.5 c 128,-1,6
 96 454 96 454 152.5 487 c 128,-1,7
 209 520 209 520 283 520 c 0,8,9
 354 520 354 520 406.5 489 c 128,-1,10
 459 458 459 458 487 401.5 c 128,-1,11
 515 345 515 345 515 268 c 0,12,13
 515 256 515 256 514.5 246 c 128,-1,14
 514 236 514 236 512 225 c 1,15,-1
 101 225 l 1,16,-1
 101 302 l 1,17,-1
 442 302 l 1,18,-1
 415 270 l 1,19,20
 415 354 415 354 380.5 397 c 128,-1,21
 346 440 346 440 282 440 c 0,22,23
 215 440 215 440 175.5 391.5 c 128,-1,24
 136 343 136 343 136 256 c 0,25,26
 136 168 136 168 175.5 119 c 128,-1,27
 215 70 215 70 285 70 c 0,28,29
 328 70 328 70 360 89.5 c 128,-1,30
 392 109 392 109 406 146 c 1,31,-1
 502 146 l 1,32,33
 479 74 479 74 422 32 c 128,-1,34
 365 -10 365 -10 282 -10 c 0,0,1
EndSplineSet
Validated: 5
EndChar

StartChar: f
Encoding: 102 102 181
Width: 350
Flags: W
LayerCount: 2
Fore
SplineSet
110 0 m 1,0,-1
 110 574 l 2,1,2
 110 649 110 649 152.5 689.5 c 128,-1,3
 195 730 195 730 280 730 c 0,4,5
 300 730 300 730 312.5 728 c 128,-1,6
 325 726 325 726 335 723 c 1,7,-1
 335 643 l 1,8,9
 328 645 328 645 317 647 c 128,-1,10
 306 649 306 649 292 649 c 0,11,12
 251 649 251 649 231 628.5 c 128,-1,13
 211 608 211 608 211 570 c 2,14,-1
 211 0 l 1,15,-1
 110 0 l 1,0,-1
15 428 m 1,16,-1
 15 510 l 1,17,-1
 324 510 l 1,18,-1
 324 428 l 1,19,-1
 15 428 l 1,16,-1
EndSplineSet
Validated: 5
EndChar

StartChar: g
Encoding: 103 103 182
Width: 594
GlyphClass: 2
Flags: W
AnchorPoint: "Anchor-2" 297 -205 basechar 0
AnchorPoint: "Anchor-0" 282 510 basechar 0
LayerCount: 2
Fore
SplineSet
279 -215 m 0,0,1
 186 -215 186 -215 125.5 -172 c 128,-1,2
 65 -129 65 -129 53 -57 c 1,3,-1
 150 -57 l 1,4,5
 159 -90 159 -90 192 -109 c 128,-1,6
 225 -128 225 -128 280 -128 c 0,7,8
 351 -128 351 -128 386 -92.5 c 128,-1,9
 421 -57 421 -57 421 13 c 2,10,-1
 421 127 l 1,11,-1
 430 126 l 1,12,13
 416 69 416 69 368 36 c 128,-1,14
 320 3 320 3 253 3 c 0,15,16
 187 3 187 3 138.5 35 c 128,-1,17
 90 67 90 67 63 124.5 c 128,-1,18
 36 182 36 182 36 259 c 0,19,20
 36 337 36 337 64 396 c 128,-1,21
 92 455 92 455 142.5 487 c 128,-1,22
 193 519 193 519 261 519 c 0,23,24
 330 519 330 519 375.5 485 c 128,-1,25
 421 451 421 451 434 390 c 1,26,-1
 426 389 l 1,27,-1
 426 510 l 1,28,-1
 523 510 l 1,29,-1
 523 16 l 2,30,31
 523 -92 523 -92 458 -153.5 c 128,-1,32
 393 -215 393 -215 279 -215 c 0,0,1
283 86 m 256,33,34
 348 86 348 86 386 132.5 c 128,-1,35
 424 179 424 179 424 263 c 0,36,37
 424 345 424 345 386 390.5 c 128,-1,38
 348 436 348 436 282 436 c 0,39,40
 217 436 217 436 179 390 c 128,-1,41
 141 344 141 344 141 260 c 0,42,43
 141 178 141 178 179.5 132 c 128,-1,44
 218 86 218 86 283 86 c 256,33,34
EndSplineSet
Validated: 5
EndChar

StartChar: h
Encoding: 104 104 186
Width: 586
GlyphClass: 2
Flags: W
AnchorPoint: "Anchor-2" 298 0 basechar 0
AnchorPoint: "Anchor-0" 298 510 basechar 0
LayerCount: 2
Fore
SplineSet
71 0 m 1,0,-1
 71 720 l 1,1,-1
 173 720 l 1,2,-1
 173 0 l 1,3,-1
 71 0 l 1,0,-1
419 0 m 1,4,-1
 419 333 l 2,5,6
 419 384 419 384 394 409 c 128,-1,7
 369 434 369 434 319 434 c 0,8,9
 276 434 276 434 243 415 c 128,-1,10
 210 396 210 396 191.5 362 c 128,-1,11
 173 328 173 328 173 283 c 1,12,-1
 160 400 l 1,13,14
 185 455 185 455 235 487.5 c 128,-1,15
 285 520 285 520 351 520 c 0,16,17
 430 520 430 520 475 475.5 c 128,-1,18
 520 431 520 431 520 356 c 2,19,-1
 520 0 l 1,20,-1
 419 0 l 1,4,-1
EndSplineSet
Validated: 5
EndChar

StartChar: hbar
Encoding: 295 295 187
Width: 586
GlyphClass: 2
Flags: W
AnchorPoint: "Anchor-2" 298 0 basechar 0
AnchorPoint: "Anchor-0" 298 510 basechar 0
LayerCount: 2
Fore
SplineSet
0 589 m 1,0,-1
 0 660 l 1,1,-1
 343 660 l 1,2,-1
 343 589 l 1,3,-1
 0 589 l 1,0,-1
71 0 m 1,4,-1
 71 720 l 1,5,-1
 173 720 l 1,6,-1
 173 0 l 1,7,-1
 71 0 l 1,4,-1
419 0 m 1,8,-1
 419 333 l 2,9,10
 419 384 419 384 394 409 c 128,-1,11
 369 434 369 434 320 434 c 0,12,13
 276 434 276 434 243 415 c 128,-1,14
 210 396 210 396 191.5 362 c 128,-1,15
 173 328 173 328 173 283 c 1,16,-1
 160 400 l 1,17,18
 185 455 185 455 235 487.5 c 128,-1,19
 285 520 285 520 351 520 c 0,20,21
 430 520 430 520 475 475.5 c 128,-1,22
 520 431 520 431 520 356 c 2,23,-1
 520 0 l 1,24,-1
 419 0 l 1,8,-1
EndSplineSet
Validated: 5
EndChar

StartChar: dotlessi
Encoding: 305 305 189
Width: 244
GlyphClass: 2
Flags: W
AnchorPoint: "Anchor-3" 173 0 basechar 0
AnchorPoint: "Anchor-2" 122 0 basechar 0
AnchorPoint: "Anchor-0" 122 510 basechar 0
LayerCount: 2
Fore
SplineSet
71 0 m 1,0,-1
 71 510 l 1,1,-1
 173 510 l 1,2,-1
 173 0 l 1,3,-1
 71 0 l 1,0,-1
EndSplineSet
Validated: 1
EndChar

StartChar: uni0237
Encoding: 567 567 199
Width: 244
GlyphClass: 2
Flags: W
AnchorPoint: "Anchor-2" 122 -205 basechar 0
AnchorPoint: "Anchor-0" 122 510 basechar 0
LayerCount: 2
Fore
SplineSet
22 -215 m 0,0,1
 4 -215 4 -215 -9 -213 c 128,-1,2
 -22 -211 -22 -211 -32 -208 c 1,3,-1
 -32 -128 l 1,4,5
 -25 -130 -25 -130 -14 -132 c 128,-1,6
 -3 -134 -3 -134 10 -134 c 0,7,8
 43 -134 43 -134 57 -119 c 128,-1,9
 71 -104 71 -104 71 -75 c 2,10,-1
 71 510 l 1,11,-1
 173 510 l 1,12,-1
 173 -78 l 2,13,14
 173 -143 173 -143 136.5 -179 c 128,-1,15
 100 -215 100 -215 22 -215 c 0,0,1
EndSplineSet
Validated: 1
EndChar

StartChar: k
Encoding: 107 107 200
Width: 530
GlyphClass: 2
Flags: W
AnchorPoint: "Anchor-2" 279 0 basechar 0
AnchorPoint: "Anchor-0" 265 740 basechar 0
LayerCount: 2
Fore
SplineSet
71 0 m 1,0,-1
 71 732 l 1,1,-1
 173 732 l 1,2,-1
 173 0 l 1,3,-1
 71 0 l 1,0,-1
391 0 m 1,4,-1
 151 265 l 1,5,-1
 383 510 l 1,6,-1
 510 510 l 1,7,-1
 246 242 l 1,8,-1
 251 289 l 1,9,-1
 520 0 l 1,10,-1
 391 0 l 1,4,-1
EndSplineSet
Validated: 5
Substitution2: "'ss04' Style Set 4 in Latin lookup 25 subtable" k.ss04
Substitution2: "'aalt' Access All Alternates in Latin lookup 0 subtable" k.ss04
EndChar

StartChar: l
Encoding: 108 108 202
Width: 244
GlyphClass: 2
Flags: W
AnchorPoint: "Anchor-2" 122 0 basechar 0
AnchorPoint: "Anchor-1" 235 720 basechar 0
AnchorPoint: "Anchor-0" 122 720 basechar 0
LayerCount: 2
Fore
SplineSet
71 0 m 1,0,-1
 71 720 l 1,1,-1
 173 720 l 1,2,-1
 173 0 l 1,3,-1
 71 0 l 1,0,-1
EndSplineSet
Validated: 1
EndChar

StartChar: lslash
Encoding: 322 322 206
Width: 269
GlyphClass: 2
Flags: W
AnchorPoint: "Anchor-2" 135 0 basechar 0
AnchorPoint: "Anchor-1" 247 720 basechar 0
AnchorPoint: "Anchor-0" 135 720 basechar 0
LayerCount: 2
Fore
SplineSet
139 341 m 1,0,-1
 3 285 l 1,1,-1
 3 359 l 1,2,-1
 137 415 l 1,3,-1
 139 341 l 1,0,-1
137 421 m 1,4,-1
 266 475 l 1,5,-1
 266 400 l 1,6,-1
 139 347 l 1,7,-1
 137 421 l 1,4,-1
84 0 m 1,8,-1
 84 720 l 1,9,-1
 186 720 l 1,10,-1
 186 0 l 1,11,-1
 84 0 l 1,8,-1
EndSplineSet
Validated: 5
EndChar

StartChar: m
Encoding: 109 109 207
Width: 900
Flags: W
LayerCount: 2
Fore
SplineSet
71 0 m 1,0,-1
 71 510 l 1,1,-1
 169 510 l 1,2,-1
 169 393 l 1,3,-1
 173 393 l 1,4,-1
 173 0 l 1,5,-1
 71 0 l 1,0,-1
402 0 m 1,6,-1
 402 339 l 2,7,8
 402 388 402 388 379 411 c 128,-1,9
 356 434 356 434 313 434 c 0,10,11
 273 434 273 434 241.5 415.5 c 128,-1,12
 210 397 210 397 191.5 363.5 c 128,-1,13
 173 330 173 330 173 285 c 1,14,-1
 160 400 l 1,15,16
 185 455 185 455 233.5 487.5 c 128,-1,17
 282 520 282 520 343 520 c 0,18,19
 416 520 416 520 460 477 c 128,-1,20
 504 434 504 434 504 364 c 2,21,-1
 504 0 l 1,22,-1
 402 0 l 1,6,-1
732 0 m 1,23,-1
 732 339 l 2,24,25
 732 388 732 388 709 411 c 128,-1,26
 686 434 686 434 644 434 c 0,27,28
 604 434 604 434 572 415.5 c 128,-1,29
 540 397 540 397 522 363.5 c 128,-1,30
 504 330 504 330 504 285 c 1,31,-1
 483 400 l 1,32,33
 508 456 508 456 558.5 488 c 128,-1,34
 609 520 609 520 671 520 c 0,35,36
 745 520 745 520 789.5 476.5 c 128,-1,37
 834 433 834 433 834 361 c 2,38,-1
 834 0 l 1,39,-1
 732 0 l 1,23,-1
EndSplineSet
Validated: 5
EndChar

StartChar: n
Encoding: 110 110 208
Width: 586
GlyphClass: 2
Flags: W
AnchorPoint: "Anchor-2" 305 0 basechar 0
AnchorPoint: "Anchor-0" 319 510 basechar 0
LayerCount: 2
Fore
SplineSet
71 0 m 1,0,-1
 71 510 l 1,1,-1
 169 510 l 1,2,-1
 169 393 l 1,3,-1
 173 393 l 1,4,-1
 173 0 l 1,5,-1
 71 0 l 1,0,-1
419 0 m 1,6,-1
 419 333 l 2,7,8
 419 384 419 384 394 409 c 128,-1,9
 369 434 369 434 319 434 c 0,10,11
 276 434 276 434 243 415 c 128,-1,12
 210 396 210 396 191.5 362 c 128,-1,13
 173 328 173 328 173 283 c 1,14,-1
 160 400 l 1,15,16
 185 455 185 455 235 487.5 c 128,-1,17
 285 520 285 520 351 520 c 0,18,19
 430 520 430 520 475 475.5 c 128,-1,20
 520 431 520 431 520 356 c 2,21,-1
 520 0 l 1,22,-1
 419 0 l 1,6,-1
EndSplineSet
Validated: 5
EndChar

StartChar: eng
Encoding: 331 331 213
Width: 586
Flags: W
LayerCount: 2
Fore
SplineSet
369 -215 m 0,0,1
 351 -215 351 -215 338.5 -213 c 128,-1,2
 326 -211 326 -211 316 -208 c 1,3,-1
 316 -128 l 1,4,5
 323 -130 323 -130 334 -132 c 128,-1,6
 345 -134 345 -134 357 -134 c 0,7,8
 390 -134 390 -134 404.5 -119 c 128,-1,9
 419 -104 419 -104 419 -75 c 2,10,-1
 419 333 l 2,11,12
 419 384 419 384 394 409 c 128,-1,13
 369 434 369 434 319 434 c 0,14,15
 276 434 276 434 243 415 c 128,-1,16
 210 396 210 396 191.5 362 c 128,-1,17
 173 328 173 328 173 283 c 1,18,-1
 160 400 l 1,19,20
 185 455 185 455 235 487.5 c 128,-1,21
 285 520 285 520 351 520 c 0,22,23
 430 520 430 520 475 475.5 c 128,-1,24
 520 431 520 431 520 356 c 2,25,-1
 520 -78 l 2,26,27
 520 -143 520 -143 484 -179 c 128,-1,28
 448 -215 448 -215 369 -215 c 0,0,1
71 0 m 1,29,-1
 71 510 l 1,30,-1
 169 510 l 1,31,-1
 169 393 l 1,32,-1
 173 393 l 1,33,-1
 173 0 l 1,34,-1
 71 0 l 1,29,-1
EndSplineSet
Validated: 5
EndChar

StartChar: o
Encoding: 111 111 214
Width: 572
GlyphClass: 2
Flags: W
AnchorPoint: "Anchor-3" 411 20 basechar 0
AnchorPoint: "Anchor-2" 286 0 basechar 0
AnchorPoint: "Anchor-1" 552 510 basechar 0
AnchorPoint: "Anchor-0" 286 510 basechar 0
LayerCount: 2
Fore
SplineSet
286 -10 m 256,0,1
 210 -10 210 -10 153 24.5 c 128,-1,2
 96 59 96 59 64.5 119.5 c 128,-1,3
 33 180 33 180 33 257 c 0,4,5
 33 335 33 335 65 394 c 128,-1,6
 97 453 97 453 153.5 486.5 c 128,-1,7
 210 520 210 520 286 520 c 0,8,9
 363 520 363 520 419.5 486.5 c 128,-1,10
 476 453 476 453 507.5 394 c 128,-1,11
 539 335 539 335 539 257 c 0,12,13
 539 180 539 180 507.5 119.5 c 128,-1,14
 476 59 476 59 419 24.5 c 128,-1,15
 362 -10 362 -10 286 -10 c 256,0,1
286 74 m 256,16,17
 330 74 330 74 363.5 96.5 c 128,-1,18
 397 119 397 119 415.5 160.5 c 128,-1,19
 434 202 434 202 434 258 c 0,20,21
 434 341 434 341 393 388.5 c 128,-1,22
 352 436 352 436 286 436 c 256,23,24
 220 436 220 436 179 388.5 c 128,-1,25
 138 341 138 341 138 258 c 0,26,27
 138 202 138 202 156.5 160.5 c 128,-1,28
 175 119 175 119 208.5 96.5 c 128,-1,29
 242 74 242 74 286 74 c 256,16,17
EndSplineSet
Validated: 1
Substitution2: "Single Substitution lookup 17 subtable" ordmasculine
Substitution2: "'aalt' Access All Alternates in Latin lookup 0 subtable" ordmasculine
EndChar

StartChar: oslash
Encoding: 248 248 221
Width: 572
Flags: W
LayerCount: 2
Fore
SplineSet
286 -10 m 256,0,1
 210 -10 210 -10 153 24.5 c 128,-1,2
 96 59 96 59 64.5 119.5 c 128,-1,3
 33 180 33 180 33 257 c 0,4,5
 33 335 33 335 65 394 c 128,-1,6
 97 453 97 453 153.5 486.5 c 128,-1,7
 210 520 210 520 286 520 c 0,8,9
 363 520 363 520 419.5 486.5 c 128,-1,10
 476 453 476 453 507.5 394 c 128,-1,11
 539 335 539 335 539 257 c 0,12,13
 539 180 539 180 507.5 119.5 c 128,-1,14
 476 59 476 59 419 24.5 c 128,-1,15
 362 -10 362 -10 286 -10 c 256,0,1
286 72 m 0,16,17
 332 72 332 72 365 95 c 128,-1,18
 398 118 398 118 417 160 c 128,-1,19
 436 202 436 202 436 258 c 0,20,21
 436 342 436 342 395 390 c 128,-1,22
 354 438 354 438 286 438 c 0,23,24
 219 438 219 438 177.5 390 c 128,-1,25
 136 342 136 342 136 258 c 0,26,27
 136 202 136 202 155 160 c 128,-1,28
 174 118 174 118 207.5 95 c 128,-1,29
 241 72 241 72 286 72 c 0,16,17
83 -8 m 1,30,-1
 33 40 l 1,31,-1
 489 518 l 1,32,-1
 539 470 l 1,33,-1
 83 -8 l 1,30,-1
EndSplineSet
Validated: 5
EndChar

StartChar: oe
Encoding: 339 339 223
Width: 911
Flags: W
LayerCount: 2
Fore
SplineSet
276 -10 m 256,0,1
 205 -10 205 -10 150 24.5 c 128,-1,2
 95 59 95 59 64 119.5 c 128,-1,3
 33 180 33 180 33 257 c 0,4,5
 33 335 33 335 64.5 394 c 128,-1,6
 96 453 96 453 150.5 486.5 c 128,-1,7
 205 520 205 520 276 520 c 0,8,9
 348 520 348 520 400 486.5 c 128,-1,10
 452 453 452 453 480.5 394 c 128,-1,11
 509 335 509 335 509 257 c 0,12,13
 509 180 509 180 480.5 119.5 c 128,-1,14
 452 59 452 59 399.5 24.5 c 128,-1,15
 347 -10 347 -10 276 -10 c 256,0,1
276 74 m 0,16,17
 317 74 317 74 348 96.5 c 128,-1,18
 379 119 379 119 396.5 160.5 c 128,-1,19
 414 202 414 202 414 258 c 0,20,21
 414 313 414 313 396.5 353 c 128,-1,22
 379 393 379 393 348 414.5 c 128,-1,23
 317 436 317 436 276 436 c 0,24,25
 236 436 236 436 205 414.5 c 128,-1,26
 174 393 174 393 156 353 c 128,-1,27
 138 313 138 313 138 258 c 0,28,29
 138 202 138 202 156 160.5 c 128,-1,30
 174 119 174 119 205 96.5 c 128,-1,31
 236 74 236 74 276 74 c 0,16,17
655 -10 m 0,32,33
 586 -10 586 -10 534 24 c 128,-1,34
 482 58 482 58 452.5 118 c 128,-1,35
 423 178 423 178 423 256 c 0,36,37
 423 335 423 335 452.5 394.5 c 128,-1,38
 482 454 482 454 534.5 487 c 128,-1,39
 587 520 587 520 656 520 c 0,40,41
 722 520 722 520 772 489 c 128,-1,42
 822 458 822 458 850 401.5 c 128,-1,43
 878 345 878 345 878 268 c 0,44,45
 878 256 878 256 877.5 246 c 128,-1,46
 877 236 877 236 875 225 c 1,47,-1
 484 225 l 1,48,-1
 484 302 l 1,49,-1
 805 302 l 1,50,-1
 780 270 l 1,51,52
 779 354 779 354 746 397 c 128,-1,53
 713 440 713 440 656 440 c 0,54,55
 616 440 616 440 584.5 418 c 128,-1,56
 553 396 553 396 536 355 c 128,-1,57
 519 314 519 314 519 256 c 256,58,59
 519 198 519 198 536 156.5 c 128,-1,60
 553 115 553 115 584.5 92.5 c 128,-1,61
 616 70 616 70 658 70 c 0,62,63
 694 70 694 70 724 89.5 c 128,-1,64
 754 109 754 109 768 146 c 1,65,-1
 865 146 l 1,66,67
 842 74 842 74 786 32 c 128,-1,68
 730 -10 730 -10 655 -10 c 0,32,33
EndSplineSet
Validated: 5
EndChar

StartChar: p
Encoding: 112 112 224
Width: 594
Flags: W
LayerCount: 2
Fore
SplineSet
334 -9 m 0,0,1
 265 -9 265 -9 219.5 25 c 128,-1,2
 174 59 174 59 160 120 c 1,3,-1
 173 122 l 1,4,-1
 173 -205 l 1,5,-1
 71 -205 l 1,6,-1
 71 510 l 1,7,-1
 169 510 l 1,8,-1
 169 395 l 1,9,-1
 159 398 l 1,10,11
 174 455 174 455 224 487.5 c 128,-1,12
 274 520 274 520 342 520 c 0,13,14
 408 520 408 520 456.5 487.5 c 128,-1,15
 505 455 505 455 531.5 396 c 128,-1,16
 558 337 558 337 558 258 c 0,17,18
 558 177 558 177 530 117 c 128,-1,19
 502 57 502 57 452 24 c 128,-1,20
 402 -9 402 -9 334 -9 c 0,0,1
312 76 m 256,21,22
 378 76 378 76 415.5 123.5 c 128,-1,23
 453 171 453 171 453 257 c 0,24,25
 453 341 453 341 415.5 387.5 c 128,-1,26
 378 434 378 434 312 434 c 256,27,28
 246 434 246 434 208 387 c 128,-1,29
 170 340 170 340 170 254 c 0,30,31
 170 170 170 170 208 123 c 128,-1,32
 246 76 246 76 312 76 c 256,21,22
EndSplineSet
Validated: 5
EndChar

StartChar: thorn
Encoding: 254 254 225
Width: 594
Flags: W
LayerCount: 2
Fore
SplineSet
334 -9 m 0,0,1
 265 -9 265 -9 219.5 25 c 128,-1,2
 174 59 174 59 160 120 c 1,3,-1
 173 122 l 1,4,-1
 173 -205 l 1,5,-1
 71 -205 l 1,6,-1
 71 720 l 1,7,-1
 173 720 l 1,8,-1
 173 395 l 1,9,-1
 159 398 l 1,10,11
 174 455 174 455 224 487.5 c 128,-1,12
 274 520 274 520 342 520 c 0,13,14
 408 520 408 520 456.5 487.5 c 128,-1,15
 505 455 505 455 531.5 396 c 128,-1,16
 558 337 558 337 558 258 c 0,17,18
 558 177 558 177 530 117 c 128,-1,19
 502 57 502 57 452 24 c 128,-1,20
 402 -9 402 -9 334 -9 c 0,0,1
312 76 m 0,21,22
 379 76 379 76 416 123.5 c 128,-1,23
 453 171 453 171 453 257 c 0,24,25
 453 341 453 341 415.5 387.5 c 128,-1,26
 378 434 378 434 312 434 c 0,27,28
 245 434 245 434 207.5 387 c 128,-1,29
 170 340 170 340 170 254 c 0,30,31
 170 170 170 170 208 123 c 128,-1,32
 246 76 246 76 312 76 c 0,21,22
EndSplineSet
Validated: 5
EndChar

StartChar: q
Encoding: 113 113 226
Width: 594
Flags: W
LayerCount: 2
Fore
SplineSet
421 -205 m 1,0,-1
 421 115 l 1,1,-1
 435 112 l 1,2,3
 419 56 419 56 371 23 c 128,-1,4
 323 -10 323 -10 256 -10 c 256,5,6
 189 -10 189 -10 139.5 22.5 c 128,-1,7
 90 55 90 55 63 114 c 128,-1,8
 36 173 36 173 36 252 c 0,9,10
 36 333 36 333 63.5 393 c 128,-1,11
 91 453 91 453 141.5 486 c 128,-1,12
 192 519 192 519 260 519 c 0,13,14
 329 519 329 519 375 485 c 128,-1,15
 421 451 421 451 435 390 c 1,16,-1
 425 388 l 1,17,-1
 425 510 l 1,18,-1
 523 510 l 1,19,-1
 523 -205 l 1,20,-1
 421 -205 l 1,0,-1
282 76 m 0,21,22
 349 76 349 76 386.5 123 c 128,-1,23
 424 170 424 170 424 256 c 0,24,25
 424 340 424 340 386 387 c 128,-1,26
 348 434 348 434 282 434 c 0,27,28
 215 434 215 434 178 386.5 c 128,-1,29
 141 339 141 339 141 253 c 0,30,31
 141 169 141 169 178.5 122.5 c 128,-1,32
 216 76 216 76 282 76 c 0,21,22
EndSplineSet
Validated: 5
EndChar

StartChar: r
Encoding: 114 114 227
Width: 371
GlyphClass: 2
Flags: W
AnchorPoint: "Anchor-2" 121 0 basechar 0
AnchorPoint: "Anchor-0" 209 510 basechar 0
LayerCount: 2
Fore
SplineSet
71 0 m 1,0,-1
 71 510 l 1,1,-1
 169 510 l 1,2,-1
 169 385 l 1,3,-1
 173 385 l 1,4,-1
 173 0 l 1,5,-1
 71 0 l 1,0,-1
173 272 m 1,6,-1
 160 388 l 1,7,8
 178 453 178 453 220.5 486.5 c 128,-1,9
 263 520 263 520 321 520 c 0,10,11
 342 520 342 520 351 516 c 1,12,-1
 351 419 l 1,13,14
 346 421 346 421 337.5 421.5 c 128,-1,15
 329 422 329 422 317 422 c 0,16,17
 246 422 246 422 209.5 384.5 c 128,-1,18
 173 347 173 347 173 272 c 1,6,-1
EndSplineSet
Validated: 5
EndChar

StartChar: s
Encoding: 115 115 231
Width: 465
GlyphClass: 2
Flags: W
AnchorPoint: "Anchor-2" 245 0 basechar 0
AnchorPoint: "Anchor-0" 235 510 basechar 0
LayerCount: 2
Fore
SplineSet
247 -10 m 0,0,1
 151 -10 151 -10 94.5 34 c 128,-1,2
 38 78 38 78 31 157 c 1,3,-1
 124 157 l 1,4,5
 130 113 130 113 162 90 c 128,-1,6
 194 67 194 67 249 67 c 0,7,8
 297 67 297 67 322.5 84.5 c 128,-1,9
 348 102 348 102 348 134 c 0,10,11
 348 157 348 157 333 174 c 128,-1,12
 318 191 318 191 275 204 c 2,13,-1
 196 226 l 2,14,15
 123 245 123 245 87.5 282.5 c 128,-1,16
 52 320 52 320 52 374 c 0,17,18
 52 442 52 442 102 481 c 128,-1,19
 152 520 152 520 238 520 c 256,20,21
 324 520 324 520 376 480 c 128,-1,22
 428 440 428 440 434 369 c 1,23,-1
 341 369 l 1,24,25
 335 405 335 405 308 424 c 128,-1,26
 281 443 281 443 236 443 c 0,27,28
 192 443 192 443 169 427 c 128,-1,29
 146 411 146 411 146 382 c 0,30,31
 146 359 146 359 163.5 342.5 c 128,-1,32
 181 326 181 326 222 313 c 2,33,-1
 303 290 l 2,34,35
 371 271 371 271 406.5 231 c 128,-1,36
 442 191 442 191 442 136 c 0,37,38
 442 67 442 67 390.5 28.5 c 128,-1,39
 339 -10 339 -10 247 -10 c 0,0,1
EndSplineSet
Validated: 1
EndChar

StartChar: germandbls
Encoding: 223 223 236
Width: 602
Flags: W
LayerCount: 2
Fore
SplineSet
322 -9 m 0,0,1
 299 -9 299 -9 280 -6.5 c 128,-1,2
 261 -4 261 -4 249 1 c 1,3,-1
 249 83 l 1,4,5
 263 79 263 79 278 76.5 c 128,-1,6
 293 74 293 74 311 74 c 0,7,8
 391 74 391 74 426.5 108 c 128,-1,9
 462 142 462 142 462 202 c 256,10,11
 462 262 462 262 423 299 c 128,-1,12
 384 336 384 336 317 336 c 2,13,-1
 264 336 l 1,14,-1
 264 420 l 1,15,-1
 311 420 l 2,16,17
 343 420 343 420 369 433.5 c 128,-1,18
 395 447 395 447 410 472 c 128,-1,19
 425 497 425 497 425 531 c 0,20,21
 425 585 425 585 392.5 617 c 128,-1,22
 360 649 360 649 303 649 c 0,23,24
 244 649 244 649 208.5 611.5 c 128,-1,25
 173 574 173 574 173 498 c 2,26,-1
 173 0 l 1,27,-1
 71 0 l 1,28,-1
 71 499 l 2,29,30
 71 606 71 606 132.5 668 c 128,-1,31
 194 730 194 730 303 730 c 0,32,33
 372 730 372 730 423 706.5 c 128,-1,34
 474 683 474 683 502 640 c 128,-1,35
 530 597 530 597 530 540 c 0,36,37
 530 489 530 489 506.5 450.5 c 128,-1,38
 483 412 483 412 443 391 c 128,-1,39
 403 370 403 370 353 370 c 1,40,-1
 350 391 l 1,41,42
 418 391 418 391 466.5 366 c 128,-1,43
 515 341 515 341 541 297 c 128,-1,44
 567 253 567 253 567 195 c 0,45,46
 567 134 567 134 537 88 c 128,-1,47
 507 42 507 42 452.5 16.5 c 128,-1,48
 398 -9 398 -9 322 -9 c 0,0,1
EndSplineSet
Validated: 5
EndChar

StartChar: t
Encoding: 116 116 237
Width: 378
GlyphClass: 2
Flags: W
AnchorPoint: "Anchor-2" 246 0 basechar 0
AnchorPoint: "Anchor-1" 302 781 basechar 0
AnchorPoint: "Anchor-0" 167 510 basechar 0
LayerCount: 2
Fore
SplineSet
280 -10 m 0,0,1
 194 -10 194 -10 153.5 30.5 c 128,-1,2
 113 71 113 71 113 149 c 2,3,-1
 113 624 l 5,4,-1
 215 663 l 1,5,-1
 215 149 l 2,6,7
 215 110 215 110 235 92 c 128,-1,8
 255 74 255 74 300 74 c 0,9,10
 317 74 317 74 330.5 76.5 c 128,-1,11
 344 79 344 79 354 83 c 1,12,-1
 354 1 l 1,13,14
 343 -4 343 -4 323.5 -7 c 128,-1,15
 304 -10 304 -10 280 -10 c 0,0,1
15 428 m 1,16,-1
 15 510 l 1,17,-1
 354 510 l 1,18,-1
 354 428 l 1,19,-1
 15 428 l 1,16,-1
EndSplineSet
Validated: 5
EndChar

StartChar: u
Encoding: 117 117 240
Width: 577
GlyphClass: 2
Flags: W
AnchorPoint: "Anchor-3" 506 0 basechar 0
AnchorPoint: "Anchor-2" 289 0 basechar 0
AnchorPoint: "Anchor-1" 557 510 basechar 0
AnchorPoint: "Anchor-0" 289 510 basechar 0
LayerCount: 2
Fore
SplineSet
230 -10 m 0,0,1
 181 -10 181 -10 143.5 10.5 c 128,-1,2
 106 31 106 31 86 68 c 128,-1,3
 66 105 66 105 66 153 c 2,4,-1
 66 510 l 1,5,-1
 167 510 l 1,6,-1
 167 176 l 2,7,8
 167 126 167 126 192 101 c 128,-1,9
 217 76 217 76 262 76 c 0,10,11
 303 76 303 76 335 95 c 128,-1,12
 367 114 367 114 385.5 148.5 c 128,-1,13
 404 183 404 183 404 227 c 1,14,-1
 417 110 l 1,15,16
 392 55 392 55 343 22.5 c 128,-1,17
 294 -10 294 -10 230 -10 c 0,0,1
408 0 m 1,18,-1
 408 117 l 1,19,-1
 404 117 l 1,20,-1
 404 510 l 1,21,-1
 506 510 l 1,22,-1
 506 0 l 1,23,-1
 408 0 l 1,18,-1
EndSplineSet
Validated: 5
EndChar

StartChar: v
Encoding: 118 118 250
Width: 514
Flags: W
LayerCount: 2
Fore
SplineSet
212 0 m 1,0,-1
 12 510 l 1,1,-1
 121 510 l 1,2,-1
 282 51 l 1,3,-1
 236 51 l 1,4,-1
 396 510 l 1,5,-1
 501 510 l 1,6,-1
 302 0 l 1,7,-1
 212 0 l 1,0,-1
EndSplineSet
Validated: 5
EndChar

StartChar: w
Encoding: 119 119 251
Width: 764
GlyphClass: 2
Flags: W
AnchorPoint: "Anchor-2" 382 0 basechar 0
AnchorPoint: "Anchor-0" 382 510 basechar 0
LayerCount: 2
Fore
SplineSet
174 0 m 1,0,-1
 23 510 l 1,1,-1
 127 510 l 1,2,-1
 230 101 l 1,3,-1
 216 101 l 1,4,-1
 340 510 l 1,5,-1
 428 510 l 1,6,-1
 553 101 l 1,7,-1
 539 101 l 1,8,-1
 640 510 l 1,9,-1
 741 510 l 1,10,-1
 589 0 l 1,11,-1
 499 0 l 1,12,-1
 375 402 l 1,13,-1
 390 402 l 1,14,-1
 264 0 l 1,15,-1
 174 0 l 1,0,-1
EndSplineSet
Validated: 5
EndChar

StartChar: x
Encoding: 120 120 256
Width: 548
Flags: W
LayerCount: 2
Fore
SplineSet
404 0 m 1,0,-1
 248 232 l 1,1,-1
 49 510 l 1,2,-1
 164 510 l 1,3,-1
 307 297 l 1,4,-1
 520 0 l 1,5,-1
 404 0 l 1,0,-1
256 297 m 1,6,-1
 401 510 l 1,7,-1
 513 510 l 1,8,-1
 306 225 l 1,9,-1
 256 297 l 1,6,-1
296 222 m 1,10,-1
 140 0 l 1,11,-1
 28 0 l 1,12,-1
 247 295 l 1,13,-1
 296 222 l 1,10,-1
EndSplineSet
Validated: 5
EndChar

StartChar: y
Encoding: 65573 -1 257
Width: 514
GlyphClass: 2
Flags: W
AnchorPoint: "Anchor-2" 257 0 basechar 0
AnchorPoint: "Anchor-0" 258 510 basechar 0
LayerCount: 2
Fore
SplineSet
109 -205 m 1,0,-1
 227 75 l 1,1,-1
 247 107 l 1,2,-1
 396 510 l 1,3,-1
 501 510 l 1,4,-1
 214 -205 l 1,5,-1
 109 -205 l 1,0,-1
222 0 m 1,6,-1
 12 510 l 1,7,-1
 123 510 l 1,8,-1
 299 53 l 1,9,-1
 222 0 l 1,6,-1
EndSplineSet
Validated: 5
Substitution2: "'calt' Contextual Alternates in Latin lookup 24 subtable" y.ss03
Substitution2: "'aalt' Access All Alternates in Latin lookup 0 subtable" y.ss03
EndChar

StartChar: z
Encoding: 122 122 262
Width: 487
GlyphClass: 2
Flags: W
AnchorPoint: "Anchor-2" 244 0 basechar 0
AnchorPoint: "Anchor-0" 244 510 basechar 0
LayerCount: 2
Fore
SplineSet
48 0 m 1,0,-1
 48 72 l 1,1,-1
 338 468 l 1,2,-1
 366 428 l 1,3,-1
 58 428 l 1,4,-1
 58 510 l 1,5,-1
 437 510 l 1,6,-1
 437 439 l 1,7,-1
 149 44 l 1,8,-1
 122 82 l 1,9,-1
 445 82 l 1,10,-1
 445 0 l 1,11,-1
 48 0 l 1,0,-1
EndSplineSet
Validated: 5
EndChar

StartChar: a.ss02
Encoding: 65601 -1 289
Width: 594
GlyphClass: 2
Flags: W
AnchorPoint: "Anchor-3" 523 0 basechar 0
AnchorPoint: "Anchor-2" 297 0 basechar 0
AnchorPoint: "Anchor-0" 297 510 basechar 0
LayerCount: 2
Fore
SplineSet
256 -10 m 256,0,1
 189 -10 189 -10 139.5 22.5 c 128,-1,2
 90 55 90 55 63 114 c 128,-1,3
 36 173 36 173 36 252 c 0,4,5
 36 333 36 333 63.5 393 c 128,-1,6
 91 453 91 453 141.5 486 c 128,-1,7
 192 519 192 519 260 519 c 0,8,9
 329 519 329 519 375 485 c 128,-1,10
 421 451 421 451 435 390 c 1,11,-1
 425 388 l 1,12,-1
 425 510 l 1,13,-1
 523 510 l 1,14,-1
 523 0 l 1,15,-1
 425 0 l 1,16,-1
 425 115 l 1,17,-1
 435 112 l 1,18,19
 419 56 419 56 371 23 c 128,-1,20
 323 -10 323 -10 256 -10 c 256,0,1
282 76 m 0,21,22
 349 76 349 76 386.5 123 c 128,-1,23
 424 170 424 170 424 256 c 0,24,25
 424 340 424 340 386 387 c 128,-1,26
 348 434 348 434 282 434 c 0,27,28
 215 434 215 434 178 386.5 c 128,-1,29
 141 339 141 339 141 253 c 0,30,31
 141 169 141 169 178.5 122.5 c 128,-1,32
 216 76 216 76 282 76 c 0,21,22
EndSplineSet
Validated: 5
EndChar

StartChar: y.ss03
Encoding: 121 121 300
Width: 517
GlyphClass: 2
Flags: W
AnchorPoint: "Anchor-2" 257 0 basechar 0
AnchorPoint: "Anchor-0" 260 510 basechar 0
LayerCount: 2
Fore
SplineSet
118 -215 m 0,0,1
 102 -215 102 -215 88 -212.5 c 128,-1,2
 74 -210 74 -210 64 -207 c 1,3,-1
 64 -125 l 1,4,5
 72 -128 72 -128 83 -129.5 c 128,-1,6
 94 -131 94 -131 108 -131 c 0,7,8
 141 -131 141 -131 161.5 -113.5 c 128,-1,9
 182 -96 182 -96 197 -55 c 2,10,-1
 239 66 l 1,11,-1
 259 100 l 1,12,-1
 402 510 l 1,13,-1
 505 510 l 1,14,-1
 276 -91 l 2,15,16
 260 -134 260 -134 237.5 -161.5 c 128,-1,17
 215 -189 215 -189 186 -202 c 128,-1,18
 157 -215 157 -215 118 -215 c 0,0,1
226 0 m 1,19,-1
 15 510 l 1,20,-1
 123 510 l 1,21,-1
 298 57 l 1,22,-1
 226 0 l 1,19,-1
EndSplineSet
Validated: 5
EndChar

StartChar: k.ss04
Encoding: 65612 -1 305
Width: 530
GlyphClass: 2
Flags: W
AnchorPoint: "Anchor-2" 279 0 basechar 0
AnchorPoint: "Anchor-0" 265 740 basechar 0
LayerCount: 2
Fore
SplineSet
71 0 m 1,0,-1
 71 720 l 1,1,-1
 173 720 l 1,2,-1
 173 0 l 1,3,-1
 71 0 l 1,0,-1
142 235 m 1,4,-1
 385 510 l 1,5,-1
 507 510 l 1,6,-1
 297 277 l 1,7,-1
 288 275 l 1,8,-1
 156 132 l 1,9,-1
 142 235 l 1,4,-1
315 309 m 1,10,-1
 520 0 l 1,11,-1
 405 0 l 1,12,-1
 227 275 l 1,13,-1
 315 309 l 1,10,-1
EndSplineSet
Validated: 5
EndChar

StartChar: f_f_i
Encoding: 65617 -1 310
Width: 909
GlyphClass: 3
LigCaretCntFixed: 1
Flags: W
LayerCount: 2
Fore
SplineSet
110 0 m 1,0,-1
 110 574 l 2,1,2
 110 649 110 649 152 689.5 c 128,-1,3
 194 730 194 730 279 730 c 0,4,5
 299 730 299 730 311.5 728 c 128,-1,6
 324 726 324 726 334 723 c 1,7,-1
 334 640 l 1,8,9
 327 642 327 642 316 644 c 128,-1,10
 305 646 305 646 291 646 c 0,11,12
 250 646 250 646 230.5 625.5 c 128,-1,13
 211 605 211 605 211 567 c 2,14,-1
 211 0 l 1,15,-1
 110 0 l 1,0,-1
423 0 m 1,16,-1
 423 574 l 2,17,18
 423 649 423 649 465.5 689.5 c 128,-1,19
 508 730 508 730 593 730 c 0,20,21
 613 730 613 730 625.5 728 c 128,-1,22
 638 726 638 726 648 723 c 1,23,-1
 648 640 l 1,24,25
 641 642 641 642 630 644 c 128,-1,26
 619 646 619 646 605 646 c 0,27,28
 564 646 564 646 544.5 625.5 c 128,-1,29
 525 605 525 605 525 567 c 2,30,-1
 525 0 l 1,31,-1
 423 0 l 1,16,-1
737 0 m 1,32,-1
 737 510 l 1,33,-1
 839 510 l 1,34,-1
 839 0 l 1,35,-1
 737 0 l 1,32,-1
15 428 m 1,36,-1
 15 510 l 1,37,-1
 778 510 l 1,38,-1
 778 428 l 1,39,-1
 15 428 l 1,36,-1
733 607 m 1,40,-1
 733 720 l 1,41,-1
 844 720 l 1,42,-1
 844 607 l 1,43,-1
 733 607 l 1,40,-1
EndSplineSet
Validated: 5
Substitution2: "'ss01' Style Set 1 in Latin lookup 22 subtable" f_f_i.ss01
Ligature2: "'liga' Standard Ligatures in Latin lookup 21 subtable" f f i
Substitution2: "'aalt' Access All Alternates in Latin lookup 0 subtable" f_f_i.ss01
LCarets2: 2 303 606
EndChar

StartChar: f_f_l
Encoding: 65618 -1 311
Width: 910
GlyphClass: 3
LigCaretCntFixed: 1
Flags: W
LayerCount: 2
Fore
SplineSet
423 0 m 1,0,-1
 423 564 l 2,1,2
 423 639 423 639 466 679.5 c 128,-1,3
 509 720 509 720 596 720 c 2,4,-1
 784 720 l 1,5,-1
 784 636 l 1,6,-1
 606 636 l 2,7,8
 564 636 564 636 544.5 615.5 c 128,-1,9
 525 595 525 595 525 557 c 2,10,-1
 525 0 l 1,11,-1
 423 0 l 1,0,-1
110 0 m 1,12,-1
 110 564 l 2,13,14
 110 639 110 639 152 679.5 c 128,-1,15
 194 720 194 720 279 720 c 0,16,17
 299 720 299 720 311.5 718 c 128,-1,18
 324 716 324 716 334 713 c 1,19,-1
 334 630 l 1,20,21
 328 632 328 632 316.5 634 c 128,-1,22
 305 636 305 636 292 636 c 0,23,24
 250 636 250 636 230.5 615.5 c 128,-1,25
 211 595 211 595 211 557 c 2,26,-1
 211 0 l 1,27,-1
 110 0 l 1,12,-1
15 424 m 1,28,-1
 15 510 l 1,29,-1
 630 510 l 1,30,-1
 630 424 l 1,31,-1
 15 424 l 1,28,-1
737 0 m 1,32,-1
 737 720 l 1,33,-1
 839 720 l 1,34,-1
 839 0 l 1,35,-1
 737 0 l 1,32,-1
EndSplineSet
Validated: 5
Ligature2: "'liga' Standard Ligatures in Latin lookup 21 subtable" f f l
LCarets2: 2 304 607
EndChar

StartChar: f_i
Encoding: 65619 -1 312
Width: 584
GlyphClass: 3
LigCaretCntFixed: 1
Flags: W
AnchorPoint: "Anchor-5" 146 0 baselig 0
AnchorPoint: "Anchor-4" 146 740 baselig 0
AnchorPoint: "Anchor-5" 438 0 baselig 1
AnchorPoint: "Anchor-4" 438 740 baselig 1
LayerCount: 2
Fore
SplineSet
110 0 m 1,0,-1
 110 574 l 2,1,2
 110 649 110 649 152 689.5 c 128,-1,3
 194 730 194 730 279 730 c 0,4,5
 299 730 299 730 311.5 728 c 128,-1,6
 324 726 324 726 334 723 c 1,7,-1
 334 640 l 1,8,9
 327 642 327 642 316 644 c 128,-1,10
 305 646 305 646 291 646 c 0,11,12
 250 646 250 646 230.5 625.5 c 128,-1,13
 211 605 211 605 211 567 c 2,14,-1
 211 0 l 1,15,-1
 110 0 l 1,0,-1
423 0 m 1,16,-1
 423 510 l 1,17,-1
 525 510 l 1,18,-1
 525 0 l 1,19,-1
 423 0 l 1,16,-1
15 424 m 1,20,-1
 15 510 l 1,21,-1
 464 510 l 1,22,-1
 464 424 l 1,23,-1
 15 424 l 1,20,-1
419 607 m 1,24,-1
 419 720 l 1,25,-1
 530 720 l 1,26,-1
 530 607 l 1,27,-1
 419 607 l 1,24,-1
EndSplineSet
Validated: 5
Substitution2: "'ss01' Style Set 1 in Latin lookup 22 subtable" f_i.ss01
Ligature2: "'liga' Standard Ligatures in Latin lookup 21 subtable" f i
Substitution2: "'aalt' Access All Alternates in Latin lookup 0 subtable" f_i.ss01
LCarets2: 1 293
EndChar

StartChar: f_l
Encoding: 65620 -1 313
Width: 596
GlyphClass: 3
LigCaretCntFixed: 1
Flags: W
AnchorPoint: "Anchor-5" 149 0 baselig 0
AnchorPoint: "Anchor-4" 149 740 baselig 0
AnchorPoint: "Anchor-5" 447 0 baselig 1
AnchorPoint: "Anchor-4" 447 740 baselig 1
LayerCount: 2
Fore
SplineSet
110 0 m 1,0,-1
 110 564 l 2,1,2
 110 639 110 639 152.5 679.5 c 128,-1,3
 195 720 195 720 282 720 c 2,4,-1
 470 720 l 1,5,-1
 470 636 l 1,6,-1
 292 636 l 2,7,8
 250 636 250 636 230.5 615 c 128,-1,9
 211 594 211 594 211 557 c 2,10,-1
 211 0 l 1,11,-1
 110 0 l 1,0,-1
15 424 m 1,12,-1
 15 510 l 1,13,-1
 316 510 l 1,14,-1
 316 424 l 1,15,-1
 15 424 l 1,12,-1
423 0 m 1,16,-1
 423 720 l 1,17,-1
 525 720 l 1,18,-1
 525 0 l 1,19,-1
 423 0 l 1,16,-1
EndSplineSet
Validated: 5
Ligature2: "'liga' Standard Ligatures in Latin lookup 21 subtable" f l
LCarets2: 1 298
EndChar

StartChar: w_w_w.liga
Encoding: 65621 -1 314
Width: 2056
GlyphClass: 3
LigCaretCntFixed: 1
Flags: W
AnchorPoint: "Anchor-5" 342 0 baselig 0
AnchorPoint: "Anchor-4" 342 510 baselig 0
AnchorPoint: "Anchor-5" 1028 0 baselig 1
AnchorPoint: "Anchor-4" 1028 510 baselig 1
AnchorPoint: "Anchor-5" 1713 0 baselig 2
AnchorPoint: "Anchor-4" 1713 510 baselig 2
LayerCount: 2
Fore
SplineSet
174 0 m 1,0,-1
 23 510 l 1,1,-1
 127 510 l 1,2,-1
 230 101 l 1,3,-1
 216 101 l 1,4,-1
 340 510 l 1,5,-1
 428 510 l 1,6,-1
 553 101 l 1,7,-1
 539 101 l 1,8,-1
 662 510 l 1,9,-1
 750 510 l 1,10,-1
 876 101 l 1,11,-1
 861 101 l 1,12,-1
 985 510 l 1,13,-1
 1073 510 l 1,14,-1
 1199 101 l 1,15,-1
 1184 101 l 1,16,-1
 1309 510 l 1,17,-1
 1397 510 l 1,18,-1
 1522 101 l 1,19,-1
 1507 101 l 1,20,-1
 1632 510 l 1,21,-1
 1720 510 l 1,22,-1
 1845 101 l 1,23,-1
 1831 101 l 1,24,-1
 1932 510 l 1,25,-1
 2033 510 l 1,26,-1
 1881 0 l 1,27,-1
 1791 0 l 1,28,-1
 1667 402 l 1,29,-1
 1682 402 l 1,30,-1
 1556 0 l 1,31,-1
 1468 0 l 1,32,-1
 1344 402 l 1,33,-1
 1359 402 l 1,34,-1
 1233 0 l 1,35,-1
 1145 0 l 1,36,-1
 1021 402 l 1,37,-1
 1036 402 l 1,38,-1
 910 0 l 1,39,-1
 822 0 l 1,40,-1
 697 402 l 1,41,-1
 713 402 l 1,42,-1
 587 0 l 1,43,-1
 499 0 l 1,44,-1
 375 402 l 1,45,-1
 390 402 l 1,46,-1
 264 0 l 1,47,-1
 174 0 l 1,0,-1
EndSplineSet
Validated: 5
Ligature2: "'liga' Standard Ligatures in Latin lookup 21 subtable" w w w
LCarets2: 2 685 1370
EndChar

StartChar: f_f_i.ss01
Encoding: 65622 -1 315
Width: 908
GlyphClass: 3
LigCaretCntFixed: 1
Flags: W
AnchorPoint: "Anchor-5" 152 0 baselig 0
AnchorPoint: "Anchor-4" 152 740 baselig 0
AnchorPoint: "Anchor-5" 454 0 baselig 1
AnchorPoint: "Anchor-4" 454 740 baselig 1
AnchorPoint: "Anchor-5" 757 0 baselig 2
AnchorPoint: "Anchor-4" 757 740 baselig 2
LayerCount: 2
Fore
SplineSet
423 0 m 1,0,-1
 423 574 l 2,1,2
 423 649 423 649 465.5 689.5 c 128,-1,3
 508 730 508 730 593 730 c 0,4,5
 613 730 613 730 625.5 728 c 128,-1,6
 638 726 638 726 648 723 c 1,7,-1
 648 640 l 1,8,9
 641 642 641 642 630 644 c 128,-1,10
 619 646 619 646 605 646 c 0,11,12
 564 646 564 646 544.5 625.5 c 128,-1,13
 525 605 525 605 525 567 c 2,14,-1
 525 0 l 1,15,-1
 423 0 l 1,0,-1
110 0 m 1,16,-1
 110 574 l 2,17,18
 110 649 110 649 152 689.5 c 128,-1,19
 194 730 194 730 279 730 c 0,20,21
 299 730 299 730 311.5 728 c 128,-1,22
 324 726 324 726 334 723 c 1,23,-1
 334 640 l 1,24,25
 327 642 327 642 316 644 c 128,-1,26
 305 646 305 646 291 646 c 0,27,28
 250 646 250 646 230.5 625.5 c 128,-1,29
 211 605 211 605 211 567 c 2,30,-1
 211 0 l 1,31,-1
 110 0 l 1,16,-1
15 424 m 1,32,-1
 15 510 l 1,33,-1
 778 510 l 1,34,-1
 778 424 l 1,35,-1
 15 424 l 1,32,-1
737 0 m 1,36,-1
 737 510 l 1,37,-1
 839 510 l 1,38,-1
 839 0 l 1,39,-1
 737 0 l 1,36,-1
790 592 m 0,40,41
 763 592 763 592 743.5 611 c 128,-1,42
 724 630 724 630 724 658 c 0,43,44
 724 687 724 687 743.5 705 c 128,-1,45
 763 723 763 723 790 723 c 0,46,47
 816 723 816 723 834.5 705 c 128,-1,48
 853 687 853 687 853 658 c 0,49,50
 853 630 853 630 834.5 611 c 128,-1,51
 816 592 816 592 790 592 c 0,40,41
EndSplineSet
Validated: 5
LCarets2: 2 303 605
EndChar

StartChar: f_i.ss01
Encoding: 65623 -1 316
Width: 605
GlyphClass: 3
LigCaretCntFixed: 1
Flags: W
AnchorPoint: "Anchor-5" 151 0 baselig 0
AnchorPoint: "Anchor-4" 151 740 baselig 0
AnchorPoint: "Anchor-5" 454 0 baselig 1
AnchorPoint: "Anchor-4" 454 740 baselig 1
LayerCount: 2
Fore
SplineSet
110 0 m 1,0,-1
 110 574 l 2,1,2
 110 649 110 649 152 689.5 c 128,-1,3
 194 730 194 730 279 730 c 0,4,5
 299 730 299 730 311.5 728 c 128,-1,6
 324 726 324 726 334 723 c 1,7,-1
 334 640 l 1,8,9
 327 642 327 642 316 644 c 128,-1,10
 305 646 305 646 291 646 c 0,11,12
 250 646 250 646 230.5 625.5 c 128,-1,13
 211 605 211 605 211 567 c 2,14,-1
 211 0 l 1,15,-1
 110 0 l 1,0,-1
423 0 m 1,16,-1
 423 510 l 1,17,-1
 525 510 l 1,18,-1
 525 0 l 1,19,-1
 423 0 l 1,16,-1
476 592 m 0,20,21
 449 592 449 592 429.5 611.5 c 128,-1,22
 410 631 410 631 410 658 c 0,23,24
 410 688 410 688 429.5 706 c 128,-1,25
 449 724 449 724 476 724 c 0,26,27
 502 724 502 724 520.5 706 c 128,-1,28
 539 688 539 688 539 658 c 0,29,30
 539 631 539 631 520.5 611.5 c 128,-1,31
 502 592 502 592 476 592 c 0,20,21
15 424 m 1,32,-1
 15 510 l 1,33,-1
 464 510 l 1,34,-1
 464 424 l 1,35,-1
 15 424 l 1,32,-1
EndSplineSet
Validated: 5
LCarets2: 1 302
EndChar

StartChar: ordfeminine
Encoding: 170 170 317
Width: 362
Flags: W
LayerCount: 2
Fore
SplineSet
234 418 m 1,0,1
 231 430 231 430 229.5 444.5 c 128,-1,2
 228 459 228 459 228 478 c 1,3,-1
 226 478 l 1,4,-1
 226 623 l 2,5,6
 226 646 226 646 214 658 c 128,-1,7
 202 670 202 670 177 670 c 0,8,9
 154 670 154 670 140 660 c 128,-1,10
 126 650 126 650 123 634 c 1,11,-1
 51 634 l 1,12,13
 55 677 55 677 89 703.5 c 128,-1,14
 123 730 123 730 179 730 c 0,15,16
 239 730 239 730 269.5 702 c 128,-1,17
 300 674 300 674 300 621 c 2,18,-1
 300 478 l 2,19,20
 300 461 300 461 302 446.5 c 128,-1,21
 304 432 304 432 308 418 c 1,22,-1
 234 418 l 1,0,1
135 412 m 0,23,24
 93 412 93 412 67.5 435 c 128,-1,25
 42 458 42 458 42 496 c 0,26,27
 42 536 42 536 68 561.5 c 128,-1,28
 94 587 94 587 147 597 c 2,29,-1
 238 615 l 1,30,-1
 238 563 l 1,31,-1
 161 547 l 2,32,33
 140 543 140 543 128.5 534 c 128,-1,34
 117 525 117 525 117 507 c 0,35,36
 117 490 117 490 128 481 c 128,-1,37
 139 472 139 472 159 472 c 0,38,39
 187 472 187 472 206.5 488 c 128,-1,40
 226 504 226 504 226 526 c 1,41,-1
 233 478 l 1,42,43
 222 444 222 444 195 428 c 128,-1,44
 168 412 168 412 135 412 c 0,23,24
EndSplineSet
Validated: 5
EndChar

StartChar: ordmasculine
Encoding: 186 186 318
Width: 400
Flags: W
LayerCount: 2
Fore
SplineSet
200 412 m 0,0,1
 153 412 153 412 117.5 432.5 c 128,-1,2
 82 453 82 453 62.5 489 c 128,-1,3
 43 525 43 525 43 572 c 0,4,5
 43 643 43 643 86 686.5 c 128,-1,6
 129 730 129 730 200 730 c 0,7,8
 272 730 272 730 315 686.5 c 128,-1,9
 358 643 358 643 358 572 c 0,10,11
 358 502 358 502 314.5 457 c 128,-1,12
 271 412 271 412 200 412 c 0,0,1
200 476 m 0,13,14
 236 476 236 476 258 502.5 c 128,-1,15
 280 529 280 529 280 573 c 0,16,17
 280 616 280 616 258 641 c 128,-1,18
 236 666 236 666 200 666 c 0,19,20
 165 666 165 666 142.5 641 c 128,-1,21
 120 616 120 616 120 573 c 0,22,23
 120 529 120 529 142.5 502.5 c 128,-1,24
 165 476 165 476 200 476 c 0,13,14
EndSplineSet
Validated: 1
EndChar

StartChar: zero
Encoding: 48 48 319
Width: 646
Flags: W
LayerCount: 2
Fore
SplineSet
323 -10 m 0,0,1
 240 -10 240 -10 177 36.5 c 128,-1,2
 114 83 114 83 78.5 167.5 c 128,-1,3
 43 252 43 252 43 363 c 256,4,5
 43 474 43 474 78 556.5 c 128,-1,6
 113 639 113 639 176.5 684.5 c 128,-1,7
 240 730 240 730 323 730 c 0,8,9
 407 730 407 730 470 684.5 c 128,-1,10
 533 639 533 639 568.5 556.5 c 128,-1,11
 604 474 604 474 604 363 c 0,12,13
 604 251 604 251 568.5 167 c 128,-1,14
 533 83 533 83 470 36.5 c 128,-1,15
 407 -10 407 -10 323 -10 c 0,0,1
323 79 m 256,16,17
 377 79 377 79 415 114 c 128,-1,18
 453 149 453 149 472.5 212.5 c 128,-1,19
 492 276 492 276 492 364 c 0,20,21
 492 451 492 451 472.5 513 c 128,-1,22
 453 575 453 575 415.5 608 c 128,-1,23
 378 641 378 641 323 641 c 256,24,25
 268 641 268 641 230.5 607.5 c 128,-1,26
 193 574 193 574 173.5 512.5 c 128,-1,27
 154 451 154 451 154 364 c 0,28,29
 154 276 154 276 174 212 c 128,-1,30
 194 148 194 148 231.5 113.5 c 128,-1,31
 269 79 269 79 323 79 c 256,16,17
EndSplineSet
Validated: 1
Substitution2: "'tnum' Tabular Numbers in Latin lookup 19 subtable" zero.tf
Substitution2: "'aalt' Access All Alternates in Latin lookup 0 subtable" zero.tf
EndChar

StartChar: one
Encoding: 49 49 320
Width: 379
Flags: W
LayerCount: 2
Fore
SplineSet
205 0 m 1,0,-1
 205 624 l 1,1,-1
 225 614 l 1,2,3
 22 487 l 1,4,-1
 22 588 l 1,5,-1
 226 720 l 1,6,-1
 307 720 l 1,7,-1
 307 0 l 1,8,-1
 205 0 l 1,0,-1
EndSplineSet
Validated: 5
Substitution2: "'tnum' Tabular Numbers in Latin lookup 19 subtable" one.tf
Substitution2: "'aalt' Access All Alternates in Latin lookup 0 subtable" one.tf
EndChar

StartChar: two
Encoding: 50 50 321
Width: 534
Flags: W
LayerCount: 2
Fore
SplineSet
36 0 m 1,0,-1
 36 85 l 1,1,2
 136 171 136 171 203 236 c 128,-1,3
 270 301 270 301 311 351.5 c 128,-1,4
 352 402 352 402 369.5 444.5 c 128,-1,5
 387 487 387 487 387 527 c 0,6,7
 387 582 387 582 356 613 c 128,-1,8
 325 644 325 644 270 644 c 0,9,10
 213 644 213 644 177.5 609.5 c 128,-1,11
 142 575 142 575 135 512 c 1,12,-1
 29 512 l 1,13,14
 38 611 38 611 103.5 670.5 c 128,-1,15
 169 730 169 730 276 730 c 0,16,17
 378 730 378 730 437.5 675 c 128,-1,18
 497 620 497 620 497 524 c 0,19,20
 497 474 497 474 479 424 c 128,-1,21
 461 374 461 374 419.5 319.5 c 128,-1,22
 378 265 378 265 311 199.5 c 128,-1,23
 244 134 244 134 146 53 c 1,24,-1
 122 86 l 1,25,-1
 510 86 l 1,26,-1
 510 0 l 1,27,-1
 36 0 l 1,0,-1
EndSplineSet
Validated: 5
Substitution2: "'ss10' Style Set 10 in Latin lookup 31 subtable" two.ss10
Substitution2: "'tnum' Tabular Numbers in Latin lookup 19 subtable" two.tf
AlternateSubs2: "'aalt' Access All Alternates in Latin lookup 1 subtable" two.ss10 two.tf
EndChar

StartChar: three
Encoding: 51 51 322
Width: 557
Flags: W
LayerCount: 2
Fore
SplineSet
286 -10 m 0,0,1
 215 -10 215 -10 160 17 c 128,-1,2
 105 44 105 44 72 95.5 c 128,-1,3
 39 147 39 147 33 221 c 1,4,-1
 138 221 l 1,5,6
 147 150 147 150 184.5 113 c 128,-1,7
 222 76 222 76 285 76 c 0,8,9
 343 76 343 76 377 109 c 128,-1,10
 411 142 411 142 411 200 c 0,11,12
 411 260 411 260 377.5 297 c 128,-1,13
 344 334 344 334 280 334 c 2,14,-1
 203 334 l 1,15,-1
 203 418 l 1,16,-1
 277 418 l 2,17,18
 334 418 334 418 365 449.5 c 128,-1,19
 396 481 396 481 396 533 c 256,20,21
 396 585 396 585 366 614.5 c 128,-1,22
 336 644 336 644 281 644 c 0,23,24
 229 644 229 644 192 612 c 128,-1,25
 155 580 155 580 148 518 c 1,26,-1
 42 518 l 1,27,28
 48 583 48 583 79.5 630.5 c 128,-1,29
 111 678 111 678 164 704 c 128,-1,30
 217 730 217 730 285 730 c 0,31,32
 351 730 351 730 401 707 c 128,-1,33
 451 684 451 684 478.5 641.5 c 128,-1,34
 506 599 506 599 506 541 c 0,35,36
 506 490 506 490 483.5 451 c 128,-1,37
 461 412 461 412 423.5 390.5 c 128,-1,38
 386 369 386 369 341 369 c 1,39,-1
 336 390 l 1,40,41
 394 390 394 390 435.5 364.5 c 128,-1,42
 477 339 477 339 500 295.5 c 128,-1,43
 523 252 523 252 523 196 c 0,44,45
 523 134 523 134 492.5 87.5 c 128,-1,46
 462 41 462 41 408.5 15.5 c 128,-1,47
 355 -10 355 -10 286 -10 c 0,0,1
EndSplineSet
Validated: 5
Substitution2: "'tnum' Tabular Numbers in Latin lookup 19 subtable" three.tf
Substitution2: "'aalt' Access All Alternates in Latin lookup 0 subtable" three.tf
EndChar

StartChar: four
Encoding: 52 52 323
Width: 584
Flags: W
LayerCount: 2
Fore
SplineSet
368 0 m 1,0,-1
 368 189 l 1,1,-1
 372 209 l 1,2,-1
 372 616 l 1,3,-1
 408 606 l 1,4,-1
 124 204 l 1,5,-1
 86 241 l 1,6,-1
 559 241 l 1,7,-1
 559 155 l 1,8,-1
 29 155 l 1,9,-1
 29 234 l 1,10,-1
 372 720 l 1,11,-1
 475 720 l 1,12,-1
 475 0 l 1,13,-1
 368 0 l 1,0,-1
EndSplineSet
Validated: 5
Substitution2: "'tnum' Tabular Numbers in Latin lookup 19 subtable" four.tf
Substitution2: "'aalt' Access All Alternates in Latin lookup 0 subtable" four.tf
EndChar

StartChar: five
Encoding: 53 53 324
Width: 560
Flags: W
LayerCount: 2
Fore
SplineSet
283 -10 m 0,0,1
 178 -10 178 -10 114 47.5 c 128,-1,2
 50 105 50 105 37 202 c 1,3,-1
 143 202 l 1,4,5
 153 142 153 142 190.5 109 c 128,-1,6
 228 76 228 76 281 76 c 0,7,8
 337 76 337 76 374.5 113.5 c 128,-1,9
 412 151 412 151 412 232 c 0,10,11
 412 312 412 312 375 352 c 128,-1,12
 338 392 338 392 279 392 c 0,13,14
 238 392 238 392 207.5 374.5 c 128,-1,15
 177 357 177 357 164 329 c 1,16,-1
 72 329 l 1,17,-1
 104 720 l 1,18,-1
 484 720 l 1,19,-1
 484 634 l 1,20,-1
 155 634 l 1,21,-1
 199 659 l 1,22,-1
 179 392 l 1,23,-1
 151 397 l 1,24,25
 170 430 170 430 208 451 c 128,-1,26
 246 472 246 472 301 472 c 0,27,28
 367 472 367 472 417 443 c 128,-1,29
 467 414 467 414 495 360.5 c 128,-1,30
 523 307 523 307 523 232 c 0,31,32
 523 155 523 155 493.5 101 c 128,-1,33
 464 47 464 47 410.5 18.5 c 128,-1,34
 357 -10 357 -10 283 -10 c 0,0,1
EndSplineSet
Validated: 5
Substitution2: "'tnum' Tabular Numbers in Latin lookup 19 subtable" five.tf
Substitution2: "'aalt' Access All Alternates in Latin lookup 0 subtable" five.tf
EndChar

StartChar: six
Encoding: 54 54 325
Width: 587
Flags: W
LayerCount: 2
Fore
SplineSet
308 -10 m 0,0,1
 180 -10 180 -10 111.5 82 c 128,-1,2
 43 174 43 174 43 348 c 0,3,4
 43 469 43 469 75.5 554.5 c 128,-1,5
 108 640 108 640 169.5 685 c 128,-1,6
 231 730 231 730 316 730 c 0,7,8
 410 730 410 730 469.5 676.5 c 128,-1,9
 529 623 529 623 542 529 c 1,10,-1
 435 529 l 1,11,12
 428 585 428 585 396 614.5 c 128,-1,13
 364 644 364 644 314 644 c 0,14,15
 234 644 234 644 193.5 572.5 c 128,-1,16
 153 501 153 501 153 354 c 2,17,-1
 153 293 l 1,18,-1
 129 302 l 1,19,20
 138 348 138 348 166.5 382 c 128,-1,21
 195 416 195 416 238 434.5 c 128,-1,22
 281 453 281 453 332 453 c 0,23,24
 398 453 398 453 448 424 c 128,-1,25
 498 395 498 395 525.5 343 c 128,-1,26
 553 291 553 291 553 222 c 0,27,28
 553 152 553 152 522.5 99.5 c 128,-1,29
 492 47 492 47 437 18.5 c 128,-1,30
 382 -10 382 -10 308 -10 c 0,0,1
306 76 m 0,31,32
 366 76 366 76 403.5 114.5 c 128,-1,33
 441 153 441 153 441 222 c 0,34,35
 441 293 441 293 404 331.5 c 128,-1,36
 367 370 367 370 304 370 c 0,37,38
 243 370 243 370 202 333 c 128,-1,39
 161 296 161 296 161 228 c 0,40,41
 161 182 161 182 180 147.5 c 128,-1,42
 199 113 199 113 232 94.5 c 128,-1,43
 265 76 265 76 306 76 c 0,31,32
EndSplineSet
Validated: 5
Substitution2: "'tnum' Tabular Numbers in Latin lookup 19 subtable" six.tf
Substitution2: "'aalt' Access All Alternates in Latin lookup 0 subtable" six.tf
EndChar

StartChar: seven
Encoding: 55 55 326
Width: 527
Flags: W
LayerCount: 2
Fore
SplineSet
153 0 m 1,0,1
 167 171 167 171 231 335.5 c 128,-1,2
 295 500 295 500 414 660 c 1,3,-1
 422 634 l 1,4,-1
 23 634 l 1,5,-1
 23 720 l 1,6,-1
 507 720 l 1,7,-1
 507 645 l 1,8,9
 433 535 433 535 383 429.5 c 128,-1,10
 333 324 333 324 304.5 218.5 c 128,-1,11
 276 113 276 113 268 0 c 1,12,-1
 153 0 l 1,0,1
EndSplineSet
Validated: 5
Substitution2: "'tnum' Tabular Numbers in Latin lookup 19 subtable" seven.tf
Substitution2: "'aalt' Access All Alternates in Latin lookup 0 subtable" seven.tf
EndChar

StartChar: eight
Encoding: 56 56 327
Width: 571
Flags: W
LayerCount: 2
Fore
SplineSet
286 -10 m 0,0,1
 210 -10 210 -10 154.5 17 c 128,-1,2
 99 44 99 44 68.5 91 c 128,-1,3
 38 138 38 138 38 198 c 0,4,5
 38 252 38 252 61 295.5 c 128,-1,6
 84 339 84 339 124.5 364.5 c 128,-1,7
 165 390 165 390 215 390 c 1,8,-1
 221 369 l 1,9,10
 172 369 172 369 134.5 390.5 c 128,-1,11
 97 412 97 412 76 450.5 c 128,-1,12
 55 489 55 489 55 538 c 0,13,14
 55 595 55 595 84 638 c 128,-1,15
 113 681 113 681 165 705.5 c 128,-1,16
 217 730 217 730 286 730 c 256,17,18
 355 730 355 730 406.5 705.5 c 128,-1,19
 458 681 458 681 486.5 638 c 128,-1,20
 515 595 515 595 515 538 c 0,21,22
 515 489 515 489 494.5 451 c 128,-1,23
 474 413 474 413 436.5 391 c 128,-1,24
 399 369 399 369 349 369 c 1,25,-1
 356 390 l 1,26,27
 407 390 407 390 447 364.5 c 128,-1,28
 487 339 487 339 510 295.5 c 128,-1,29
 533 252 533 252 533 198 c 0,30,31
 533 138 533 138 502.5 90.5 c 128,-1,32
 472 43 472 43 416.5 16.5 c 128,-1,33
 361 -10 361 -10 286 -10 c 0,0,1
285 76 m 0,34,35
 349 76 349 76 385.5 111.5 c 128,-1,36
 422 147 422 147 422 207 c 256,37,38
 422 267 422 267 385.5 301.5 c 128,-1,39
 349 336 349 336 285 336 c 0,40,41
 222 336 222 336 185.5 301.5 c 128,-1,42
 149 267 149 267 149 207 c 0,43,44
 149 146 149 146 185.5 111 c 128,-1,45
 222 76 222 76 285 76 c 0,34,35
285 417 m 0,46,47
 341 417 341 417 373 447.5 c 128,-1,48
 405 478 405 478 405 529 c 0,49,50
 405 583 405 583 372 613.5 c 128,-1,51
 339 644 339 644 285 644 c 256,52,53
 231 644 231 644 198.5 613 c 128,-1,54
 166 582 166 582 166 529 c 0,55,56
 166 478 166 478 198.5 447.5 c 128,-1,57
 231 417 231 417 285 417 c 0,46,47
EndSplineSet
Validated: 5
Substitution2: "'tnum' Tabular Numbers in Latin lookup 19 subtable" eight.tf
Substitution2: "'aalt' Access All Alternates in Latin lookup 0 subtable" eight.tf
EndChar

StartChar: nine
Encoding: 57 57 328
Width: 594
Flags: W
LayerCount: 2
Fore
SplineSet
280 -10 m 0,0,1
 214 -10 214 -10 164 15.5 c 128,-1,2
 114 41 114 41 84 90 c 128,-1,3
 54 139 54 139 46 210 c 1,4,-1
 153 210 l 1,5,6
 161 140 161 140 195 108 c 128,-1,7
 229 76 229 76 283 76 c 0,8,9
 323 76 323 76 351 92.5 c 128,-1,10
 379 109 379 109 397 143.5 c 128,-1,11
 415 178 415 178 423.5 233 c 128,-1,12
 432 288 432 288 432 366 c 2,13,-1
 432 427 l 1,14,-1
 459 426 l 1,15,16
 450 380 450 380 421.5 345.5 c 128,-1,17
 393 311 393 311 350 292.5 c 128,-1,18
 307 274 307 274 256 274 c 0,19,20
 191 274 191 274 141.5 303 c 128,-1,21
 92 332 92 332 64 383 c 128,-1,22
 36 434 36 434 36 500 c 0,23,24
 36 570 36 570 67 621.5 c 128,-1,25
 98 673 98 673 153.5 701.5 c 128,-1,26
 209 730 209 730 282 730 c 0,27,28
 411 730 411 730 478 637.5 c 128,-1,29
 545 545 545 545 545 366 c 0,30,31
 545 245 545 245 514.5 161 c 128,-1,32
 484 77 484 77 425 33.5 c 128,-1,33
 366 -10 366 -10 280 -10 c 0,0,1
285 357 m 0,34,35
 348 357 348 357 385.5 393 c 128,-1,36
 423 429 423 429 423 495 c 0,37,38
 423 539 423 539 405.5 572.5 c 128,-1,39
 388 606 388 606 356.5 625 c 128,-1,40
 325 644 325 644 283 644 c 0,41,42
 222 644 222 644 186 605 c 128,-1,43
 150 566 150 566 150 500 c 0,44,45
 150 436 150 436 185.5 396.5 c 128,-1,46
 221 357 221 357 285 357 c 0,34,35
EndSplineSet
Validated: 5
Substitution2: "'tnum' Tabular Numbers in Latin lookup 19 subtable" nine.tf
Substitution2: "'aalt' Access All Alternates in Latin lookup 0 subtable" nine.tf
EndChar

StartChar: two.ss10
Encoding: 65624 -1 329
Width: 534
Flags: W
LayerCount: 2
Fore
SplineSet
36 0 m 1,0,-1
 36 64 l 2,1,2
 36 127 36 127 61 174 c 128,-1,3
 86 221 86 221 126 257.5 c 128,-1,4
 166 294 166 294 211 324.5 c 128,-1,5
 256 355 256 355 296 385 c 128,-1,6
 336 415 336 415 361 450 c 128,-1,7
 386 485 386 485 386 530 c 0,8,9
 386 584 386 584 354.5 614 c 128,-1,10
 323 644 323 644 272 644 c 0,11,12
 216 644 216 644 179 609 c 128,-1,13
 142 574 142 574 135 512 c 1,14,-1
 29 512 l 1,15,16
 38 613 38 613 104.5 671.5 c 128,-1,17
 171 730 171 730 276 730 c 0,18,19
 377 730 377 730 437 676.5 c 128,-1,20
 497 623 497 623 497 526 c 0,21,22
 497 474 497 474 476.5 432.5 c 128,-1,23
 456 391 456 391 423 358.5 c 128,-1,24
 390 326 390 326 350.5 298 c 128,-1,25
 311 270 311 270 271.5 244 c 128,-1,26
 232 218 232 218 200.5 189.5 c 128,-1,27
 169 161 169 161 152 128 c 128,-1,28
 135 95 135 95 139 53 c 1,29,-1
 122 86 l 1,30,-1
 510 86 l 1,31,-1
 510 0 l 1,32,-1
 36 0 l 1,0,-1
EndSplineSet
Validated: 37
EndChar

StartChar: zero.tf
Encoding: 65625 -1 330
Width: 588
Flags: W
LayerCount: 2
Fore
SplineSet
294 -10 m 256,0,1
 216 -10 216 -10 155.5 37 c 128,-1,2
 95 84 95 84 61 168 c 128,-1,3
 27 252 27 252 27 363 c 256,4,5
 27 474 27 474 61 556.5 c 128,-1,6
 95 639 95 639 155.5 684.5 c 128,-1,7
 216 730 216 730 294 730 c 0,8,9
 373 730 373 730 432.5 684.5 c 128,-1,10
 492 639 492 639 526 556.5 c 128,-1,11
 560 474 560 474 560 363 c 0,12,13
 560 251 560 251 526 167 c 128,-1,14
 492 83 492 83 432 36.5 c 128,-1,15
 372 -10 372 -10 294 -10 c 256,0,1
294 79 m 0,16,17
 342 79 342 79 376 114 c 128,-1,18
 410 149 410 149 427.5 213 c 128,-1,19
 445 277 445 277 445 364 c 256,20,21
 445 451 445 451 428 512.5 c 128,-1,22
 411 574 411 574 377 607.5 c 128,-1,23
 343 641 343 641 294 641 c 0,24,25
 244 641 244 641 210.5 607.5 c 128,-1,26
 177 574 177 574 159.5 512.5 c 128,-1,27
 142 451 142 451 142 364 c 0,28,29
 142 276 142 276 159.5 212 c 128,-1,30
 177 148 177 148 211 113.5 c 128,-1,31
 245 79 245 79 294 79 c 0,16,17
EndSplineSet
Validated: 1
Substitution2: "'pnum' Proportional Numbers in Latin lookup 18 subtable" zero
Substitution2: "'aalt' Access All Alternates in Latin lookup 0 subtable" zero
EndChar

StartChar: one.tf
Encoding: 65626 -1 331
Width: 588
Flags: W
LayerCount: 2
Fore
SplineSet
287 21 m 1,0,-1
 287 624 l 1,1,-1
 305 614 l 1,2,3
 292 586 292 586 264.5 560 c 128,-1,4
 237 534 237 534 199.5 514.5 c 128,-1,5
 162 495 162 495 117 487 c 1,6,-1
 117 588 l 1,7,8
 158 596 158 596 196 615.5 c 128,-1,9
 234 635 234 635 263 662.5 c 128,-1,10
 292 690 292 690 306 720 c 1,11,-1
 392 720 l 1,12,-1
 392 21 l 1,13,-1
 287 21 l 1,0,-1
109 0 m 1,14,-1
 109 86 l 1,15,-1
 543 86 l 1,16,-1
 543 0 l 1,17,-1
 109 0 l 1,14,-1
EndSplineSet
Validated: 5
Substitution2: "'pnum' Proportional Numbers in Latin lookup 18 subtable" one
Substitution2: "'aalt' Access All Alternates in Latin lookup 0 subtable" one
EndChar

StartChar: two.tf
Encoding: 65627 -1 332
Width: 588
Flags: W
LayerCount: 2
Fore
SplineSet
72 0 m 1,0,-1
 72 85 l 1,1,2
 167 171 167 171 229.5 236.5 c 128,-1,3
 292 302 292 302 329 353 c 128,-1,4
 366 404 366 404 381.5 447 c 128,-1,5
 397 490 397 490 397 530 c 0,6,7
 397 584 397 584 371.5 614 c 128,-1,8
 346 644 346 644 295 644 c 0,9,10
 242 644 242 644 211.5 609.5 c 128,-1,11
 181 575 181 575 175 512 c 1,12,-1
 66 512 l 1,13,14
 74 611 74 611 136.5 670.5 c 128,-1,15
 199 730 199 730 301 730 c 0,16,17
 398 730 398 730 454.5 675 c 128,-1,18
 511 620 511 620 511 524 c 0,19,20
 511 474 511 474 493 424 c 128,-1,21
 475 374 475 374 436.5 319.5 c 128,-1,22
 398 265 398 265 334 199.5 c 128,-1,23
 270 134 270 134 177 53 c 1,24,-1
 153 86 l 1,25,-1
 523 86 l 1,26,-1
 523 0 l 1,27,-1
 72 0 l 1,0,-1
EndSplineSet
Validated: 5
Substitution2: "'ss10' Style Set 10 in Latin lookup 31 subtable" two.tf.ss10
Substitution2: "'pnum' Proportional Numbers in Latin lookup 18 subtable" two
AlternateSubs2: "'aalt' Access All Alternates in Latin lookup 1 subtable" two two.tf.ss10
EndChar

StartChar: three.tf
Encoding: 65628 -1 333
Width: 588
Flags: W
LayerCount: 2
Fore
SplineSet
302 -10 m 0,0,1
 234 -10 234 -10 181.5 17 c 128,-1,2
 129 44 129 44 98 95.5 c 128,-1,3
 67 147 67 147 61 221 c 1,4,-1
 170 221 l 1,5,6
 177 152 177 152 209.5 114 c 128,-1,7
 242 76 242 76 298 76 c 0,8,9
 349 76 349 76 380 109 c 128,-1,10
 411 142 411 142 411 200 c 0,11,12
 411 260 411 260 380.5 297 c 128,-1,13
 350 334 350 334 290 334 c 2,14,-1
 222 334 l 1,15,-1
 222 418 l 1,16,-1
 288 418 l 2,17,18
 341 418 341 418 369 449.5 c 128,-1,19
 397 481 397 481 397 533 c 256,20,21
 397 585 397 585 371 614.5 c 128,-1,22
 345 644 345 644 296 644 c 0,23,24
 250 644 250 644 217 612 c 128,-1,25
 184 580 184 580 178 518 c 1,26,-1
 69 518 l 1,27,28
 76 583 76 583 105.5 630.5 c 128,-1,29
 135 678 135 678 185 704 c 128,-1,30
 235 730 235 730 300 730 c 0,31,32
 363 730 363 730 410.5 707 c 128,-1,33
 458 684 458 684 484.5 641.5 c 128,-1,34
 511 599 511 599 511 541 c 0,35,36
 511 490 511 490 490 451 c 128,-1,37
 469 412 469 412 434.5 390.5 c 128,-1,38
 400 369 400 369 359 369 c 1,39,-1
 356 390 l 1,40,41
 409 390 409 390 447 364.5 c 128,-1,42
 485 339 485 339 505.5 295.5 c 128,-1,43
 526 252 526 252 526 196 c 0,44,45
 526 134 526 134 497 87.5 c 128,-1,46
 468 41 468 41 417.5 15.5 c 128,-1,47
 367 -10 367 -10 302 -10 c 0,0,1
EndSplineSet
Validated: 5
Substitution2: "'pnum' Proportional Numbers in Latin lookup 18 subtable" three
Substitution2: "'aalt' Access All Alternates in Latin lookup 0 subtable" three
EndChar

StartChar: four.tf
Encoding: 65629 -1 334
Width: 588
Flags: W
LayerCount: 2
Fore
SplineSet
360 0 m 1,0,-1
 360 189 l 1,1,-1
 364 209 l 1,2,-1
 364 616 l 1,3,-1
 403 606 l 1,4,-1
 139 204 l 1,5,-1
 97 241 l 1,6,-1
 545 241 l 1,7,-1
 545 155 l 1,8,-1
 43 155 l 1,9,-1
 43 234 l 1,10,-1
 363 720 l 1,11,-1
 470 720 l 1,12,-1
 470 0 l 1,13,-1
 360 0 l 1,0,-1
EndSplineSet
Validated: 5
Substitution2: "'pnum' Proportional Numbers in Latin lookup 18 subtable" four
Substitution2: "'aalt' Access All Alternates in Latin lookup 0 subtable" four
EndChar

StartChar: five.tf
Encoding: 65630 -1 335
Width: 588
Flags: W
LayerCount: 2
Fore
SplineSet
297 -10 m 0,0,1
 198 -10 198 -10 137 47.5 c 128,-1,2
 76 105 76 105 64 202 c 1,3,-1
 173 202 l 1,4,5
 181 140 181 140 215 108 c 128,-1,6
 249 76 249 76 295 76 c 0,7,8
 345 76 345 76 378 113.5 c 128,-1,9
 411 151 411 151 411 232 c 0,10,11
 411 312 411 312 379 352 c 128,-1,12
 347 392 347 392 295 392 c 0,13,14
 260 392 260 392 232.5 374.5 c 128,-1,15
 205 357 205 357 193 329 c 1,16,-1
 97 329 l 1,17,-1
 127 720 l 1,18,-1
 488 720 l 1,19,-1
 488 634 l 1,20,-1
 175 634 l 1,21,-1
 225 659 l 1,22,-1
 207 392 l 1,23,-1
 176 397 l 1,24,25
 195 430 195 430 230.5 451 c 128,-1,26
 266 472 266 472 317 472 c 0,27,28
 379 472 379 472 426 443 c 128,-1,29
 473 414 473 414 499.5 360.5 c 128,-1,30
 526 307 526 307 526 232 c 0,31,32
 526 155 526 155 497.5 101 c 128,-1,33
 469 47 469 47 417.5 18.5 c 128,-1,34
 366 -10 366 -10 297 -10 c 0,0,1
EndSplineSet
Validated: 5
Substitution2: "'pnum' Proportional Numbers in Latin lookup 18 subtable" five
Substitution2: "'aalt' Access All Alternates in Latin lookup 0 subtable" five
EndChar

StartChar: six.tf
Encoding: 65631 -1 336
Width: 588
Flags: W
LayerCount: 2
Fore
SplineSet
307 -10 m 0,0,1
 186 -10 186 -10 120 82.5 c 128,-1,2
 54 175 54 175 54 348 c 0,3,4
 54 469 54 469 85.5 554 c 128,-1,5
 117 639 117 639 175.5 684.5 c 128,-1,6
 234 730 234 730 315 730 c 0,7,8
 405 730 405 730 462 676.5 c 128,-1,9
 519 623 519 623 531 529 c 1,10,-1
 422 529 l 1,11,12
 416 585 416 585 386.5 614.5 c 128,-1,13
 357 644 357 644 314 644 c 0,14,15
 241 644 241 644 204.5 572.5 c 128,-1,16
 168 501 168 501 168 354 c 2,17,-1
 168 293 l 1,18,-1
 144 302 l 1,19,20
 153 348 153 348 179.5 382 c 128,-1,21
 206 416 206 416 245.5 434.5 c 128,-1,22
 285 453 285 453 332 453 c 0,23,24
 395 453 395 453 441.5 424 c 128,-1,25
 488 395 488 395 514.5 343 c 128,-1,26
 541 291 541 291 541 222 c 0,27,28
 541 152 541 152 512 99.5 c 128,-1,29
 483 47 483 47 430.5 18.5 c 128,-1,30
 378 -10 378 -10 307 -10 c 0,0,1
304 76 m 0,31,32
 357 76 357 76 391 114.5 c 128,-1,33
 425 153 425 153 425 222 c 0,34,35
 425 292 425 292 391.5 331 c 128,-1,36
 358 370 358 370 302 370 c 0,37,38
 247 370 247 370 210 333 c 128,-1,39
 173 296 173 296 173 228 c 0,40,41
 173 182 173 182 190.5 147.5 c 128,-1,42
 208 113 208 113 237.5 94.5 c 128,-1,43
 267 76 267 76 304 76 c 0,31,32
EndSplineSet
Validated: 5
Substitution2: "'pnum' Proportional Numbers in Latin lookup 18 subtable" six
Substitution2: "'aalt' Access All Alternates in Latin lookup 0 subtable" six
EndChar

StartChar: seven.tf
Encoding: 65632 -1 337
Width: 588
Flags: W
LayerCount: 2
Fore
SplineSet
183 0 m 1,0,1
 197 172 197 172 257 335.5 c 128,-1,2
 317 499 317 499 426 660 c 1,3,-1
 433 634 l 1,4,-1
 64 634 l 1,5,-1
 64 720 l 1,6,-1
 523 720 l 1,7,-1
 523 645 l 1,8,9
 424 481 424 481 368.5 324.5 c 128,-1,10
 313 168 313 168 302 0 c 1,11,-1
 183 0 l 1,0,1
EndSplineSet
Validated: 5
Substitution2: "'pnum' Proportional Numbers in Latin lookup 18 subtable" seven
Substitution2: "'aalt' Access All Alternates in Latin lookup 0 subtable" seven
EndChar

StartChar: eight.tf
Encoding: 65633 -1 338
Width: 588
Flags: W
LayerCount: 2
Fore
SplineSet
295 -10 m 256,0,1
 224 -10 224 -10 170.5 17 c 128,-1,2
 117 44 117 44 87.5 91 c 128,-1,3
 58 138 58 138 58 198 c 0,4,5
 58 252 58 252 80 295.5 c 128,-1,6
 102 339 102 339 139.5 364.5 c 128,-1,7
 177 390 177 390 225 390 c 1,8,-1
 234 369 l 1,9,10
 186 369 186 369 150 390.5 c 128,-1,11
 114 412 114 412 95 450.5 c 128,-1,12
 76 489 76 489 76 538 c 0,13,14
 76 595 76 595 103.5 638 c 128,-1,15
 131 681 131 681 180 705.5 c 128,-1,16
 229 730 229 730 295 730 c 256,17,18
 361 730 361 730 410 705.5 c 128,-1,19
 459 681 459 681 486 638 c 128,-1,20
 513 595 513 595 513 538 c 0,21,22
 513 489 513 489 493.5 451 c 128,-1,23
 474 413 474 413 438.5 391 c 128,-1,24
 403 369 403 369 354 369 c 1,25,-1
 363 390 l 1,26,27
 411 390 411 390 449 364.5 c 128,-1,28
 487 339 487 339 508.5 295.5 c 128,-1,29
 530 252 530 252 530 198 c 0,30,31
 530 138 530 138 501 90.5 c 128,-1,32
 472 43 472 43 419 16.5 c 128,-1,33
 366 -10 366 -10 295 -10 c 256,0,1
294 76 m 256,34,35
 350 76 350 76 382.5 111.5 c 128,-1,36
 415 147 415 147 415 207 c 256,37,38
 415 267 415 267 382.5 301.5 c 128,-1,39
 350 336 350 336 294 336 c 256,40,41
 238 336 238 336 205.5 301.5 c 128,-1,42
 173 267 173 267 173 207 c 0,43,44
 173 146 173 146 205.5 111 c 128,-1,45
 238 76 238 76 294 76 c 256,34,35
294 417 m 0,46,47
 342 417 342 417 370.5 447.5 c 128,-1,48
 399 478 399 478 399 529 c 0,49,50
 399 582 399 582 370 613 c 128,-1,51
 341 644 341 644 294 644 c 256,52,53
 247 644 247 644 218 613 c 128,-1,54
 189 582 189 582 189 529 c 0,55,56
 189 478 189 478 218 447.5 c 128,-1,57
 247 417 247 417 294 417 c 0,46,47
EndSplineSet
Validated: 5
Substitution2: "'pnum' Proportional Numbers in Latin lookup 18 subtable" eight
Substitution2: "'aalt' Access All Alternates in Latin lookup 0 subtable" eight
EndChar

StartChar: nine.tf
Encoding: 65634 -1 339
Width: 588
Flags: W
LayerCount: 2
Fore
SplineSet
278 -10 m 0,0,1
 215 -10 215 -10 167.5 15.5 c 128,-1,2
 120 41 120 41 91.5 90 c 128,-1,3
 63 139 63 139 56 210 c 1,4,-1
 165 210 l 1,5,6
 172 139 172 139 202.5 107.5 c 128,-1,7
 233 76 233 76 282 76 c 0,8,9
 318 76 318 76 343 93 c 128,-1,10
 368 110 368 110 384 144.5 c 128,-1,11
 400 179 400 179 407 234 c 128,-1,12
 414 289 414 289 414 366 c 2,13,-1
 414 427 l 1,14,-1
 444 426 l 1,15,16
 434 379 434 379 407 344.5 c 128,-1,17
 380 310 380 310 340.5 292 c 128,-1,18
 301 274 301 274 254 274 c 0,19,20
 193 274 193 274 146 303 c 128,-1,21
 99 332 99 332 73 383 c 128,-1,22
 47 434 47 434 47 500 c 0,23,24
 47 570 47 570 76.5 621.5 c 128,-1,25
 106 673 106 673 158.5 701.5 c 128,-1,26
 211 730 211 730 281 730 c 0,27,28
 403 730 403 730 467.5 637.5 c 128,-1,29
 532 545 532 545 532 366 c 0,30,31
 532 245 532 245 502.5 161 c 128,-1,32
 473 77 473 77 416.5 33.5 c 128,-1,33
 360 -10 360 -10 278 -10 c 0,0,1
286 357 m 0,34,35
 342 357 342 357 375 393 c 128,-1,36
 408 429 408 429 408 495 c 256,37,38
 408 561 408 561 374.5 602.5 c 128,-1,39
 341 644 341 644 284 644 c 0,40,41
 229 644 229 644 197 605 c 128,-1,42
 165 566 165 566 165 500 c 0,43,44
 165 436 165 436 196.5 396.5 c 128,-1,45
 228 357 228 357 286 357 c 0,34,35
EndSplineSet
Validated: 5
Substitution2: "'pnum' Proportional Numbers in Latin lookup 18 subtable" nine
Substitution2: "'aalt' Access All Alternates in Latin lookup 0 subtable" nine
EndChar

StartChar: two.tf.ss10
Encoding: 65635 -1 340
Width: 588
Flags: W
LayerCount: 2
Fore
SplineSet
73 0 m 1,0,-1
 73 64 l 2,1,2
 73 127 73 127 96.5 174 c 128,-1,3
 120 221 120 221 156.5 257.5 c 128,-1,4
 193 294 193 294 234.5 324.5 c 128,-1,5
 276 355 276 355 313 386 c 128,-1,6
 350 417 350 417 373.5 452 c 128,-1,7
 397 487 397 487 397 533 c 0,8,9
 397 585 397 585 369.5 614.5 c 128,-1,10
 342 644 342 644 296 644 c 0,11,12
 246 644 246 644 213.5 609.5 c 128,-1,13
 181 575 181 575 175 512 c 1,14,-1
 66 512 l 1,15,16
 75 611 75 611 137 670.5 c 128,-1,17
 199 730 199 730 300 730 c 0,18,19
 396 730 396 730 453.5 676.5 c 128,-1,20
 511 623 511 623 511 529 c 0,21,22
 511 476 511 476 492 434.5 c 128,-1,23
 473 393 473 393 442 359.5 c 128,-1,24
 411 326 411 326 374 298.5 c 128,-1,25
 337 271 337 271 301 244.5 c 128,-1,26
 265 218 265 218 235.5 189.5 c 128,-1,27
 206 161 206 161 190 128 c 128,-1,28
 174 95 174 95 179 53 c 1,29,-1
 162 86 l 1,30,-1
 523 86 l 1,31,-1
 523 0 l 1,32,-1
 73 0 l 1,0,-1
EndSplineSet
Validated: 37
EndChar

StartChar: hyphen_greater.liga
Encoding: 65636 -1 343
Width: 825
GlyphClass: 3
LigCaretCntFixed: 1
Flags: W
LayerCount: 2
Fore
SplineSet
60 406 m 1,0,-1
 693 406 l 1,1,-1
 642 368 l 1,2,-1
 315 696 l 1,3,-1
 443 696 l 1,4,-1
 777 360 l 1,5,-1
 443 24 l 1,6,-1
 315 24 l 1,7,-1
 642 352 l 1,8,-1
 693 314 l 1,9,-1
 60 314 l 1,10,-1
 60 406 l 1,0,-1
EndSplineSet
Validated: 5
Ligature2: "'liga' Standard Ligatures in Latin lookup 21 subtable" hyphen greater
LCarets2: 1 413
EndChar

StartChar: period
Encoding: 46 46 344
Width: 260
Flags: W
LayerCount: 2
Fore
SplineSet
69 0 m 1,0,-1
 69 122 l 1,1,-1
 191 122 l 1,2,-1
 191 0 l 1,3,-1
 69 0 l 1,0,-1
EndSplineSet
Validated: 1
Substitution2: "'ss01' Style Set 1 in Latin lookup 22 subtable" period.ss01
Substitution2: "'aalt' Access All Alternates in Latin lookup 0 subtable" period.ss01
EndChar

StartChar: comma
Encoding: 44 44 345
Width: 260
Flags: W
LayerCount: 2
Fore
SplineSet
70 -151 m 1,0,-1
 70 -99 l 1,1,2
 105 -87 105 -87 118 -63 c 128,-1,3
 131 -39 131 -39 131 7 c 1,4,-1
 172 0 l 1,5,-1
 69 0 l 1,6,-1
 69 122 l 1,7,-1
 190 122 l 1,8,-1
 190 30 l 2,9,10
 190 -39 190 -39 162 -85.5 c 128,-1,11
 134 -132 134 -132 70 -151 c 1,0,-1
EndSplineSet
Validated: 5
Substitution2: "'ss01' Style Set 1 in Latin lookup 22 subtable" comma.ss01
Substitution2: "'aalt' Access All Alternates in Latin lookup 0 subtable" comma.ss01
EndChar

StartChar: exclam
Encoding: 33 33 349
Width: 278
Flags: W
LayerCount: 2
Fore
SplineSet
99 230 m 1,0,-1
 83 740 l 1,1,-1
 195 740 l 1,2,-1
 179 230 l 1,3,-1
 99 230 l 1,0,-1
78 0 m 1,4,-1
 78 122 l 1,5,-1
 201 122 l 1,6,-1
 201 0 l 1,7,-1
 78 0 l 1,4,-1
EndSplineSet
Validated: 1
Substitution2: "'ss01' Style Set 1 in Latin lookup 22 subtable" exclam.ss01
Substitution2: "'case' Case-Sensitive Forms in Latin lookup 20 subtable" exclam.case
AlternateSubs2: "'aalt' Access All Alternates in Latin lookup 1 subtable" exclam.case exclam.ss01
EndChar

StartChar: exclamdown
Encoding: 161 161 350
Width: 278
Flags: W
LayerCount: 2
Fore
SplineSet
83 -205 m 1,0,-1
 99 280 l 1,1,-1
 179 280 l 1,2,-1
 195 -205 l 1,3,-1
 83 -205 l 1,0,-1
201 510 m 1,4,-1
 201 388 l 1,5,-1
 78 388 l 1,6,-1
 78 510 l 1,7,-1
 201 510 l 1,4,-1
EndSplineSet
Validated: 1
Substitution2: "'ss01' Style Set 1 in Latin lookup 22 subtable" exclamdown.ss01
Substitution2: "'case' Case-Sensitive Forms in Latin lookup 20 subtable" exclamdown.case
AlternateSubs2: "'aalt' Access All Alternates in Latin lookup 1 subtable" exclamdown.case exclamdown.ss01
EndChar

StartChar: question
Encoding: 63 63 351
Width: 552
Flags: W
LayerCount: 2
Fore
SplineSet
235 230 m 1,0,1
 235 284 235 284 248 321 c 128,-1,2
 261 358 261 358 282.5 384 c 128,-1,3
 304 410 304 410 327.5 429.5 c 128,-1,4
 351 449 351 449 372 467 c 128,-1,5
 393 485 393 485 406.5 507.5 c 128,-1,6
 420 530 420 530 420 562 c 0,7,8
 420 609 420 609 386.5 636.5 c 128,-1,9
 353 664 353 664 294 664 c 0,10,11
 228 664 228 664 188 630 c 128,-1,12
 148 596 148 596 139 534 c 1,13,-1
 38 534 l 1,14,15
 45 600 45 600 79 648.5 c 128,-1,16
 113 697 113 697 168.5 723.5 c 128,-1,17
 224 750 224 750 296 750 c 0,18,19
 365 750 365 750 416 726.5 c 128,-1,20
 467 703 467 703 495.5 661 c 128,-1,21
 524 619 524 619 524 561 c 0,22,23
 524 517 524 517 510 487 c 128,-1,24
 496 457 496 457 474.5 435 c 128,-1,25
 453 413 453 413 428 393.5 c 128,-1,26
 403 374 403 374 381.5 352.5 c 128,-1,27
 360 331 360 331 346 302 c 128,-1,28
 332 273 332 273 332 230 c 1,29,-1
 235 230 l 1,0,1
222 0 m 1,30,-1
 222 122 l 1,31,-1
 345 122 l 1,32,-1
 345 0 l 1,33,-1
 222 0 l 1,30,-1
EndSplineSet
Validated: 1
Substitution2: "'ss01' Style Set 1 in Latin lookup 22 subtable" question.ss01
Substitution2: "'case' Case-Sensitive Forms in Latin lookup 20 subtable" question.case
AlternateSubs2: "'aalt' Access All Alternates in Latin lookup 1 subtable" question.case question.ss01
EndChar

StartChar: questiondown
Encoding: 191 191 352
Width: 552
Flags: W
LayerCount: 2
Fore
SplineSet
256 -215 m 0,0,1
 190 -215 190 -215 138.5 -193.5 c 128,-1,2
 87 -172 87 -172 58 -131.5 c 128,-1,3
 29 -91 29 -91 29 -35 c 0,4,5
 29 9 29 9 42.5 39 c 128,-1,6
 56 69 56 69 78 91 c 128,-1,7
 100 113 100 113 124.5 130.5 c 128,-1,8
 149 148 149 148 170.5 168 c 128,-1,9
 192 188 192 188 206 215 c 128,-1,10
 220 242 220 242 220 280 c 1,11,-1
 318 280 l 1,12,13
 318 230 318 230 304.5 196 c 128,-1,14
 291 162 291 162 269.5 138.5 c 128,-1,15
 248 115 248 115 224.5 97 c 128,-1,16
 201 79 201 79 180 61 c 128,-1,17
 159 43 159 43 145.5 21 c 128,-1,18
 132 -1 132 -1 132 -34 c 0,19,20
 132 -78 132 -78 168 -103.5 c 128,-1,21
 204 -129 204 -129 261 -129 c 0,22,23
 320 -129 320 -129 362.5 -100 c 128,-1,24
 405 -71 405 -71 413 -16 c 1,25,-1
 514 -16 l 1,26,27
 507 -78 507 -78 472 -122.5 c 128,-1,28
 437 -167 437 -167 381.5 -191 c 128,-1,29
 326 -215 326 -215 256 -215 c 0,0,1
330 510 m 1,30,-1
 330 388 l 1,31,-1
 208 388 l 1,32,-1
 208 510 l 1,33,-1
 330 510 l 1,30,-1
EndSplineSet
Validated: 1
Substitution2: "'ss01' Style Set 1 in Latin lookup 22 subtable" questiondown.ss01
Substitution2: "'case' Case-Sensitive Forms in Latin lookup 20 subtable" questiondown.case
AlternateSubs2: "'aalt' Access All Alternates in Latin lookup 1 subtable" questiondown.case questiondown.ss01
EndChar

StartChar: bullet
Encoding: 8226 8226 354
Width: 315
Flags: W
LayerCount: 2
Fore
SplineSet
69 281 m 1,0,-1
 69 459 l 1,1,-1
 247 459 l 1,2,-1
 247 281 l 1,3,-1
 69 281 l 1,0,-1
EndSplineSet
Validated: 1
Substitution2: "'ss01' Style Set 1 in Latin lookup 22 subtable" bullet.ss01
Substitution2: "'case' Case-Sensitive Forms in Latin lookup 20 subtable" bullet.case
AlternateSubs2: "'aalt' Access All Alternates in Latin lookup 1 subtable" bullet.case bullet.ss01
EndChar

StartChar: asterisk
Encoding: 42 42 355
Width: 415
Flags: W
LayerCount: 2
Fore
SplineSet
163 427 m 1,0,-1
 186 546 l 1,1,-1
 90 467 l 1,2,-1
 45 543 l 1,3,-1
 163 584 l 1,4,-1
 45 624 l 1,5,-1
 90 700 l 1,6,-1
 186 621 l 1,7,-1
 163 740 l 1,8,-1
 252 740 l 1,9,-1
 229 621 l 1,10,-1
 325 700 l 1,11,-1
 369 624 l 1,12,-1
 252 584 l 1,13,-1
 369 543 l 1,14,-1
 325 467 l 1,15,-1
 229 546 l 1,16,-1
 252 427 l 1,17,-1
 163 427 l 1,0,-1
EndSplineSet
Validated: 1
EndChar

StartChar: numbersign
Encoding: 35 35 356
Width: 690
Flags: W
LayerCount: 2
Fore
SplineSet
134 0 m 1,0,-1
 234 720 l 1,1,-1
 323 720 l 1,2,-1
 223 0 l 1,3,-1
 134 0 l 1,0,-1
368 0 m 1,4,-1
 468 720 l 1,5,-1
 556 720 l 1,6,-1
 456 0 l 1,7,-1
 368 0 l 1,4,-1
61 519 m 1,8,-1
 654 519 l 1,9,-1
 654 434 l 1,10,-1
 61 434 l 1,11,-1
 61 519 l 1,8,-1
36 296 m 1,12,-1
 629 296 l 1,13,-1
 629 211 l 1,14,-1
 36 211 l 1,15,-1
 36 296 l 1,12,-1
EndSplineSet
Validated: 5
EndChar

StartChar: slash
Encoding: 47 47 357
Width: 423
Flags: W
LayerCount: 2
Fore
SplineSet
48 -67 m 1,0,-1
 287 757 l 1,1,-1
 375 757 l 1,2,-1
 136 -67 l 1,3,-1
 48 -67 l 1,0,-1
EndSplineSet
Validated: 1
EndChar

StartChar: backslash
Encoding: 92 92 358
Width: 423
Flags: W
LayerCount: 2
Fore
SplineSet
48 757 m 1,0,-1
 136 757 l 1,1,-1
 375 -67 l 1,2,-1
 287 -67 l 1,3,-1
 48 757 l 1,0,-1
EndSplineSet
Validated: 1
EndChar

StartChar: exclam.case
Encoding: 65639 -1 361
Width: 280
Flags: W
LayerCount: 2
Fore
SplineSet
99 230 m 1,0,-1
 84 720 l 1,1,-1
 195 720 l 1,2,-1
 180 230 l 1,3,-1
 99 230 l 1,0,-1
79 0 m 1,4,-1
 79 122 l 1,5,-1
 201 122 l 1,6,-1
 201 0 l 1,7,-1
 79 0 l 1,4,-1
EndSplineSet
Validated: 1
EndChar

StartChar: exclamdown.case
Encoding: 65640 -1 362
Width: 278
Flags: W
LayerCount: 2
Fore
SplineSet
83 0 m 1,0,-1
 99 490 l 1,1,-1
 179 490 l 1,2,-1
 195 0 l 1,3,-1
 83 0 l 1,0,-1
201 720 m 1,4,-1
 201 598 l 1,5,-1
 78 598 l 1,6,-1
 78 720 l 1,7,-1
 201 720 l 1,4,-1
EndSplineSet
Validated: 1
EndChar

StartChar: question.case
Encoding: 65641 -1 363
Width: 552
Flags: W
LayerCount: 2
Fore
SplineSet
235 230 m 1,0,1
 235 281 235 281 248 316.5 c 128,-1,2
 261 352 261 352 282.5 377 c 128,-1,3
 304 402 304 402 327.5 420.5 c 128,-1,4
 351 439 351 439 372 457 c 128,-1,5
 393 475 393 475 406.5 497.5 c 128,-1,6
 420 520 420 520 420 552 c 0,7,8
 420 591 420 591 388 617.5 c 128,-1,9
 356 644 356 644 294 644 c 0,10,11
 228 644 228 644 188 610 c 128,-1,12
 148 576 148 576 139 514 c 1,13,-1
 38 514 l 1,14,15
 45 580 45 580 79 628.5 c 128,-1,16
 113 677 113 677 168.5 703.5 c 128,-1,17
 224 730 224 730 296 730 c 0,18,19
 367 730 367 730 417.5 707 c 128,-1,20
 468 684 468 684 496 644 c 128,-1,21
 524 604 524 604 524 551 c 0,22,23
 524 507 524 507 510 477 c 128,-1,24
 496 447 496 447 474.5 425 c 128,-1,25
 453 403 453 403 428 384.5 c 128,-1,26
 403 366 403 366 381.5 345.5 c 128,-1,27
 360 325 360 325 346 297.5 c 128,-1,28
 332 270 332 270 332 230 c 1,29,-1
 235 230 l 1,0,1
222 0 m 1,30,-1
 222 122 l 1,31,-1
 345 122 l 1,32,-1
 345 0 l 1,33,-1
 222 0 l 1,30,-1
EndSplineSet
Validated: 1
EndChar

StartChar: questiondown.case
Encoding: 65642 -1 364
Width: 552
Flags: W
LayerCount: 2
Fore
SplineSet
256 -10 m 0,0,1
 190 -10 190 -10 138.5 11.5 c 128,-1,2
 87 33 87 33 58 74.5 c 128,-1,3
 29 116 29 116 29 173 c 0,4,5
 29 218 29 218 42.5 248 c 128,-1,6
 56 278 56 278 78 300 c 128,-1,7
 100 322 100 322 124.5 340 c 128,-1,8
 149 358 149 358 170.5 378 c 128,-1,9
 192 398 192 398 206 425 c 128,-1,10
 220 452 220 452 220 490 c 1,11,-1
 318 490 l 1,12,13
 318 440 318 440 304.5 406 c 128,-1,14
 291 372 291 372 269.5 348.5 c 128,-1,15
 248 325 248 325 224.5 307 c 128,-1,16
 201 289 201 289 180 271 c 128,-1,17
 159 253 159 253 145.5 231 c 128,-1,18
 132 209 132 209 132 176 c 0,19,20
 132 128 132 128 168 102.5 c 128,-1,21
 204 77 204 77 261 77 c 0,22,23
 320 77 320 77 362.5 105.5 c 128,-1,24
 405 134 405 134 413 189 c 1,25,-1
 514 189 l 1,26,27
 507 127 507 127 472 82.5 c 128,-1,28
 437 38 437 38 381.5 14 c 128,-1,29
 326 -10 326 -10 256 -10 c 0,0,1
330 720 m 1,30,-1
 330 598 l 1,31,-1
 208 598 l 1,32,-1
 208 720 l 1,33,-1
 330 720 l 1,30,-1
EndSplineSet
Validated: 1
EndChar

StartChar: bullet.case
Encoding: 65643 -1 365
Width: 697
Flags: W
LayerCount: 2
Fore
SplineSet
69 105 m 1,0,-1
 69 665 l 1,1,-1
 629 665 l 1,2,-1
 629 105 l 1,3,-1
 69 105 l 1,0,-1
EndSplineSet
Validated: 1
Substitution2: "'ss01' Style Set 1 in Latin lookup 22 subtable" bullet.case.ss01
Substitution2: "'aalt' Access All Alternates in Latin lookup 0 subtable" bullet.case.ss01
EndChar

StartChar: period.ss01
Encoding: 65645 -1 367
Width: 260
Flags: W
LayerCount: 2
Fore
SplineSet
130 -10 m 0,0,1
 101 -10 101 -10 81 9 c 128,-1,2
 61 28 61 28 61 59 c 0,3,4
 61 89 61 89 81 108 c 128,-1,5
 101 127 101 127 130 127 c 0,6,7
 157 127 157 127 177.5 108 c 128,-1,8
 198 89 198 89 198 59 c 0,9,10
 198 28 198 28 177.5 9 c 128,-1,11
 157 -10 157 -10 130 -10 c 0,0,1
EndSplineSet
Validated: 1
EndChar

StartChar: comma.ss01
Encoding: 65646 -1 368
Width: 260
Flags: W
LayerCount: 2
Fore
SplineSet
75 -151 m 1,0,-1
 75 -99 l 1,1,2
 106 -87 106 -87 123 -63 c 128,-1,3
 140 -39 140 -39 140 7 c 1,4,-1
 172 9 l 1,5,6
 163 3 163 3 152 -2 c 128,-1,7
 141 -7 141 -7 130 -7 c 0,8,9
 101 -7 101 -7 81 12 c 128,-1,10
 61 31 61 31 61 60 c 0,11,12
 61 90 61 90 81 108.5 c 128,-1,13
 101 127 101 127 127 127 c 0,14,15
 157 127 157 127 177.5 104.5 c 128,-1,16
 198 82 198 82 198 30 c 0,17,18
 198 -39 198 -39 165.5 -85.5 c 128,-1,19
 133 -132 133 -132 75 -151 c 1,0,-1
EndSplineSet
Validated: 5
EndChar

StartChar: exclam.ss01
Encoding: 65650 -1 372
Width: 280
Flags: W
LayerCount: 2
Fore
SplineSet
99 230 m 1,0,-1
 84 740 l 1,1,-1
 195 740 l 1,2,-1
 180 230 l 1,3,-1
 99 230 l 1,0,-1
140 -10 m 0,4,5
 111 -10 111 -10 91 9 c 128,-1,6
 71 28 71 28 71 59 c 0,7,8
 71 89 71 89 91 108 c 128,-1,9
 111 127 111 127 140 127 c 0,10,11
 167 127 167 127 187.5 108 c 128,-1,12
 208 89 208 89 208 59 c 0,13,14
 208 28 208 28 187.5 9 c 128,-1,15
 167 -10 167 -10 140 -10 c 0,4,5
EndSplineSet
Validated: 1
EndChar

StartChar: exclamdown.ss01
Encoding: 65651 -1 373
Width: 293
Flags: W
LayerCount: 2
Fore
SplineSet
90 -205 m 1,0,-1
 106 280 l 1,1,-1
 186 280 l 1,2,-1
 202 -205 l 1,3,-1
 90 -205 l 1,0,-1
146 520 m 0,4,5
 175 520 175 520 195 501 c 128,-1,6
 215 482 215 482 215 451 c 0,7,8
 215 421 215 421 195 402 c 128,-1,9
 175 383 175 383 146 383 c 0,10,11
 120 383 120 383 99 402 c 128,-1,12
 78 421 78 421 78 451 c 0,13,14
 78 482 78 482 99 501 c 128,-1,15
 120 520 120 520 146 520 c 0,4,5
EndSplineSet
Validated: 1
EndChar

StartChar: question.ss01
Encoding: 65652 -1 374
Width: 552
Flags: W
LayerCount: 2
Fore
SplineSet
235 230 m 1,0,1
 235 284 235 284 248 321 c 128,-1,2
 261 358 261 358 282.5 384 c 128,-1,3
 304 410 304 410 327.5 429.5 c 128,-1,4
 351 449 351 449 372 467 c 128,-1,5
 393 485 393 485 406.5 507.5 c 128,-1,6
 420 530 420 530 420 562 c 0,7,8
 420 609 420 609 386.5 636.5 c 128,-1,9
 353 664 353 664 294 664 c 0,10,11
 228 664 228 664 188 630 c 128,-1,12
 148 596 148 596 139 534 c 1,13,-1
 38 534 l 1,14,15
 45 600 45 600 79 648.5 c 128,-1,16
 113 697 113 697 168.5 723.5 c 128,-1,17
 224 750 224 750 296 750 c 0,18,19
 365 750 365 750 416 726.5 c 128,-1,20
 467 703 467 703 495.5 661 c 128,-1,21
 524 619 524 619 524 561 c 0,22,23
 524 517 524 517 510 487 c 128,-1,24
 496 457 496 457 474.5 435 c 128,-1,25
 453 413 453 413 428 393.5 c 128,-1,26
 403 374 403 374 381.5 352.5 c 128,-1,27
 360 331 360 331 346 302 c 128,-1,28
 332 273 332 273 332 230 c 1,29,-1
 235 230 l 1,0,1
284 -10 m 0,30,31
 255 -10 255 -10 235 9 c 128,-1,32
 215 28 215 28 215 59 c 0,33,34
 215 89 215 89 235 108 c 128,-1,35
 255 127 255 127 284 127 c 0,36,37
 311 127 311 127 331.5 108 c 128,-1,38
 352 89 352 89 352 59 c 0,39,40
 352 28 352 28 331.5 9 c 128,-1,41
 311 -10 311 -10 284 -10 c 0,30,31
EndSplineSet
Validated: 1
EndChar

StartChar: questiondown.ss01
Encoding: 65653 -1 375
Width: 552
Flags: W
LayerCount: 2
Fore
SplineSet
256 -215 m 0,0,1
 190 -215 190 -215 138.5 -193.5 c 128,-1,2
 87 -172 87 -172 58 -131.5 c 128,-1,3
 29 -91 29 -91 29 -35 c 0,4,5
 29 9 29 9 42.5 39 c 128,-1,6
 56 69 56 69 78 91 c 128,-1,7
 100 113 100 113 124.5 130.5 c 128,-1,8
 149 148 149 148 170.5 168 c 128,-1,9
 192 188 192 188 206 215 c 128,-1,10
 220 242 220 242 220 280 c 1,11,-1
 318 280 l 1,12,13
 318 230 318 230 304.5 196 c 128,-1,14
 291 162 291 162 269.5 138.5 c 128,-1,15
 248 115 248 115 224.5 97 c 128,-1,16
 201 79 201 79 180 61 c 128,-1,17
 159 43 159 43 145.5 21 c 128,-1,18
 132 -1 132 -1 132 -34 c 0,19,20
 132 -78 132 -78 168 -103.5 c 128,-1,21
 204 -129 204 -129 261 -129 c 0,22,23
 320 -129 320 -129 362.5 -100 c 128,-1,24
 405 -71 405 -71 413 -16 c 1,25,-1
 514 -16 l 1,26,27
 507 -78 507 -78 472 -122.5 c 128,-1,28
 437 -167 437 -167 381.5 -191 c 128,-1,29
 326 -215 326 -215 256 -215 c 0,0,1
268 520 m 0,30,31
 298 520 298 520 317.5 501 c 128,-1,32
 337 482 337 482 337 451 c 0,33,34
 337 421 337 421 317.5 402 c 128,-1,35
 298 383 298 383 268 383 c 0,36,37
 242 383 242 383 221 402 c 128,-1,38
 200 421 200 421 200 451 c 0,39,40
 200 482 200 482 221 501 c 128,-1,41
 242 520 242 520 268 520 c 0,30,31
EndSplineSet
Validated: 1
EndChar

StartChar: bullet.ss01
Encoding: 65655 -1 377
Width: 336
Flags: W
LayerCount: 2
Fore
SplineSet
169 266 m 0,0,1
 127 266 127 266 98 294 c 128,-1,2
 69 322 69 322 69 367 c 0,3,4
 69 410 69 410 98 438 c 128,-1,5
 127 466 127 466 169 466 c 0,6,7
 208 466 208 466 238 438 c 128,-1,8
 268 410 268 410 268 367 c 0,9,10
 268 322 268 322 238 294 c 128,-1,11
 208 266 208 266 169 266 c 0,0,1
EndSplineSet
Validated: 1
EndChar

StartChar: bullet.case.ss01
Encoding: 65657 -1 379
Width: 764
Flags: W
LayerCount: 2
Fore
SplineSet
385 57 m 0,0,1
 251 57 251 57 160 144 c 128,-1,2
 69 231 69 231 69 373 c 0,3,4
 69 508 69 508 160 596.5 c 128,-1,5
 251 685 251 685 385 685 c 0,6,7
 507 685 507 685 601.5 596.5 c 128,-1,8
 696 508 696 508 696 373 c 0,9,10
 696 231 696 231 601.5 144 c 128,-1,11
 507 57 507 57 385 57 c 0,0,1
EndSplineSet
Validated: 1
EndChar

StartChar: hyphen
Encoding: 45 45 381
Width: 482
Flags: W
LayerCount: 2
Fore
SplineSet
71 227 m 1,0,-1
 71 317 l 1,1,-1
 411 317 l 1,2,-1
 411 227 l 1,3,-1
 71 227 l 1,0,-1
EndSplineSet
Validated: 1
Substitution2: "'case' Case-Sensitive Forms in Latin lookup 20 subtable" hyphen.case
Substitution2: "'aalt' Access All Alternates in Latin lookup 0 subtable" hyphen.case
EndChar

StartChar: endash
Encoding: 8211 8211 382
Width: 574
Flags: W
LayerCount: 2
Fore
SplineSet
71 231 m 1,0,-1
 71 313 l 1,1,-1
 503 313 l 1,2,-1
 503 231 l 1,3,-1
 71 231 l 1,0,-1
EndSplineSet
Validated: 1
Substitution2: "'case' Case-Sensitive Forms in Latin lookup 20 subtable" endash.case
Substitution2: "'aalt' Access All Alternates in Latin lookup 0 subtable" endash.case
EndChar

StartChar: emdash
Encoding: 8212 8212 383
Width: 862
Flags: W
LayerCount: 2
Fore
SplineSet
71 231 m 1,0,-1
 71 313 l 1,1,-1
 791 313 l 1,2,-1
 791 231 l 1,3,-1
 71 231 l 1,0,-1
EndSplineSet
Validated: 1
Substitution2: "'case' Case-Sensitive Forms in Latin lookup 20 subtable" emdash.case
Substitution2: "'aalt' Access All Alternates in Latin lookup 0 subtable" emdash.case
EndChar

StartChar: hyphen.case
Encoding: 65659 -1 385
Width: 482
Flags: W
LayerCount: 2
Fore
SplineSet
71 315 m 1,0,-1
 71 405 l 1,1,-1
 411 405 l 1,2,-1
 411 315 l 1,3,-1
 71 315 l 1,0,-1
EndSplineSet
Validated: 1
EndChar

StartChar: endash.case
Encoding: 65660 -1 386
Width: 574
Flags: W
LayerCount: 2
Fore
SplineSet
71 319 m 1,0,-1
 71 401 l 1,1,-1
 503 401 l 1,2,-1
 503 319 l 1,3,-1
 71 319 l 1,0,-1
EndSplineSet
Validated: 1
EndChar

StartChar: emdash.case
Encoding: 65661 -1 387
Width: 862
Flags: W
LayerCount: 2
Fore
SplineSet
71 319 m 1,0,-1
 71 401 l 1,1,-1
 791 401 l 1,2,-1
 791 319 l 1,3,-1
 71 319 l 1,0,-1
EndSplineSet
Validated: 1
EndChar

StartChar: parenleft
Encoding: 40 40 388
Width: 413
Flags: W
LayerCount: 2
Fore
SplineSet
270 -110 m 1,0,1
 170 -16 170 -16 122.5 94.5 c 128,-1,2
 75 205 75 205 75 320 c 0,3,4
 75 433 75 433 123 544 c 128,-1,5
 171 655 171 655 270 750 c 1,6,-1
 368 750 l 1,7,8
 270 655 270 655 220.5 547.5 c 128,-1,9
 171 440 171 440 171 320 c 0,10,11
 171 199 171 199 221.5 91.5 c 128,-1,12
 272 -16 272 -16 368 -110 c 1,13,-1
 270 -110 l 1,0,1
EndSplineSet
Validated: 1
Substitution2: "'case' Case-Sensitive Forms in Latin lookup 20 subtable" parenleft.case
Substitution2: "'aalt' Access All Alternates in Latin lookup 0 subtable" parenleft.case
EndChar

StartChar: parenright
Encoding: 41 41 389
Width: 413
Flags: W
LayerCount: 2
Fore
SplineSet
143 754 m 1,0,1
 243 660 243 660 290.5 549.5 c 128,-1,2
 338 439 338 439 338 324 c 0,3,4
 338 211 338 211 290 99.5 c 128,-1,5
 242 -12 242 -12 143 -106 c 1,6,-1
 45 -106 l 1,7,8
 144 -12 144 -12 193 96 c 128,-1,9
 242 204 242 204 242 324 c 0,10,11
 242 445 242 445 191.5 552.5 c 128,-1,12
 141 660 141 660 45 754 c 1,13,-1
 143 754 l 1,0,1
EndSplineSet
Validated: 1
Substitution2: "'case' Case-Sensitive Forms in Latin lookup 20 subtable" parenright.case
Substitution2: "'aalt' Access All Alternates in Latin lookup 0 subtable" parenright.case
EndChar

StartChar: braceleft
Encoding: 123 123 390
Width: 413
Flags: W
LayerCount: 2
Fore
SplineSet
268 -108 m 2,0,1
 208 -108 208 -108 172 -86 c 128,-1,2
 136 -64 136 -64 123.5 -27 c 128,-1,3
 111 10 111 10 120 56 c 2,4,-1
 147 188 l 2,5,6
 157 237 157 237 139.5 259 c 128,-1,7
 122 281 122 281 77 281 c 2,8,-1
 35 281 l 1,9,-1
 35 361 l 1,10,-1
 77 361 l 2,11,12
 122 361 122 361 139.5 383 c 128,-1,13
 157 405 157 405 147 454 c 2,14,-1
 120 586 l 2,15,16
 111 632 111 632 123.5 669 c 128,-1,17
 136 706 136 706 172 728 c 128,-1,18
 208 750 208 750 268 750 c 2,19,-1
 358 750 l 1,20,-1
 358 669 l 1,21,-1
 274 669 l 2,22,23
 238 669 238 669 221.5 648 c 128,-1,24
 205 627 205 627 214 588 c 2,25,-1
 240 467 l 2,26,27
 254 407 254 407 234.5 371.5 c 128,-1,28
 215 336 215 336 172 321 c 1,29,30
 215 306 215 306 234.5 270.5 c 128,-1,31
 254 235 254 235 240 175 c 2,32,-1
 214 54 l 2,33,34
 205 15 205 15 221.5 -6 c 128,-1,35
 238 -27 238 -27 274 -27 c 2,36,-1
 358 -27 l 1,37,-1
 358 -108 l 1,38,-1
 268 -108 l 2,0,1
EndSplineSet
Validated: 33
Substitution2: "'case' Case-Sensitive Forms in Latin lookup 20 subtable" braceleft.case
Substitution2: "'aalt' Access All Alternates in Latin lookup 0 subtable" braceleft.case
EndChar

StartChar: braceright
Encoding: 125 125 391
Width: 413
Flags: W
LayerCount: 2
Fore
SplineSet
146 750 m 2,0,1
 206 750 206 750 242 728 c 128,-1,2
 278 706 278 706 290.5 669 c 128,-1,3
 303 632 303 632 293 586 c 2,4,-1
 267 454 l 2,5,6
 257 405 257 405 274 383 c 128,-1,7
 291 361 291 361 336 361 c 2,8,-1
 378 361 l 1,9,-1
 378 281 l 1,10,-1
 336 281 l 2,11,12
 291 281 291 281 274 259 c 128,-1,13
 257 237 257 237 267 188 c 2,14,-1
 293 56 l 2,15,16
 303 10 303 10 290.5 -27 c 128,-1,17
 278 -64 278 -64 242 -86 c 128,-1,18
 206 -108 206 -108 146 -108 c 2,19,-1
 55 -108 l 1,20,-1
 55 -27 l 1,21,-1
 139 -27 l 2,22,23
 176 -27 176 -27 192.5 -6 c 128,-1,24
 209 15 209 15 199 54 c 2,25,-1
 173 175 l 2,26,27
 160 235 160 235 179.5 270.5 c 128,-1,28
 199 306 199 306 241 321 c 1,29,30
 199 336 199 336 179.5 371.5 c 128,-1,31
 160 407 160 407 173 467 c 2,32,-1
 199 588 l 2,33,34
 209 627 209 627 192.5 648 c 128,-1,35
 176 669 176 669 139 669 c 2,36,-1
 55 669 l 1,37,-1
 55 750 l 1,38,-1
 146 750 l 2,0,1
EndSplineSet
Validated: 33
Substitution2: "'case' Case-Sensitive Forms in Latin lookup 20 subtable" braceright.case
Substitution2: "'aalt' Access All Alternates in Latin lookup 0 subtable" braceright.case
EndChar

StartChar: bracketleft
Encoding: 91 91 392
Width: 413
Flags: W
LayerCount: 2
Fore
SplineSet
85 -108 m 1,0,-1
 85 750 l 1,1,-1
 358 750 l 1,2,-1
 358 669 l 1,3,-1
 181 669 l 1,4,-1
 181 -27 l 1,5,-1
 358 -27 l 1,6,-1
 358 -108 l 1,7,-1
 85 -108 l 1,0,-1
EndSplineSet
Validated: 1
Substitution2: "'case' Case-Sensitive Forms in Latin lookup 20 subtable" bracketleft.case
Substitution2: "'aalt' Access All Alternates in Latin lookup 0 subtable" bracketleft.case
EndChar

StartChar: bracketright
Encoding: 93 93 393
Width: 413
Flags: W
LayerCount: 2
Fore
SplineSet
328 750 m 1,0,-1
 328 -108 l 1,1,-1
 55 -108 l 1,2,-1
 55 -27 l 1,3,-1
 233 -27 l 1,4,-1
 233 669 l 1,5,-1
 55 669 l 1,6,-1
 55 750 l 1,7,-1
 328 750 l 1,0,-1
EndSplineSet
Validated: 1
Substitution2: "'case' Case-Sensitive Forms in Latin lookup 20 subtable" bracketright.case
Substitution2: "'aalt' Access All Alternates in Latin lookup 0 subtable" bracketright.case
EndChar

StartChar: parenleft.case
Encoding: 65662 -1 394
Width: 413
Flags: W
LayerCount: 2
Fore
SplineSet
270 -40 m 1,0,1
 204 18 204 18 161 84 c 128,-1,2
 118 150 118 150 96.5 220 c 128,-1,3
 75 290 75 290 75 360 c 256,4,5
 75 430 75 430 96.5 500 c 128,-1,6
 118 570 118 570 161.5 636 c 128,-1,7
 205 702 205 702 270 760 c 1,8,-1
 368 760 l 1,9,10
 270 674 270 674 220.5 572 c 128,-1,11
 171 470 171 470 171 360 c 0,12,13
 171 248 171 248 221.5 147 c 128,-1,14
 272 46 272 46 368 -40 c 1,15,-1
 270 -40 l 1,0,1
EndSplineSet
Validated: 1
EndChar

StartChar: parenright.case
Encoding: 65663 -1 395
Width: 413
Flags: W
LayerCount: 2
Fore
SplineSet
143 760 m 1,0,1
 210 703 210 703 253 637 c 128,-1,2
 296 571 296 571 317 500.5 c 128,-1,3
 338 430 338 430 338 360 c 0,4,5
 338 291 338 291 317 221 c 128,-1,6
 296 151 296 151 253 84.5 c 128,-1,7
 210 18 210 18 143 -40 c 1,8,-1
 45 -40 l 1,9,10
 144 47 144 47 193 149 c 128,-1,11
 242 251 242 251 242 360 c 0,12,13
 242 472 242 472 191.5 573 c 128,-1,14
 141 674 141 674 45 760 c 1,15,-1
 143 760 l 1,0,1
EndSplineSet
Validated: 1
EndChar

StartChar: braceleft.case
Encoding: 65664 -1 396
Width: 413
Flags: W
LayerCount: 2
Fore
SplineSet
268 -40 m 2,0,1
 208 -40 208 -40 170.5 -18 c 128,-1,2
 133 4 133 4 120 41.5 c 128,-1,3
 107 79 107 79 120 124 c 2,4,-1
 147 227 l 2,5,6
 160 275 160 275 141 297.5 c 128,-1,7
 122 320 122 320 77 320 c 2,8,-1
 35 320 l 1,9,-1
 35 400 l 1,10,-1
 77 400 l 2,11,12
 122 400 122 400 141 422.5 c 128,-1,13
 160 445 160 445 146 493 c 2,14,-1
 120 596 l 2,15,16
 108 642 108 642 120.5 679 c 128,-1,17
 133 716 133 716 170.5 738 c 128,-1,18
 208 760 208 760 268 760 c 2,19,-1
 358 760 l 1,20,-1
 358 679 l 1,21,-1
 274 679 l 2,22,23
 238 679 238 679 220 657.5 c 128,-1,24
 202 636 202 636 214 598 c 2,25,-1
 240 506 l 2,26,27
 252 467 252 467 246 438 c 128,-1,28
 240 409 240 409 220.5 389.5 c 128,-1,29
 201 370 201 370 172 360 c 1,30,31
 201 350 201 350 220.5 330.5 c 128,-1,32
 240 311 240 311 246 282 c 128,-1,33
 252 253 252 253 240 214 c 2,34,-1
 214 122 l 2,35,36
 202 84 202 84 220 62.5 c 128,-1,37
 238 41 238 41 274 41 c 2,38,-1
 358 41 l 1,39,-1
 358 -40 l 1,40,-1
 268 -40 l 2,0,1
EndSplineSet
Validated: 33
EndChar

StartChar: braceright.case
Encoding: 65665 -1 397
Width: 413
Flags: W
LayerCount: 2
Fore
SplineSet
146 760 m 2,0,1
 206 760 206 760 243 738 c 128,-1,2
 280 716 280 716 293.5 679 c 128,-1,3
 307 642 307 642 293 596 c 2,4,-1
 267 493 l 2,5,6
 253 445 253 445 272 422.5 c 128,-1,7
 291 400 291 400 336 400 c 2,8,-1
 378 400 l 1,9,-1
 378 320 l 1,10,-1
 336 320 l 2,11,12
 291 320 291 320 272 297.5 c 128,-1,13
 253 275 253 275 267 227 c 2,14,-1
 293 124 l 2,15,16
 307 79 307 79 293.5 41.5 c 128,-1,17
 280 4 280 4 243 -18 c 128,-1,18
 206 -40 206 -40 146 -40 c 2,19,-1
 55 -40 l 1,20,-1
 55 41 l 1,21,-1
 139 41 l 2,22,23
 176 41 176 41 193.5 62.5 c 128,-1,24
 211 84 211 84 199 122 c 2,25,-1
 174 214 l 2,26,27
 161 253 161 253 167.5 282 c 128,-1,28
 174 311 174 311 193.5 330.5 c 128,-1,29
 213 350 213 350 241 360 c 1,30,31
 213 370 213 370 193.5 389.5 c 128,-1,32
 174 409 174 409 167.5 438 c 128,-1,33
 161 467 161 467 173 506 c 2,34,-1
 199 598 l 2,35,36
 211 636 211 636 193.5 657.5 c 128,-1,37
 176 679 176 679 139 679 c 2,38,-1
 55 679 l 1,39,-1
 55 760 l 1,40,-1
 146 760 l 2,0,1
EndSplineSet
Validated: 33
EndChar

StartChar: bracketleft.case
Encoding: 65666 -1 398
Width: 413
Flags: W
LayerCount: 2
Fore
SplineSet
85 -40 m 1,0,-1
 85 760 l 1,1,-1
 358 760 l 1,2,-1
 358 679 l 1,3,-1
 181 679 l 1,4,-1
 181 41 l 1,5,-1
 358 41 l 1,6,-1
 358 -40 l 1,7,-1
 85 -40 l 1,0,-1
EndSplineSet
Validated: 1
EndChar

StartChar: bracketright.case
Encoding: 65667 -1 399
Width: 413
Flags: W
LayerCount: 2
Fore
SplineSet
328 760 m 1,0,-1
 328 -40 l 1,1,-1
 55 -40 l 1,2,-1
 55 41 l 1,3,-1
 233 41 l 1,4,-1
 233 679 l 1,5,-1
 55 679 l 1,6,-1
 55 760 l 1,7,-1
 328 760 l 1,0,-1
EndSplineSet
Validated: 1
EndChar

StartChar: quoteleft
Encoding: 8216 8216 404
Width: 260
Flags: W
LayerCount: 2
Fore
SplineSet
69 482 m 1,0,-1
 69 570 l 2,1,2
 69 638 69 638 99.5 684 c 128,-1,3
 130 730 130 730 195 740 c 1,4,-1
 195 689 l 1,5,6
 157 684 157 684 142 660.5 c 128,-1,7
 127 637 127 637 127 591 c 1,8,-1
 88 598 l 1,9,-1
 193 598 l 1,10,-1
 193 482 l 1,11,-1
 69 482 l 1,0,-1
EndSplineSet
Validated: 5
Substitution2: "'ss01' Style Set 1 in Latin lookup 22 subtable" quoteleft.ss01
Substitution2: "'aalt' Access All Alternates in Latin lookup 0 subtable" quoteleft.ss01
EndChar

StartChar: quoteright
Encoding: 8217 8217 405
Width: 260
Flags: W
LayerCount: 2
Fore
SplineSet
65 485 m 1,0,-1
 65 536 l 1,1,2
 103 541 103 541 117.5 564.5 c 128,-1,3
 132 588 132 588 132 633 c 1,4,-1
 172 626 l 1,5,-1
 66 626 l 1,6,-1
 66 743 l 1,7,-1
 191 743 l 1,8,-1
 191 654 l 2,9,10
 191 587 191 587 160.5 541 c 128,-1,11
 130 495 130 495 65 485 c 1,0,-1
EndSplineSet
Validated: 5
Substitution2: "'ss01' Style Set 1 in Latin lookup 22 subtable" quoteright.ss01
Substitution2: "'aalt' Access All Alternates in Latin lookup 0 subtable" quoteright.ss01
EndChar

StartChar: guillemotright
Encoding: 187 187 407
Width: 509
Flags: W
LayerCount: 2
Fore
SplineSet
331 434 m 1,0,-1
 459 251 l 1,1,-1
 331 68 l 1,2,-1
 232 68 l 1,3,-1
 356 251 l 1,4,-1
 232 434 l 1,5,-1
 331 434 l 1,0,-1
159 434 m 1,6,-1
 288 251 l 1,7,-1
 159 68 l 1,8,-1
 60 68 l 1,9,-1
 185 251 l 1,10,-1
 60 434 l 1,11,-1
 159 434 l 1,6,-1
EndSplineSet
Validated: 1
EndChar

StartChar: guilsinglleft
Encoding: 8249 8249 408
Width: 338
Flags: W
LayerCount: 2
Fore
SplineSet
179 68 m 1,0,-1
 50 251 l 1,1,-1
 179 434 l 1,2,-1
 278 434 l 1,3,-1
 153 251 l 1,4,-1
 278 68 l 1,5,-1
 179 68 l 1,0,-1
EndSplineSet
Validated: 1
EndChar

StartChar: guilsinglright
Encoding: 8250 8250 409
Width: 338
Flags: W
LayerCount: 2
Fore
SplineSet
159 68 m 1,0,-1
 60 68 l 1,1,-1
 185 251 l 1,2,-1
 60 434 l 1,3,-1
 159 434 l 1,4,-1
 288 251 l 1,5,-1
 159 68 l 1,0,-1
EndSplineSet
Validated: 1
EndChar

StartChar: quotesingle
Encoding: 39 39 411
Width: 239
Flags: W
LayerCount: 2
Fore
SplineSet
101 471 m 1,0,-1
 73 599 l 2,1,2
 66 627 66 627 62.5 648 c 128,-1,3
 59 669 59 669 59 686 c 256,4,5
 59 703 59 703 66 717.5 c 128,-1,6
 73 732 73 732 86.5 741 c 128,-1,7
 100 750 100 750 119 750 c 0,8,9
 139 750 139 750 152.5 741 c 128,-1,10
 166 732 166 732 173 717.5 c 128,-1,11
 180 703 180 703 180 686 c 256,12,13
 180 669 180 669 176.5 648 c 128,-1,14
 173 627 173 627 166 599 c 2,15,-1
 138 471 l 1,16,-1
 101 471 l 1,0,-1
EndSplineSet
Validated: 1
EndChar

StartChar: quoteleft.ss01
Encoding: 65672 -1 416
Width: 273
Flags: W
LayerCount: 2
Fore
SplineSet
141 469 m 0,0,1
 111 469 111 469 90 491.5 c 128,-1,2
 69 514 69 514 69 565 c 0,3,4
 69 632 69 632 103 679 c 128,-1,5
 137 726 137 726 203 740 c 1,6,-1
 203 689 l 1,7,8
 164 680 164 680 145.5 656 c 128,-1,9
 127 632 127 632 127 586 c 1,10,-1
 95 584 l 1,11,12
 104 590 104 590 115 594.5 c 128,-1,13
 126 599 126 599 137 599 c 0,14,15
 169 599 169 599 188.5 581 c 128,-1,16
 208 563 208 563 208 535 c 0,17,18
 208 506 208 506 188.5 487.5 c 128,-1,19
 169 469 169 469 141 469 c 0,0,1
EndSplineSet
Validated: 5
EndChar

StartChar: quoteright.ss01
Encoding: 65673 -1 417
Width: 260
Flags: W
LayerCount: 2
Fore
SplineSet
65 485 m 1,0,-1
 65 536 l 1,1,2
 103 541 103 541 121.5 564 c 128,-1,3
 140 587 140 587 140 633 c 1,4,-1
 172 635 l 1,5,6
 163 629 163 629 152 624.5 c 128,-1,7
 141 620 141 620 130 620 c 0,8,9
 99 620 99 620 79 638 c 128,-1,10
 59 656 59 656 59 684 c 0,11,12
 59 714 59 714 78.5 732 c 128,-1,13
 98 750 98 750 126 750 c 0,14,15
 156 750 156 750 177 727.5 c 128,-1,16
 198 705 198 705 198 654 c 0,17,18
 198 587 198 587 164 541 c 128,-1,19
 130 495 130 495 65 485 c 1,0,-1
EndSplineSet
Validated: 5
EndChar

StartChar: less_hyphen.liga
Encoding: 65674 -1 418
Width: 825
GlyphClass: 3
LigCaretCntFixed: 1
Flags: W
LayerCount: 2
Fore
SplineSet
777 314 m 1,0,-1
 144 314 l 1,1,-1
 195 352 l 1,2,-1
 522 24 l 1,3,-1
 394 24 l 1,4,-1
 60 360 l 1,5,-1
 394 696 l 1,6,-1
 522 696 l 1,7,-1
 195 368 l 1,8,-1
 144 406 l 1,9,-1
 777 406 l 1,10,-1
 777 314 l 1,0,-1
EndSplineSet
Validated: 5
Ligature2: "'liga' Standard Ligatures in Latin lookup 21 subtable" less hyphen
LCarets2: 1 413
EndChar

StartChar: at
Encoding: 64 64 419
Width: 847
Flags: W
LayerCount: 2
Fore
SplineSet
424 -10 m 0,0,1
 308 -10 308 -10 222.5 31.5 c 128,-1,2
 137 73 137 73 90 148.5 c 128,-1,3
 43 224 43 224 43 327 c 0,4,5
 43 412 43 412 73 485.5 c 128,-1,6
 103 559 103 559 159 614 c 128,-1,7
 215 669 215 669 293.5 699.5 c 128,-1,8
 372 730 372 730 468 730 c 0,9,10
 569 730 569 730 644.5 693 c 128,-1,11
 720 656 720 656 762 590 c 128,-1,12
 804 524 804 524 804 436 c 0,13,14
 804 379 804 379 787 327.5 c 128,-1,15
 770 276 770 276 739.5 236.5 c 128,-1,16
 709 197 709 197 669 174.5 c 128,-1,17
 629 152 629 152 585 152 c 0,18,19
 552 152 552 152 528.5 166.5 c 128,-1,20
 505 181 505 181 496.5 209 c 128,-1,21
 488 237 488 237 498 274 c 1,22,-1
 503 246 l 1,23,24
 478 201 478 201 440 176.5 c 128,-1,25
 402 152 402 152 358 152 c 0,26,27
 294 152 294 152 254 197.5 c 128,-1,28
 214 243 214 243 214 318 c 0,29,30
 214 369 214 369 230 415 c 128,-1,31
 246 461 246 461 274 496 c 128,-1,32
 302 531 302 531 339 551 c 128,-1,33
 376 571 376 571 418 571 c 0,34,35
 477 571 477 571 510 537.5 c 128,-1,36
 543 504 543 504 540 450 c 1,37,-1
 529 451 l 1,38,-1
 555 549 l 1,39,-1
 648 549 l 1,40,-1
 582 294 l 2,41,42
 572 257 572 257 578.5 239 c 128,-1,43
 585 221 585 221 607 221 c 0,44,45
 631 221 631 221 652.5 238 c 128,-1,46
 674 255 674 255 691.5 284 c 128,-1,47
 709 313 709 313 719 350 c 128,-1,48
 729 387 729 387 729 428 c 0,49,50
 729 500 729 500 696.5 551.5 c 128,-1,51
 664 603 664 603 605 631.5 c 128,-1,52
 546 660 546 660 466 660 c 256,53,54
 386 660 386 660 321.5 634.5 c 128,-1,55
 257 609 257 609 212 564 c 128,-1,56
 167 519 167 519 143 458.5 c 128,-1,57
 119 398 119 398 119 329 c 0,58,59
 119 247 119 247 155 186.5 c 128,-1,60
 191 126 191 126 258.5 93 c 128,-1,61
 326 60 326 60 421 60 c 0,62,63
 474 60 474 60 527 72 c 128,-1,64
 580 84 580 84 627 106 c 1,65,-1
 654 43 l 1,66,67
 610 19 610 19 550 4.5 c 128,-1,68
 490 -10 490 -10 424 -10 c 0,0,1
393 230 m 0,69,70
 417 230 417 230 438 243.5 c 128,-1,71
 459 257 459 257 475.5 280 c 128,-1,72
 492 303 492 303 501.5 332.5 c 128,-1,73
 511 362 511 362 511 393 c 0,74,75
 511 439 511 439 488.5 466 c 128,-1,76
 466 493 466 493 428 493 c 0,77,78
 404 493 404 493 382.5 480.5 c 128,-1,79
 361 468 361 468 344.5 445.5 c 128,-1,80
 328 423 328 423 319 393.5 c 128,-1,81
 310 364 310 364 310 331 c 0,82,83
 310 284 310 284 333 257 c 128,-1,84
 356 230 356 230 393 230 c 0,69,70
EndSplineSet
Validated: 37
EndChar

StartChar: ampersand
Encoding: 65675 -1 420
Width: 737
Flags: W
LayerCount: 2
Fore
SplineSet
588 0 m 1,0,-1
 217 400 l 2,1,2
 186 435 186 435 166.5 463 c 128,-1,3
 147 491 147 491 138.5 516.5 c 128,-1,4
 130 542 130 542 130 570 c 0,5,6
 130 616 130 616 154.5 652 c 128,-1,7
 179 688 179 688 221.5 709 c 128,-1,8
 264 730 264 730 319 730 c 0,9,10
 373 730 373 730 416 710 c 128,-1,11
 459 690 459 690 484 654 c 128,-1,12
 509 618 509 618 509 568 c 0,13,14
 509 507 509 507 463 458.5 c 128,-1,15
 417 410 417 410 324 377 c 1,16,-1
 275 439 l 1,17,18
 346 461 346 461 380.5 493.5 c 128,-1,19
 415 526 415 526 415 567 c 0,20,21
 415 606 415 606 388 629 c 128,-1,22
 361 652 361 652 319 652 c 0,23,24
 278 652 278 652 253.5 629 c 128,-1,25
 229 606 229 606 229 569 c 0,26,27
 229 551 229 551 236.5 531.5 c 128,-1,28
 244 512 244 512 264 486 c 128,-1,29
 284 460 284 460 323 420 c 2,30,-1
 719 0 l 1,31,-1
 588 0 l 1,0,-1
299 -10 m 0,32,33
 221 -10 221 -10 161.5 16.5 c 128,-1,34
 102 43 102 43 69.5 91 c 128,-1,35
 37 139 37 139 37 203 c 0,36,37
 37 284 37 284 92 343 c 128,-1,38
 147 402 147 402 247 430 c 1,39,-1
 297 368 l 1,40,41
 243 352 243 352 207.5 329.5 c 128,-1,42
 172 307 172 307 155.5 278 c 128,-1,43
 139 249 139 249 139 212 c 0,44,45
 139 147 139 147 183.5 111 c 128,-1,46
 228 75 228 75 306 75 c 0,47,48
 362 75 362 75 407.5 94.5 c 128,-1,49
 453 114 453 114 487 152.5 c 128,-1,50
 521 191 521 191 539.5 250 c 128,-1,51
 558 309 558 309 558 388 c 1,52,-1
 656 388 l 1,53,54
 656 314 656 314 638.5 251.5 c 128,-1,55
 621 189 621 189 589 140 c 128,-1,56
 557 91 557 91 512.5 58 c 128,-1,57
 468 25 468 25 414 7.5 c 128,-1,58
 360 -10 360 -10 299 -10 c 0,32,33
EndSplineSet
Validated: 5
Substitution2: "'calt' Contextual Alternates in Latin lookup 32 subtable" ampersand.ss11
Substitution2: "'aalt' Access All Alternates in Latin lookup 0 subtable" ampersand.ss11
EndChar

StartChar: paragraph
Encoding: 182 182 421
Width: 666
Flags: W
LayerCount: 2
Fore
SplineSet
311 -130 m 1,0,-1
 311 326 l 1,1,-1
 233 326 l 2,2,3
 176 326 176 326 131 350.5 c 128,-1,4
 86 375 86 375 60 419 c 128,-1,5
 34 463 34 463 34 520 c 0,6,7
 34 579 34 579 60 624 c 128,-1,8
 86 669 86 669 131.5 694.5 c 128,-1,9
 177 720 177 720 236 720 c 2,10,-1
 593 720 l 1,11,-1
 593 -130 l 1,12,-1
 502 -130 l 1,13,-1
 502 642 l 1,14,-1
 402 642 l 1,15,-1
 402 -130 l 1,16,-1
 311 -130 l 1,0,-1
EndSplineSet
Validated: 1
EndChar

StartChar: section
Encoding: 167 167 422
Width: 488
Flags: W
LayerCount: 2
Fore
SplineSet
259 181 m 1,0,-1
 260 248 l 1,1,2
 309 248 309 248 334.5 267.5 c 128,-1,3
 360 287 360 287 360 320 c 0,4,5
 360 350 360 350 342 369 c 128,-1,6
 324 388 324 388 284 399 c 2,7,-1
 197 424 l 2,8,9
 132 441 132 441 98 480.5 c 128,-1,10
 64 520 64 520 64 579 c 0,11,12
 64 647 64 647 114 688.5 c 128,-1,13
 164 730 164 730 250 730 c 256,14,15
 336 730 336 730 388 689.5 c 128,-1,16
 440 649 440 649 446 577 c 1,17,-1
 352 577 l 1,18,19
 347 614 347 614 320 633 c 128,-1,20
 293 652 293 652 247 652 c 0,21,22
 204 652 204 652 181 634.5 c 128,-1,23
 158 617 158 617 158 587 c 0,24,25
 158 559 158 559 175 540.5 c 128,-1,26
 192 522 192 522 234 510 c 2,27,-1
 315 486 l 2,28,29
 383 467 383 467 418.5 426.5 c 128,-1,30
 454 386 454 386 454 325 c 0,31,32
 454 257 454 257 402.5 219 c 128,-1,33
 351 181 351 181 259 181 c 1,0,-1
239 -62 m 0,34,35
 154 -62 154 -62 102 -21.5 c 128,-1,36
 50 19 50 19 43 91 c 1,37,-1
 137 91 l 1,38,39
 142 54 142 54 169 35 c 128,-1,40
 196 16 196 16 242 16 c 0,41,42
 286 16 286 16 309 33.5 c 128,-1,43
 332 51 332 51 332 81 c 0,44,45
 332 109 332 109 315 127.5 c 128,-1,46
 298 146 298 146 255 158 c 2,47,-1
 174 182 l 2,48,49
 106 201 106 201 70.5 241.5 c 128,-1,50
 35 282 35 282 35 342 c 0,51,52
 35 411 35 411 86.5 449 c 128,-1,53
 138 487 138 487 230 487 c 1,54,-1
 229 420 l 1,55,56
 180 420 180 420 154.5 401 c 128,-1,57
 129 382 129 382 129 348 c 0,58,59
 129 318 129 318 147 299.5 c 128,-1,60
 165 281 165 281 206 269 c 2,61,-1
 292 244 l 2,62,63
 357 227 357 227 391 187.5 c 128,-1,64
 425 148 425 148 425 89 c 0,65,66
 425 21 425 21 375 -20.5 c 128,-1,67
 325 -62 325 -62 239 -62 c 0,34,35
EndSplineSet
Validated: 5
EndChar

StartChar: copyright
Encoding: 169 169 423
Width: 835
Flags: W
LayerCount: 2
Fore
SplineSet
418 -15 m 256,0,1
 340 -15 340 -15 272 14 c 128,-1,2
 204 43 204 43 152.5 94.5 c 128,-1,3
 101 146 101 146 72 214 c 128,-1,4
 43 282 43 282 43 360 c 256,5,6
 43 438 43 438 72 506 c 128,-1,7
 101 574 101 574 152.5 625.5 c 128,-1,8
 204 677 204 677 272 706 c 128,-1,9
 340 735 340 735 418 735 c 256,10,11
 496 735 496 735 564 706 c 128,-1,12
 632 677 632 677 683.5 625.5 c 128,-1,13
 735 574 735 574 764 506 c 128,-1,14
 793 438 793 438 793 360 c 256,15,16
 793 282 793 282 764 214 c 128,-1,17
 735 146 735 146 683.5 94.5 c 128,-1,18
 632 43 632 43 564 14 c 128,-1,19
 496 -15 496 -15 418 -15 c 256,0,1
418 32 m 0,20,21
 485 32 485 32 544 57.5 c 128,-1,22
 603 83 603 83 648 128.5 c 128,-1,23
 693 174 693 174 718.5 233.5 c 128,-1,24
 744 293 744 293 744 360 c 256,25,26
 744 427 744 427 718.5 486.5 c 128,-1,27
 693 546 693 546 648 591.5 c 128,-1,28
 603 637 603 637 544 662.5 c 128,-1,29
 485 688 485 688 418 688 c 0,30,31
 350 688 350 688 291 662.5 c 128,-1,32
 232 637 232 637 187 591.5 c 128,-1,33
 142 546 142 546 116.5 486.5 c 128,-1,34
 91 427 91 427 91 360 c 256,35,36
 91 293 91 293 116.5 233.5 c 128,-1,37
 142 174 142 174 187 128.5 c 128,-1,38
 232 83 232 83 291 57.5 c 128,-1,39
 350 32 350 32 418 32 c 0,20,21
422 140 m 0,40,41
 361 140 361 140 314.5 168.5 c 128,-1,42
 268 197 268 197 241.5 247 c 128,-1,43
 215 297 215 297 215 361 c 256,44,45
 215 425 215 425 241 474 c 128,-1,46
 267 523 267 523 314 551.5 c 128,-1,47
 361 580 361 580 421 580 c 0,48,49
 496 580 496 580 546.5 536 c 128,-1,50
 597 492 597 492 607 420 c 1,51,-1
 544 420 l 1,52,53
 537 469 537 469 504 497 c 128,-1,54
 471 525 471 525 422 525 c 0,55,56
 357 525 357 525 318 479.5 c 128,-1,57
 279 434 279 434 279 361 c 0,58,59
 279 287 279 287 318.5 241 c 128,-1,60
 358 195 358 195 422 195 c 0,61,62
 472 195 472 195 504.5 223.5 c 128,-1,63
 537 252 537 252 545 300 c 1,64,-1
 608 300 l 1,65,66
 598 227 598 227 547 183.5 c 128,-1,67
 496 140 496 140 422 140 c 0,40,41
EndSplineSet
Validated: 1
EndChar

StartChar: registered
Encoding: 174 174 424
Width: 835
Flags: W
LayerCount: 2
Fore
SplineSet
418 -15 m 256,0,1
 340 -15 340 -15 272 14 c 128,-1,2
 204 43 204 43 152.5 94.5 c 128,-1,3
 101 146 101 146 72 214 c 128,-1,4
 43 282 43 282 43 360 c 256,5,6
 43 438 43 438 72 506 c 128,-1,7
 101 574 101 574 152.5 625.5 c 128,-1,8
 204 677 204 677 272 706 c 128,-1,9
 340 735 340 735 418 735 c 256,10,11
 496 735 496 735 564 706 c 128,-1,12
 632 677 632 677 683.5 625.5 c 128,-1,13
 735 574 735 574 764 506 c 128,-1,14
 793 438 793 438 793 360 c 256,15,16
 793 282 793 282 764 214 c 128,-1,17
 735 146 735 146 683.5 94.5 c 128,-1,18
 632 43 632 43 564 14 c 128,-1,19
 496 -15 496 -15 418 -15 c 256,0,1
418 32 m 0,20,21
 485 32 485 32 544 57.5 c 128,-1,22
 603 83 603 83 648 128.5 c 128,-1,23
 693 174 693 174 718.5 233.5 c 128,-1,24
 744 293 744 293 744 360 c 256,25,26
 744 427 744 427 718.5 486.5 c 128,-1,27
 693 546 693 546 648 591.5 c 128,-1,28
 603 637 603 637 544 662.5 c 128,-1,29
 485 688 485 688 418 688 c 0,30,31
 350 688 350 688 291 662.5 c 128,-1,32
 232 637 232 637 187 591.5 c 128,-1,33
 142 546 142 546 116.5 486.5 c 128,-1,34
 91 427 91 427 91 360 c 256,35,36
 91 293 91 293 116.5 233.5 c 128,-1,37
 142 174 142 174 187 128.5 c 128,-1,38
 232 83 232 83 291 57.5 c 128,-1,39
 350 32 350 32 418 32 c 0,20,21
269 145 m 1,40,-1
 269 575 l 1,41,-1
 441 575 l 2,42,43
 509 575 509 575 548 543.5 c 128,-1,44
 587 512 587 512 587 457 c 0,45,46
 587 370 587 370 473 345 c 1,47,-1
 477 361 l 1,48,49
 525 363 525 363 552.5 337.5 c 128,-1,50
 580 312 580 312 580 267 c 2,51,-1
 580 196 l 2,52,53
 580 185 580 185 581.5 172.5 c 128,-1,54
 583 160 583 160 585 145 c 1,55,-1
 521 145 l 1,56,57
 519 154 519 154 518 166.5 c 128,-1,58
 517 179 517 179 517 196 c 2,59,-1
 517 252 l 2,60,61
 517 292 517 292 496 312 c 128,-1,62
 475 332 475 332 435 332 c 2,63,-1
 305 332 l 1,64,-1
 305 383 l 1,65,-1
 438 383 l 2,66,67
 479 383 479 383 501.5 401.5 c 128,-1,68
 524 420 524 420 524 453 c 256,69,70
 524 486 524 486 502 503.5 c 128,-1,71
 480 521 480 521 438 521 c 2,72,-1
 333 521 l 1,73,-1
 333 145 l 1,74,-1
 269 145 l 1,40,-1
EndSplineSet
Validated: 37
EndChar

StartChar: trademark
Encoding: 8482 8482 425
Width: 823
Flags: W
LayerCount: 2
Fore
SplineSet
166 360 m 1,0,-1
 166 705 l 1,1,-1
 243 705 l 1,2,-1
 243 360 l 1,3,-1
 166 360 l 1,0,-1
55 656 m 1,4,-1
 55 720 l 1,5,-1
 355 720 l 1,6,-1
 355 656 l 1,7,-1
 55 656 l 1,4,-1
383 360 m 1,8,-1
 383 720 l 1,9,-1
 496 720 l 1,10,-1
 597 374 l 1,11,-1
 553 374 l 1,12,-1
 653 720 l 1,13,-1
 768 720 l 1,14,-1
 768 360 l 1,15,-1
 692 360 l 1,16,-1
 692 695 l 1,17,-1
 705 695 l 1,18,-1
 611 360 l 1,19,-1
 535 360 l 1,20,-1
 443 693 l 1,21,-1
 455 693 l 1,22,-1
 455 360 l 1,23,-1
 383 360 l 1,8,-1
EndSplineSet
Validated: 5
EndChar

StartChar: degree
Encoding: 176 176 426
Width: 379
Flags: W
LayerCount: 2
Fore
SplineSet
191 449 m 0,0,1
 151 449 151 449 118 468.5 c 128,-1,2
 85 488 85 488 66 521 c 128,-1,3
 47 554 47 554 47 593 c 256,4,5
 47 632 47 632 66 664.5 c 128,-1,6
 85 697 85 697 118 716 c 128,-1,7
 151 735 151 735 191 735 c 0,8,9
 232 735 232 735 264 716 c 128,-1,10
 296 697 296 697 314.5 664.5 c 128,-1,11
 333 632 333 632 333 593 c 256,12,13
 333 554 333 554 314.5 521 c 128,-1,14
 296 488 296 488 264 468.5 c 128,-1,15
 232 449 232 449 191 449 c 0,0,1
191 506 m 0,16,17
 226 506 226 506 250 531.5 c 128,-1,18
 274 557 274 557 274 593 c 0,19,20
 274 628 274 628 250 653 c 128,-1,21
 226 678 226 678 191 678 c 0,22,23
 154 678 154 678 129.5 653 c 128,-1,24
 105 628 105 628 105 593 c 0,25,26
 105 557 105 557 129.5 531.5 c 128,-1,27
 154 506 154 506 191 506 c 0,16,17
EndSplineSet
Validated: 1
EndChar

StartChar: bar
Encoding: 124 124 427
Width: 234
Flags: W
LayerCount: 2
Fore
SplineSet
73 -130 m 1,0,-1
 73 790 l 1,1,-1
 161 790 l 1,2,-1
 161 -130 l 1,3,-1
 73 -130 l 1,0,-1
EndSplineSet
Validated: 1
EndChar

StartChar: ampersand.ss11
Encoding: 38 38 428
Width: 725
Flags: W
LayerCount: 2
Fore
SplineSet
252 0 m 2,0,1
 187 0 187 0 138.5 24 c 128,-1,2
 90 48 90 48 62.5 92 c 128,-1,3
 35 136 35 136 35 194 c 0,4,5
 35 251 35 251 60 295 c 128,-1,6
 85 339 85 339 128.5 364.5 c 128,-1,7
 172 390 172 390 228 390 c 1,8,-1
 235 369 l 1,9,10
 187 369 187 369 148.5 391.5 c 128,-1,11
 110 414 110 414 87 454 c 128,-1,12
 64 494 64 494 64 545 c 0,13,14
 64 629 64 629 128 679.5 c 128,-1,15
 192 730 192 730 316 730 c 0,16,17
 351 730 351 730 385.5 725.5 c 128,-1,18
 420 721 420 721 448 712 c 1,19,-1
 448 630 l 1,20,21
 423 638 423 638 389.5 642 c 128,-1,22
 356 646 356 646 324 646 c 0,23,24
 242 646 242 646 205.5 616 c 128,-1,25
 169 586 169 586 169 532 c 0,26,27
 169 477 169 477 203 447 c 128,-1,28
 237 417 237 417 299 417 c 2,29,-1
 701 417 l 1,30,-1
 701 337 l 1,31,-1
 274 337 l 2,32,33
 213 337 213 337 177 301.5 c 128,-1,34
 141 266 141 266 141 205 c 0,35,36
 141 148 141 148 175 114.5 c 128,-1,37
 209 81 209 81 268 81 c 2,38,-1
 517 81 l 1,39,-1
 517 0 l 1,40,-1
 252 0 l 2,0,1
463 0 m 1,41,-1
 463 512 l 5,42,-1
 568 551 l 1,43,-1
 568 0 l 1,44,-1
 463 0 l 1,41,-1
EndSplineSet
Validated: 5
EndChar

StartChar: cent
Encoding: 162 162 429
Width: 524
GlyphClass: 2
Flags: W
AnchorPoint: "Anchor-2" 271 0 basechar 0
AnchorPoint: "Anchor-0" 277 510 basechar 0
LayerCount: 2
Fore
SplineSet
233 482 m 1,0,-1
 233 616 l 1,1,-1
 316 616 l 1,2,-1
 316 482 l 1,3,-1
 233 482 l 1,0,-1
316 20 m 1,4,-1
 316 -109 l 1,5,-1
 233 -109 l 1,6,-1
 233 20 l 1,7,-1
 316 20 l 1,4,-1
275 -10 m 0,8,9
 204 -10 204 -10 149.5 24 c 128,-1,10
 95 58 95 58 64 118 c 128,-1,11
 33 178 33 178 33 256 c 256,12,13
 33 334 33 334 64 393.5 c 128,-1,14
 95 453 95 453 150 486.5 c 128,-1,15
 205 520 205 520 275 520 c 0,16,17
 334 520 334 520 380.5 497 c 128,-1,18
 427 474 427 474 456.5 432.5 c 128,-1,19
 486 391 486 391 494 334 c 1,20,-1
 398 334 l 1,21,22
 389 381 389 381 357.5 408.5 c 128,-1,23
 326 436 326 436 277 436 c 0,24,25
 234 436 234 436 203 414.5 c 128,-1,26
 172 393 172 393 155 352.5 c 128,-1,27
 138 312 138 312 138 256 c 0,28,29
 138 201 138 201 155 159.5 c 128,-1,30
 172 118 172 118 203.5 96 c 128,-1,31
 235 74 235 74 277 74 c 0,32,33
 325 74 325 74 357.5 101 c 128,-1,34
 390 128 390 128 399 175 c 1,35,-1
 495 175 l 1,36,37
 486 120 486 120 455.5 78 c 128,-1,38
 425 36 425 36 379 13 c 128,-1,39
 333 -10 333 -10 275 -10 c 0,8,9
EndSplineSet
Validated: 5
Substitution2: "'ss12' Style Set 12 in Latin lookup 33 subtable" cent.ss12
Substitution2: "'aalt' Access All Alternates in Latin lookup 0 subtable" cent.ss12
EndChar

StartChar: dollar
Encoding: 36 36 430
Width: 597
GlyphClass: 2
Flags: W
AnchorPoint: "Anchor-2" 311 0 basechar 0
AnchorPoint: "Anchor-0" 308 720 basechar 0
LayerCount: 2
Fore
SplineSet
265 696 m 1,0,-1
 265 830 l 1,1,-1
 349 830 l 1,2,-1
 349 696 l 1,3,-1
 265 696 l 1,0,-1
349 20 m 1,4,-1
 349 -109 l 1,5,-1
 265 -109 l 1,6,-1
 265 20 l 1,7,-1
 349 20 l 1,4,-1
321 -9 m 0,8,9
 195 -9 195 -9 121 53.5 c 128,-1,10
 47 116 47 116 35 230 c 1,11,-1
 136 230 l 1,12,13
 145 155 145 155 193 115.5 c 128,-1,14
 241 76 241 76 323 76 c 0,15,16
 392 76 392 76 427.5 102.5 c 128,-1,17
 463 129 463 129 463 179 c 0,18,19
 463 223 463 223 439 250 c 128,-1,20
 415 277 415 277 363 296 c 2,21,-1
 243 340 l 2,22,23
 153 372 153 372 110 419.5 c 128,-1,24
 67 467 67 467 67 537 c 0,25,26
 67 596 67 596 96.5 639.5 c 128,-1,27
 126 683 126 683 179.5 707 c 128,-1,28
 233 731 233 731 304 731 c 0,29,30
 414 731 414 731 479.5 673.5 c 128,-1,31
 545 616 545 616 554 514 c 1,32,-1
 453 514 l 1,33,34
 443 582 443 582 405 614 c 128,-1,35
 367 646 367 646 300 646 c 0,36,37
 238 646 238 646 203 620.5 c 128,-1,38
 168 595 168 595 168 549 c 0,39,40
 168 510 168 510 191.5 484.5 c 128,-1,41
 215 459 215 459 270 439 c 2,42,-1
 395 393 l 2,43,44
 482 363 482 363 523 313 c 128,-1,45
 564 263 564 263 564 189 c 0,46,47
 564 94 564 94 500 42.5 c 128,-1,48
 436 -9 436 -9 321 -9 c 0,8,9
EndSplineSet
Validated: 5
Substitution2: "'ss12' Style Set 12 in Latin lookup 33 subtable" dollar.ss12
Substitution2: "'aalt' Access All Alternates in Latin lookup 0 subtable" dollar.ss12
EndChar

StartChar: Euro
Encoding: 8364 8364 431
Width: 680
Flags: W
LayerCount: 2
Fore
SplineSet
386 -10 m 0,0,1
 319 -10 319 -10 263.5 17 c 128,-1,2
 208 44 208 44 167 93.5 c 128,-1,3
 126 143 126 143 103.5 211 c 128,-1,4
 81 279 81 279 81 361 c 256,5,6
 81 443 81 443 103.5 510.5 c 128,-1,7
 126 578 126 578 166.5 627 c 128,-1,8
 207 676 207 676 262.5 703 c 128,-1,9
 318 730 318 730 385 730 c 0,10,11
 450 730 450 730 503 707 c 128,-1,12
 556 684 556 684 592 640.5 c 128,-1,13
 628 597 628 597 641 538 c 1,14,-1
 533 538 l 1,15,16
 522 588 522 588 483 615 c 128,-1,17
 444 642 444 642 386 642 c 0,18,19
 327 642 327 642 282 607.5 c 128,-1,20
 237 573 237 573 212 510 c 128,-1,21
 187 447 187 447 187 362 c 0,22,23
 187 275 187 275 212.5 211.5 c 128,-1,24
 238 148 238 148 282.5 113 c 128,-1,25
 327 78 327 78 386 78 c 0,26,27
 444 78 444 78 483 105 c 128,-1,28
 522 132 522 132 534 182 c 1,29,-1
 642 182 l 1,30,31
 629 122 629 122 593 79 c 128,-1,32
 557 36 557 36 504.5 13 c 128,-1,33
 452 -10 452 -10 386 -10 c 0,0,1
0 395 m 1,34,-1
 14 472 l 1,35,-1
 483 472 l 1,36,-1
 469 395 l 1,37,-1
 0 395 l 1,34,-1
0 250 m 1,38,-1
 14 327 l 1,39,-1
 458 327 l 1,40,-1
 444 250 l 1,41,-1
 0 250 l 1,38,-1
EndSplineSet
Validated: 5
EndChar

StartChar: sterling
Encoding: 163 163 432
Width: 573
Flags: W
LayerCount: 2
Fore
SplineSet
47 0 m 1,0,-1
 47 87 l 1,1,2
 91 152 91 152 108 198 c 128,-1,3
 125 244 125 244 125 279 c 256,4,5
 125 314 125 314 114 342 c 128,-1,6
 103 370 103 370 88.5 397 c 128,-1,7
 74 424 74 424 62.5 455 c 128,-1,8
 51 486 51 486 51 528 c 0,9,10
 51 588 51 588 78.5 633.5 c 128,-1,11
 106 679 106 679 158 704.5 c 128,-1,12
 210 730 210 730 284 730 c 256,13,14
 358 730 358 730 411 704 c 128,-1,15
 464 678 464 678 495 631.5 c 128,-1,16
 526 585 526 585 531 523 c 1,17,-1
 431 523 l 1,18,19
 423 583 423 583 386.5 613.5 c 128,-1,20
 350 644 350 644 289 644 c 0,21,22
 223 644 223 644 189 612 c 128,-1,23
 155 580 155 580 155 526 c 0,24,25
 155 494 155 494 165.5 466 c 128,-1,26
 176 438 176 438 190 411 c 128,-1,27
 204 384 204 384 214 353.5 c 128,-1,28
 224 323 224 323 224 287 c 0,29,30
 224 243 224 243 202.5 186.5 c 128,-1,31
 181 130 181 130 122 53 c 1,32,-1
 115 89 l 1,33,-1
 509 89 l 1,34,-1
 509 0 l 1,35,-1
 47 0 l 1,0,-1
17 299 m 1,36,-1
 17 385 l 1,37,-1
 436 385 l 1,38,-1
 436 299 l 1,39,-1
 17 299 l 1,36,-1
EndSplineSet
Validated: 5
EndChar

StartChar: yen
Encoding: 165 165 433
Width: 603
Flags: W
LayerCount: 2
Fore
SplineSet
249 0 m 1,0,-1
 249 315 l 1,1,-1
 19 720 l 1,2,-1
 144 720 l 1,3,-1
 338 353 l 1,4,-1
 276 353 l 1,5,-1
 470 720 l 1,6,-1
 585 720 l 1,7,-1
 354 315 l 1,8,-1
 354 0 l 1,9,-1
 249 0 l 1,0,-1
46 250 m 1,10,-1
 46 327 l 1,11,-1
 558 327 l 1,12,-1
 558 250 l 1,13,-1
 46 250 l 1,10,-1
259 395 m 1,14,-1
 46 395 l 1,15,-1
 46 472 l 1,16,-1
 221 472 l 1,17,-1
 259 395 l 1,14,-1
402 472 m 1,18,-1
 558 472 l 1,19,-1
 558 395 l 1,20,-1
 358 395 l 1,21,-1
 402 472 l 1,18,-1
EndSplineSet
Validated: 5
EndChar

StartChar: cent.ss12
Encoding: 65676 -1 434
Width: 524
Flags: W
LayerCount: 2
Fore
SplineSet
275 -10 m 0,0,1
 204 -10 204 -10 149.5 24 c 128,-1,2
 95 58 95 58 64 118 c 128,-1,3
 33 178 33 178 33 256 c 256,4,5
 33 334 33 334 64 393.5 c 128,-1,6
 95 453 95 453 150 486.5 c 128,-1,7
 205 520 205 520 275 520 c 0,8,9
 334 520 334 520 380.5 497 c 128,-1,10
 427 474 427 474 456.5 432.5 c 128,-1,11
 486 391 486 391 494 334 c 1,12,-1
 402 334 l 1,13,14
 393 384 393 384 361 412.5 c 128,-1,15
 329 441 329 441 277 441 c 0,16,17
 210 441 210 441 171.5 392 c 128,-1,18
 133 343 133 343 133 256 c 0,19,20
 133 170 133 170 171.5 119.5 c 128,-1,21
 210 69 210 69 277 69 c 0,22,23
 328 69 328 69 361 97.5 c 128,-1,24
 394 126 394 126 403 175 c 1,25,-1
 495 175 l 1,26,27
 486 120 486 120 455.5 78 c 128,-1,28
 425 36 425 36 379 13 c 128,-1,29
 333 -10 333 -10 275 -10 c 0,0,1
233 -109 m 1,30,-1
 233 23 l 1,31,-1
 235 46 l 1,32,-1
 235 465 l 1,33,-1
 233 491 l 1,34,-1
 233 616 l 1,35,-1
 316 616 l 1,36,-1
 316 488 l 1,37,-1
 314 465 l 1,38,-1
 314 48 l 1,39,-1
 316 27 l 1,40,-1
 316 -109 l 1,41,-1
 233 -109 l 1,30,-1
EndSplineSet
Validated: 5
EndChar

StartChar: dollar.ss12
Encoding: 65677 -1 435
Width: 597
Flags: W
LayerCount: 2
Fore
SplineSet
321 -9 m 0,0,1
 195 -9 195 -9 121 53.5 c 128,-1,2
 47 116 47 116 35 230 c 1,3,-1
 135 230 l 1,4,5
 143 155 143 155 191.5 115 c 128,-1,6
 240 75 240 75 323 75 c 0,7,8
 392 75 392 75 428 102 c 128,-1,9
 464 129 464 129 464 179 c 0,10,11
 464 223 464 223 440 250 c 128,-1,12
 416 277 416 277 363 296 c 2,13,-1
 242 340 l 2,14,15
 152 372 152 372 109.5 419.5 c 128,-1,16
 67 467 67 467 67 537 c 0,17,18
 67 596 67 596 96.5 639.5 c 128,-1,19
 126 683 126 683 179 707 c 128,-1,20
 232 731 232 731 304 731 c 0,21,22
 414 731 414 731 479.5 673.5 c 128,-1,23
 545 616 545 616 554 514 c 1,24,-1
 454 514 l 1,25,26
 443 583 443 583 405.5 615 c 128,-1,27
 368 647 368 647 300 647 c 0,28,29
 237 647 237 647 202 621.5 c 128,-1,30
 167 596 167 596 167 549 c 0,31,32
 167 511 167 511 190.5 485 c 128,-1,33
 214 459 214 459 270 439 c 2,34,-1
 395 393 l 2,35,36
 481 363 481 363 522.5 313 c 128,-1,37
 564 263 564 263 564 189 c 0,38,39
 564 94 564 94 500 42.5 c 128,-1,40
 436 -9 436 -9 321 -9 c 0,0,1
266 -109 m 1,41,-1
 266 23 l 1,42,-1
 268 46 l 1,43,-1
 268 679 l 1,44,-1
 266 705 l 1,45,-1
 266 830 l 1,46,-1
 349 830 l 1,47,-1
 349 702 l 1,48,-1
 346 679 l 1,49,-1
 346 48 l 1,50,-1
 349 27 l 1,51,-1
 349 -109 l 1,52,-1
 266 -109 l 1,41,-1
EndSplineSet
Validated: 5
EndChar

StartChar: plus
Encoding: 43 43 436
Width: 538
Flags: W
LayerCount: 2
Fore
SplineSet
228 146 m 1,0,-1
 228 597 l 1,1,-1
 311 597 l 1,2,-1
 311 146 l 1,3,-1
 228 146 l 1,0,-1
57 331 m 1,4,-1
 57 411 l 1,5,-1
 481 411 l 1,6,-1
 481 331 l 1,7,-1
 57 331 l 1,4,-1
EndSplineSet
Validated: 5
Substitution2: "'tnum' Tabular Numbers in Latin lookup 19 subtable" plus.tf
Substitution2: "'aalt' Access All Alternates in Latin lookup 0 subtable" plus.tf
EndChar

StartChar: minus
Encoding: 8722 8722 437
Width: 538
Flags: W
LayerCount: 2
Fore
SplineSet
57 331 m 1,0,-1
 57 411 l 1,1,-1
 481 411 l 1,2,-1
 481 331 l 1,3,-1
 57 331 l 1,0,-1
EndSplineSet
Validated: 1
Substitution2: "'tnum' Tabular Numbers in Latin lookup 19 subtable" minus.tf
Substitution2: "'aalt' Access All Alternates in Latin lookup 0 subtable" minus.tf
EndChar

StartChar: multiply
Encoding: 215 215 438
Width: 538
Flags: W
LayerCount: 2
Fore
SplineSet
419 164 m 1,0,-1
 61 522 l 1,1,-1
 119 579 l 1,2,-1
 477 221 l 1,3,-1
 419 164 l 1,0,-1
119 164 m 1,4,-1
 61 221 l 1,5,-1
 419 579 l 1,6,-1
 477 522 l 1,7,-1
 119 164 l 1,4,-1
EndSplineSet
Validated: 5
Substitution2: "'tnum' Tabular Numbers in Latin lookup 19 subtable" multiply.tf
Substitution2: "'aalt' Access All Alternates in Latin lookup 0 subtable" multiply.tf
EndChar

StartChar: divide
Encoding: 247 247 439
Width: 538
Flags: W
LayerCount: 2
Fore
SplineSet
57 331 m 1,0,-1
 57 411 l 1,1,-1
 481 411 l 1,2,-1
 481 331 l 1,3,-1
 57 331 l 1,0,-1
269 480 m 0,4,5
 242 480 242 480 224 497.5 c 128,-1,6
 206 515 206 515 206 543 c 0,7,8
 206 570 206 570 224 587.5 c 128,-1,9
 242 605 242 605 269 605 c 0,10,11
 294 605 294 605 312.5 587.5 c 128,-1,12
 331 570 331 570 331 543 c 0,13,14
 331 515 331 515 312.5 497.5 c 128,-1,15
 294 480 294 480 269 480 c 0,4,5
269 137 m 0,16,17
 242 137 242 137 224 154.5 c 128,-1,18
 206 172 206 172 206 200 c 0,19,20
 206 227 206 227 224 244.5 c 128,-1,21
 242 262 242 262 269 262 c 0,22,23
 294 262 294 262 312.5 245 c 128,-1,24
 331 228 331 228 331 200 c 256,25,26
 331 172 331 172 312.5 154.5 c 128,-1,27
 294 137 294 137 269 137 c 0,16,17
EndSplineSet
Validated: 1
Substitution2: "'tnum' Tabular Numbers in Latin lookup 19 subtable" divide.tf
Substitution2: "'aalt' Access All Alternates in Latin lookup 0 subtable" divide.tf
EndChar

StartChar: equal
Encoding: 61 61 440
Width: 538
Flags: W
LayerCount: 2
Fore
SplineSet
57 431 m 1,0,-1
 57 511 l 1,1,-1
 481 511 l 1,2,-1
 481 431 l 1,3,-1
 57 431 l 1,0,-1
57 231 m 1,4,-1
 57 311 l 1,5,-1
 481 311 l 1,6,-1
 481 231 l 1,7,-1
 57 231 l 1,4,-1
EndSplineSet
Validated: 1
Substitution2: "'tnum' Tabular Numbers in Latin lookup 19 subtable" equal.tf
Substitution2: "'aalt' Access All Alternates in Latin lookup 0 subtable" equal.tf
EndChar

StartChar: greater
Encoding: 62 62 441
Width: 538
Flags: W
LayerCount: 2
Fore
SplineSet
57 170 m 1,0,-1
 57 255 l 1,1,-1
 410 383 l 1,2,-1
 410 359 l 1,3,-1
 57 480 l 1,4,-1
 57 565 l 1,5,-1
 481 415 l 1,6,-1
 481 327 l 1,7,-1
 57 170 l 1,0,-1
EndSplineSet
Validated: 5
Substitution2: "'tnum' Tabular Numbers in Latin lookup 19 subtable" greater.tf
Substitution2: "'aalt' Access All Alternates in Latin lookup 0 subtable" greater.tf
EndChar

StartChar: less
Encoding: 60 60 442
Width: 538
Flags: W
LayerCount: 2
Fore
SplineSet
481 572 m 1,0,-1
 481 487 l 1,1,-1
 128 359 l 1,2,-1
 128 383 l 1,3,-1
 481 262 l 1,4,-1
 481 177 l 1,5,-1
 57 327 l 1,6,-1
 57 415 l 1,7,-1
 481 572 l 1,0,-1
EndSplineSet
Validated: 5
Substitution2: "'tnum' Tabular Numbers in Latin lookup 19 subtable" less.tf
Substitution2: "'aalt' Access All Alternates in Latin lookup 0 subtable" less.tf
EndChar

StartChar: asciitilde
Encoding: 126 126 443
Width: 538
Flags: W
LayerCount: 2
Fore
SplineSet
383 287 m 256,0,1
 421 287 421 287 450 301.5 c 128,-1,2
 479 316 479 316 497 345 c 128,-1,3
 515 374 515 374 519 418 c 1,4,-1
 451 418 l 1,5,6
 446 391 446 391 429 378.5 c 128,-1,7
 412 366 412 366 386 366 c 256,8,9
 360 366 360 366 334.5 375 c 128,-1,10
 309 384 309 384 281.5 396.5 c 128,-1,11
 254 409 254 409 222.5 418.5 c 128,-1,12
 191 428 191 428 155 428 c 0,13,14
 117 428 117 428 88 413.5 c 128,-1,15
 59 399 59 399 41.5 370 c 128,-1,16
 24 341 24 341 19 297 c 1,17,-1
 87 297 l 1,18,19
 93 324 93 324 109.5 336.5 c 128,-1,20
 126 349 126 349 152 349 c 0,21,22
 179 349 179 349 204.5 340 c 128,-1,23
 230 331 230 331 256.5 318.5 c 128,-1,24
 283 306 283 306 314 296.5 c 128,-1,25
 345 287 345 287 383 287 c 256,0,1
EndSplineSet
Validated: 9
EndChar

StartChar: asciicircum
Encoding: 94 94 444
Width: 538
Flags: W
LayerCount: 2
Fore
SplineSet
153 491 m 1,0,-1
 74 491 l 1,1,-1
 224 740 l 1,2,-1
 314 740 l 1,3,-1
 463 491 l 1,4,-1
 385 491 l 1,5,-1
 242 699 l 1,6,-1
 296 699 l 1,7,-1
 153 491 l 1,0,-1
EndSplineSet
Validated: 5
EndChar

StartChar: percent
Encoding: 37 37 445
Width: 765
Flags: W
LayerCount: 2
Fore
SplineSet
77 0 m 1,0,-1
 601 720 l 1,1,-1
 693 720 l 1,2,-1
 169 0 l 1,3,-1
 77 0 l 1,0,-1
571 -10 m 0,4,5
 530 -10 530 -10 494 10 c 128,-1,6
 458 30 458 30 435.5 70.5 c 128,-1,7
 413 111 413 111 413 174 c 0,8,9
 413 236 413 236 435 276.5 c 128,-1,10
 457 317 457 317 493 337 c 128,-1,11
 529 357 529 357 571 357 c 0,12,13
 615 357 615 357 651.5 337 c 128,-1,14
 688 317 688 317 709.5 276.5 c 128,-1,15
 731 236 731 236 731 174 c 0,16,17
 731 111 731 111 708.5 70.5 c 128,-1,18
 686 30 686 30 649.5 10 c 128,-1,19
 613 -10 613 -10 571 -10 c 0,4,5
571 55 m 256,20,21
 608 55 608 55 631.5 86 c 128,-1,22
 655 117 655 117 655 175 c 0,23,24
 655 231 655 231 631.5 261 c 128,-1,25
 608 291 608 291 571 291 c 256,26,27
 534 291 534 291 511.5 261.5 c 128,-1,28
 489 232 489 232 489 175 c 0,29,30
 489 116 489 116 511.5 85.5 c 128,-1,31
 534 55 534 55 571 55 c 256,20,21
193 364 m 256,32,33
 151 364 151 364 114.5 383.5 c 128,-1,34
 78 403 78 403 56.5 444 c 128,-1,35
 35 485 35 485 35 547 c 0,36,37
 35 610 35 610 56.5 650 c 128,-1,38
 78 690 78 690 114 710 c 128,-1,39
 150 730 150 730 193 730 c 0,40,41
 237 730 237 730 273 710 c 128,-1,42
 309 690 309 690 330.5 650 c 128,-1,43
 352 610 352 610 352 547 c 0,44,45
 352 485 352 485 329.5 444 c 128,-1,46
 307 403 307 403 271 383.5 c 128,-1,47
 235 364 235 364 193 364 c 256,32,33
193 429 m 0,48,49
 229 429 229 429 252.5 459.5 c 128,-1,50
 276 490 276 490 276 548 c 0,51,52
 276 605 276 605 253 635 c 128,-1,53
 230 665 230 665 193 665 c 256,54,55
 156 665 156 665 133 635.5 c 128,-1,56
 110 606 110 606 110 548 c 256,57,58
 110 490 110 490 133 459.5 c 128,-1,59
 156 429 156 429 193 429 c 0,48,49
EndSplineSet
Validated: 1
Substitution2: "'tnum' Tabular Numbers in Latin lookup 19 subtable" percent.tf
Substitution2: "'aalt' Access All Alternates in Latin lookup 0 subtable" percent.tf
EndChar

StartChar: perthousand
Encoding: 8240 8240 446
Width: 826
Flags: W
LayerCount: 2
Fore
SplineSet
169 364 m 256,0,1
 132 364 132 364 100 383.5 c 128,-1,2
 68 403 68 403 49 444 c 128,-1,3
 30 485 30 485 30 547 c 0,4,5
 30 610 30 610 49 650 c 128,-1,6
 68 690 68 690 99.5 710 c 128,-1,7
 131 730 131 730 169 730 c 0,8,9
 227 730 227 730 268 685.5 c 128,-1,10
 309 641 309 641 309 547 c 0,11,12
 309 485 309 485 289 444 c 128,-1,13
 269 403 269 403 237.5 383.5 c 128,-1,14
 206 364 206 364 169 364 c 256,0,1
169 425 m 0,15,16
 199 425 199 425 219.5 456.5 c 128,-1,17
 240 488 240 488 240 548 c 0,18,19
 240 607 240 607 220 637.5 c 128,-1,20
 200 668 200 668 169 668 c 0,21,22
 137 668 137 668 118 637.5 c 128,-1,23
 99 607 99 607 99 548 c 0,24,25
 99 488 99 488 118 456.5 c 128,-1,26
 137 425 137 425 169 425 c 0,15,16
64 0 m 1,27,-1
 512 720 l 1,28,-1
 595 720 l 1,29,-1
 149 0 l 1,30,-1
 64 0 l 1,27,-1
480 -10 m 0,31,32
 448 -10 448 -10 418 10 c 128,-1,33
 388 30 388 30 369 71 c 128,-1,34
 350 112 350 112 350 174 c 256,35,36
 350 236 350 236 369 276 c 128,-1,37
 388 316 388 316 417.5 336.5 c 128,-1,38
 447 357 447 357 480 357 c 0,39,40
 532 357 532 357 565.5 312.5 c 128,-1,41
 599 268 599 268 599 174 c 0,42,43
 599 79 599 79 564.5 34.5 c 128,-1,44
 530 -10 530 -10 480 -10 c 0,31,32
480 52 m 0,45,46
 507 52 507 52 525 83.5 c 128,-1,47
 543 115 543 115 543 175 c 0,48,49
 543 233 543 233 525.5 264 c 128,-1,50
 508 295 508 295 480 295 c 256,51,52
 452 295 452 295 435.5 264.5 c 128,-1,53
 419 234 419 234 419 175 c 0,54,55
 419 115 419 115 435.5 83.5 c 128,-1,56
 452 52 452 52 480 52 c 0,45,46
665 52 m 0,57,58
 693 52 693 52 710 83.5 c 128,-1,59
 727 115 727 115 727 175 c 0,60,61
 727 234 727 234 710 264.5 c 128,-1,62
 693 295 693 295 665 295 c 0,63,64
 638 295 638 295 620.5 264 c 128,-1,65
 603 233 603 233 603 175 c 0,66,67
 603 115 603 115 621 83.5 c 128,-1,68
 639 52 639 52 665 52 c 0,57,58
665 -10 m 0,69,70
 616 -10 616 -10 582 34.5 c 128,-1,71
 548 79 548 79 548 174 c 0,72,73
 548 268 548 268 581.5 312.5 c 128,-1,74
 615 357 615 357 665 357 c 0,75,76
 699 357 699 357 728.5 336.5 c 128,-1,77
 758 316 758 316 777 276 c 128,-1,78
 796 236 796 236 796 174 c 256,79,80
 796 112 796 112 777 71 c 128,-1,81
 758 30 758 30 728.5 10 c 128,-1,82
 699 -10 699 -10 665 -10 c 0,69,70
EndSplineSet
Validated: 5
Substitution2: "'tnum' Tabular Numbers in Latin lookup 19 subtable" perthousand.tf
Substitution2: "'aalt' Access All Alternates in Latin lookup 0 subtable" perthousand.tf
EndChar

StartChar: plus.tf
Encoding: 65678 -1 447
Width: 588
Flags: W
LayerCount: 2
Fore
SplineSet
253 146 m 1,0,-1
 253 597 l 1,1,-1
 336 597 l 1,2,-1
 336 146 l 1,3,-1
 253 146 l 1,0,-1
70 331 m 1,4,-1
 70 411 l 1,5,-1
 517 411 l 1,6,-1
 517 331 l 1,7,-1
 70 331 l 1,4,-1
EndSplineSet
Validated: 5
Substitution2: "'pnum' Proportional Numbers in Latin lookup 18 subtable" plus
Substitution2: "'aalt' Access All Alternates in Latin lookup 0 subtable" plus
EndChar

StartChar: minus.tf
Encoding: 65679 -1 448
Width: 588
Flags: W
LayerCount: 2
Fore
SplineSet
70 331 m 1,0,-1
 70 411 l 1,1,-1
 517 411 l 1,2,-1
 517 331 l 1,3,-1
 70 331 l 1,0,-1
EndSplineSet
Validated: 1
Substitution2: "'pnum' Proportional Numbers in Latin lookup 18 subtable" minus
Substitution2: "'aalt' Access All Alternates in Latin lookup 0 subtable" minus
EndChar

StartChar: multiply.tf
Encoding: 65680 -1 449
Width: 588
Flags: W
LayerCount: 2
Fore
SplineSet
458 164 m 1,0,-1
 72 522 l 1,1,-1
 128 579 l 1,2,-1
 515 221 l 1,3,-1
 458 164 l 1,0,-1
128 164 m 1,4,-1
 72 221 l 1,5,-1
 458 579 l 1,6,-1
 515 522 l 1,7,-1
 128 164 l 1,4,-1
EndSplineSet
Validated: 5
Substitution2: "'pnum' Proportional Numbers in Latin lookup 18 subtable" multiply
Substitution2: "'aalt' Access All Alternates in Latin lookup 0 subtable" multiply
EndChar

StartChar: divide.tf
Encoding: 65681 -1 450
Width: 588
Flags: W
LayerCount: 2
Fore
SplineSet
70 331 m 1,0,-1
 70 411 l 1,1,-1
 517 411 l 1,2,-1
 517 331 l 1,3,-1
 70 331 l 1,0,-1
295 480 m 0,4,5
 267 480 267 480 248.5 497.5 c 128,-1,6
 230 515 230 515 230 543 c 0,7,8
 230 570 230 570 248.5 587.5 c 128,-1,9
 267 605 267 605 295 605 c 0,10,11
 319 605 319 605 338.5 587.5 c 128,-1,12
 358 570 358 570 358 543 c 0,13,14
 358 515 358 515 338.5 497.5 c 128,-1,15
 319 480 319 480 295 480 c 0,4,5
295 137 m 0,16,17
 267 137 267 137 248.5 154.5 c 128,-1,18
 230 172 230 172 230 200 c 0,19,20
 230 227 230 227 248.5 244.5 c 128,-1,21
 267 262 267 262 295 262 c 0,22,23
 319 262 319 262 338.5 245 c 128,-1,24
 358 228 358 228 358 200 c 256,25,26
 358 172 358 172 338.5 154.5 c 128,-1,27
 319 137 319 137 295 137 c 0,16,17
EndSplineSet
Validated: 1
Substitution2: "'pnum' Proportional Numbers in Latin lookup 18 subtable" divide
Substitution2: "'aalt' Access All Alternates in Latin lookup 0 subtable" divide
EndChar

StartChar: equal.tf
Encoding: 65682 -1 451
Width: 588
Flags: W
LayerCount: 2
Fore
SplineSet
70 431 m 1,0,-1
 70 511 l 1,1,-1
 518 511 l 1,2,-1
 518 431 l 1,3,-1
 70 431 l 1,0,-1
70 231 m 1,4,-1
 70 311 l 1,5,-1
 518 311 l 1,6,-1
 518 231 l 1,7,-1
 70 231 l 1,4,-1
EndSplineSet
Validated: 1
Substitution2: "'pnum' Proportional Numbers in Latin lookup 18 subtable" equal
Substitution2: "'aalt' Access All Alternates in Latin lookup 0 subtable" equal
EndChar

StartChar: greater.tf
Encoding: 65683 -1 452
Width: 588
Flags: W
LayerCount: 2
Fore
SplineSet
73 170 m 1,0,-1
 73 255 l 1,1,-1
 441 383 l 1,2,-1
 441 359 l 1,3,-1
 73 480 l 1,4,-1
 73 565 l 1,5,-1
 520 415 l 1,6,-1
 520 327 l 1,7,-1
 73 170 l 1,0,-1
EndSplineSet
Validated: 5
Substitution2: "'pnum' Proportional Numbers in Latin lookup 18 subtable" greater
Substitution2: "'aalt' Access All Alternates in Latin lookup 0 subtable" greater
EndChar

StartChar: less.tf
Encoding: 65684 -1 453
Width: 588
Flags: W
LayerCount: 2
Fore
SplineSet
481 572 m 1,0,-1
 481 487 l 1,1,-1
 128 359 l 1,2,-1
 128 383 l 1,3,-1
 481 262 l 1,4,-1
 481 177 l 1,5,-1
 57 327 l 1,6,-1
 57 415 l 1,7,-1
 481 572 l 1,0,-1
EndSplineSet
Validated: 5
Substitution2: "'pnum' Proportional Numbers in Latin lookup 18 subtable" less
Substitution2: "'aalt' Access All Alternates in Latin lookup 0 subtable" less
EndChar

StartChar: percent.tf
Encoding: 65685 -1 454
Width: 588
Flags: W
LayerCount: 2
Fore
SplineSet
33 0 m 1,0,-1
 479 720 l 1,1,-1
 558 720 l 1,2,-1
 112 0 l 1,3,-1
 33 0 l 1,0,-1
431 -10 m 256,4,5
 396 -10 396 -10 366 10 c 128,-1,6
 336 30 336 30 317 71 c 128,-1,7
 298 112 298 112 298 173 c 256,8,9
 298 234 298 234 317 274 c 128,-1,10
 336 314 336 314 366 334 c 128,-1,11
 396 354 396 354 431 354 c 0,12,13
 467 354 467 354 497.5 334 c 128,-1,14
 528 314 528 314 546.5 274 c 128,-1,15
 565 234 565 234 565 173 c 256,16,17
 565 112 565 112 546 71 c 128,-1,18
 527 30 527 30 496.5 10 c 128,-1,19
 466 -10 466 -10 431 -10 c 256,4,5
431 51 m 0,20,21
 453 51 453 51 471 79 c 128,-1,22
 489 107 489 107 489 174 c 0,23,24
 489 239 489 239 472 266 c 128,-1,25
 455 293 455 293 431 293 c 0,26,27
 408 293 408 293 391 266.5 c 128,-1,28
 374 240 374 240 374 173 c 0,29,30
 374 107 374 107 391 79 c 128,-1,31
 408 51 408 51 431 51 c 0,20,21
156 366 m 0,32,33
 121 366 121 366 90.5 386 c 128,-1,34
 60 406 60 406 41 447 c 128,-1,35
 22 488 22 488 22 549 c 256,36,37
 22 610 22 610 41 650 c 128,-1,38
 60 690 60 690 90.5 710 c 128,-1,39
 121 730 121 730 156 730 c 256,40,41
 191 730 191 730 222 710 c 128,-1,42
 253 690 253 690 271.5 650 c 128,-1,43
 290 610 290 610 290 549 c 0,44,45
 290 487 290 487 271 446.5 c 128,-1,46
 252 406 252 406 221 386 c 128,-1,47
 190 366 190 366 156 366 c 0,32,33
155 427 m 256,48,49
 178 427 178 427 196 455 c 128,-1,50
 214 483 214 483 214 550 c 0,51,52
 214 615 214 615 196.5 642 c 128,-1,53
 179 669 179 669 156 669 c 0,54,55
 132 669 132 669 115 642.5 c 128,-1,56
 98 616 98 616 98 549 c 0,57,58
 98 483 98 483 115 455 c 128,-1,59
 132 427 132 427 155 427 c 256,48,49
EndSplineSet
Validated: 1
Substitution2: "'pnum' Proportional Numbers in Latin lookup 18 subtable" percent
Substitution2: "'aalt' Access All Alternates in Latin lookup 0 subtable" percent
EndChar

StartChar: perthousand.tf
Encoding: 65686 -1 455
Width: 588
Flags: W
LayerCount: 2
Fore
SplineSet
57 280 m 1,0,-1
 37 343 l 1,1,-1
 519 494 l 1,2,-1
 539 431 l 1,3,-1
 57 280 l 1,0,-1
257 -10 m 0,4,5
 208 -10 208 -10 174.5 32 c 128,-1,6
 141 74 141 74 141 148 c 0,7,8
 141 223 141 223 174 264 c 128,-1,9
 207 305 207 305 257 305 c 0,10,11
 306 305 306 305 339.5 263.5 c 128,-1,12
 373 222 373 222 373 148 c 0,13,14
 373 75 373 75 338.5 32.5 c 128,-1,15
 304 -10 304 -10 257 -10 c 0,4,5
257 47 m 0,16,17
 279 47 279 47 294 75 c 128,-1,18
 309 103 309 103 309 149 c 0,19,20
 309 194 309 194 294.5 221 c 128,-1,21
 280 248 280 248 257 248 c 0,22,23
 232 248 232 248 218.5 221 c 128,-1,24
 205 194 205 194 205 149 c 0,25,26
 205 103 205 103 218.5 75 c 128,-1,27
 232 47 232 47 257 47 c 0,16,17
437 -10 m 256,28,29
 389 -10 389 -10 355.5 32.5 c 128,-1,30
 322 75 322 75 322 148 c 0,31,32
 322 222 322 222 355 263.5 c 128,-1,33
 388 305 388 305 437 305 c 0,34,35
 487 305 487 305 520.5 264 c 128,-1,36
 554 223 554 223 554 148 c 0,37,38
 554 74 554 74 519.5 32 c 128,-1,39
 485 -10 485 -10 437 -10 c 256,28,29
437 47 m 0,40,41
 459 47 459 47 474 75 c 128,-1,42
 489 103 489 103 489 149 c 256,43,44
 489 195 489 195 474.5 221.5 c 128,-1,45
 460 248 460 248 437 248 c 0,46,47
 413 248 413 248 399 221 c 128,-1,48
 385 194 385 194 385 149 c 0,49,50
 385 103 385 103 399 75 c 128,-1,51
 413 47 413 47 437 47 c 0,40,41
151 414 m 0,52,53
 102 414 102 414 68.5 456 c 128,-1,54
 35 498 35 498 35 572 c 0,55,56
 35 647 35 647 68.5 688.5 c 128,-1,57
 102 730 102 730 151 730 c 256,58,59
 200 730 200 730 234 689 c 128,-1,60
 268 648 268 648 268 572 c 0,61,62
 268 498 268 498 233.5 456 c 128,-1,63
 199 414 199 414 151 414 c 0,52,53
151 471 m 0,64,65
 173 471 173 471 188 498.5 c 128,-1,66
 203 526 203 526 203 573 c 0,67,68
 203 619 203 619 188.5 646 c 128,-1,69
 174 673 174 673 151 673 c 0,70,71
 127 673 127 673 113 646 c 128,-1,72
 99 619 99 619 99 573 c 256,73,74
 99 527 99 527 113 499 c 128,-1,75
 127 471 127 471 151 471 c 0,64,65
EndSplineSet
Validated: 5
Substitution2: "'pnum' Proportional Numbers in Latin lookup 18 subtable" perthousand
Substitution2: "'aalt' Access All Alternates in Latin lookup 0 subtable" perthousand
EndChar

StartChar: arrowup
Encoding: 8593 8593 456
Width: 792
Flags: W
LayerCount: 2
Fore
SplineSet
349 9 m 1,0,-1
 349 642 l 1,1,-1
 388 591 l 1,2,-1
 60 264 l 1,3,-1
 60 392 l 1,4,-1
 396 726 l 1,5,-1
 732 392 l 1,6,-1
 732 264 l 1,7,-1
 404 591 l 1,8,-1
 442 642 l 1,9,-1
 442 9 l 1,10,-1
 349 9 l 1,0,-1
EndSplineSet
Validated: 5
EndChar

StartChar: uni2197
Encoding: 8599 8599 457
Width: 689
Flags: W
LayerCount: 2
Fore
SplineSet
88 168 m 1,0,-1
 536 615 l 1,1,-1
 527 552 l 1,2,-1
 64 553 l 1,3,-1
 154 643 l 1,4,-1
 628 641 l 1,5,-1
 629 168 l 1,6,-1
 539 77 l 1,7,-1
 538 540 l 1,8,-1
 601 549 l 1,9,-1
 153 102 l 1,10,-1
 88 168 l 1,0,-1
EndSplineSet
Validated: 5
EndChar

StartChar: arrowright
Encoding: 8594 8594 458
Width: 837
Flags: W
LayerCount: 2
Fore
SplineSet
60 406 m 1,0,-1
 693 406 l 1,1,-1
 642 368 l 1,2,-1
 315 696 l 1,3,-1
 443 696 l 1,4,-1
 777 360 l 1,5,-1
 443 24 l 1,6,-1
 315 24 l 1,7,-1
 642 352 l 1,8,-1
 693 314 l 1,9,-1
 60 314 l 1,10,-1
 60 406 l 1,0,-1
EndSplineSet
Validated: 5
EndChar

StartChar: uni2198
Encoding: 8600 8600 459
Width: 689
Flags: W
LayerCount: 2
Fore
SplineSet
154 617 m 1,0,-1
 601 169 l 1,1,-1
 538 178 l 1,2,-1
 539 641 l 1,3,-1
 629 551 l 1,4,-1
 627 77 l 1,5,-1
 154 76 l 1,6,-1
 63 166 l 1,7,-1
 526 166 l 1,8,-1
 535 103 l 1,9,-1
 88 551 l 1,10,-1
 154 617 l 1,0,-1
EndSplineSet
Validated: 5
EndChar

StartChar: arrowdown
Encoding: 8595 8595 460
Width: 792
Flags: W
LayerCount: 2
Fore
SplineSet
349 711 m 1,0,-1
 442 711 l 1,1,-1
 442 78 l 1,2,-1
 404 129 l 1,3,-1
 732 456 l 1,4,-1
 732 328 l 1,5,-1
 396 -6 l 1,6,-1
 60 328 l 1,7,-1
 60 456 l 1,8,-1
 388 129 l 1,9,-1
 349 78 l 1,10,-1
 349 711 l 1,0,-1
EndSplineSet
Validated: 5
EndChar

StartChar: uni2199
Encoding: 8601 8601 461
Width: 689
Flags: W
LayerCount: 2
Fore
SplineSet
601 551 m 1,0,-1
 153 104 l 1,1,-1
 162 167 l 1,2,-1
 625 166 l 1,3,-1
 534 75 l 1,4,-1
 61 78 l 1,5,-1
 60 551 l 1,6,-1
 150 642 l 1,7,-1
 150 178 l 1,8,-1
 87 170 l 1,9,-1
 535 617 l 1,10,-1
 601 551 l 1,0,-1
EndSplineSet
Validated: 5
EndChar

StartChar: arrowleft
Encoding: 8592 8592 462
Width: 837
Flags: W
LayerCount: 2
Fore
SplineSet
777 314 m 1,0,-1
 144 314 l 1,1,-1
 195 352 l 1,2,-1
 522 24 l 1,3,-1
 394 24 l 1,4,-1
 60 360 l 1,5,-1
 394 696 l 1,6,-1
 522 696 l 1,7,-1
 195 368 l 1,8,-1
 144 406 l 1,9,-1
 777 406 l 1,10,-1
 777 314 l 1,0,-1
EndSplineSet
Validated: 5
EndChar

StartChar: uni2196
Encoding: 8598 8598 463
Width: 689
Flags: W
LayerCount: 2
Fore
SplineSet
536 103 m 1,0,-1
 88 551 l 1,1,-1
 152 542 l 1,2,-1
 151 79 l 1,3,-1
 60 169 l 1,4,-1
 62 643 l 1,5,-1
 536 644 l 1,6,-1
 626 554 l 1,7,-1
 163 554 l 1,8,-1
 154 617 l 1,9,-1
 601 169 l 1,10,-1
 536 103 l 1,0,-1
EndSplineSet
Validated: 5
EndChar

StartChar: arrowboth
Encoding: 8596 8596 464
Width: 1080
Flags: W
LayerCount: 2
Fore
SplineSet
394 24 m 1,0,-1
 60 360 l 1,1,-1
 394 696 l 1,2,-1
 522 696 l 1,3,-1
 233 406 l 1,4,-1
 847 406 l 1,5,-1
 559 696 l 1,6,-1
 687 696 l 1,7,-1
 1020 360 l 1,8,-1
 686 24 l 1,9,-1
 558 24 l 1,10,-1
 847 314 l 1,11,-1
 233 314 l 1,12,-1
 522 24 l 1,13,-1
 394 24 l 1,0,-1
EndSplineSet
Validated: 1
EndChar

StartChar: arrowupdn
Encoding: 8597 8597 465
Width: 792
Flags: W
LayerCount: 2
Fore
SplineSet
396 -120 m 1,0,-1
 60 213 l 1,1,-1
 60 341 l 1,2,-1
 349 53 l 1,3,-1
 349 667 l 1,4,-1
 60 379 l 1,5,-1
 60 507 l 1,6,-1
 396 840 l 1,7,-1
 732 506 l 1,8,-1
 732 378 l 1,9,-1
 442 667 l 1,10,-1
 442 53 l 1,11,-1
 732 342 l 1,12,-1
 732 214 l 1,13,-1
 396 -120 l 1,0,-1
EndSplineSet
Validated: 1
EndChar

StartChar: uni0308
Encoding: 776 776 466
Width: 0
GlyphClass: 4
Flags: W
AnchorPoint: "Anchor-7" 229 726 basemark 0
AnchorPoint: "Anchor-7" 229 510 mark 0
AnchorPoint: "Anchor-4" 229 510 mark 0
AnchorPoint: "Anchor-0" 229 510 mark 0
LayerCount: 2
Fore
SplineSet
285 610 m 1,0,-1
 285 726 l 1,1,-1
 398 726 l 1,2,-1
 398 610 l 1,3,-1
 285 610 l 1,0,-1
60 610 m 1,4,-1
 60 726 l 1,5,-1
 173 726 l 1,6,-1
 173 610 l 1,7,-1
 60 610 l 1,4,-1
EndSplineSet
Validated: 1
Substitution2: "'ss01' Style Set 1 in Latin lookup 22 subtable" uni0308.ss01
Substitution2: "'aalt' Access All Alternates in Latin lookup 0 subtable" uni0308.ss01
EndChar

StartChar: uni0307
Encoding: 775 775 467
Width: 0
GlyphClass: 4
Flags: W
AnchorPoint: "Anchor-7" 117 726 basemark 0
AnchorPoint: "Anchor-7" 117 510 mark 0
AnchorPoint: "Anchor-4" 117 510 mark 0
AnchorPoint: "Anchor-0" 117 510 mark 0
LayerCount: 2
Fore
SplineSet
60 610 m 1,0,-1
 60 726 l 1,1,-1
 173 726 l 1,2,-1
 173 610 l 1,3,-1
 60 610 l 1,0,-1
EndSplineSet
Validated: 1
Substitution2: "'ss01' Style Set 1 in Latin lookup 22 subtable" uni0307.ss01
Substitution2: "'aalt' Access All Alternates in Latin lookup 0 subtable" uni0307.ss01
EndChar

StartChar: gravecomb
Encoding: 768 768 468
Width: 0
GlyphClass: 4
Flags: W
AnchorPoint: "Anchor-7" 225 740 basemark 0
AnchorPoint: "Anchor-7" 225 510 mark 0
AnchorPoint: "Anchor-4" 225 510 mark 0
AnchorPoint: "Anchor-0" 225 510 mark 0
LayerCount: 2
Fore
SplineSet
217 583 m 1,0,-1
 60 740 l 1,1,-1
 204 740 l 1,2,-1
 309 583 l 1,3,-1
 217 583 l 1,0,-1
EndSplineSet
Validated: 1
EndChar

StartChar: acutecomb
Encoding: 769 769 469
Width: 0
GlyphClass: 4
Flags: W
AnchorPoint: "Anchor-7" 143 740 basemark 0
AnchorPoint: "Anchor-7" 143 510 mark 0
AnchorPoint: "Anchor-4" 143 510 mark 0
AnchorPoint: "Anchor-0" 143 510 mark 0
LayerCount: 2
Fore
SplineSet
152 583 m 1,0,-1
 60 583 l 1,1,-1
 165 740 l 1,2,-1
 309 740 l 1,3,-1
 152 583 l 1,0,-1
EndSplineSet
Validated: 1
EndChar

StartChar: uni030B
Encoding: 779 779 470
Width: 0
GlyphClass: 4
Flags: W
AnchorPoint: "Anchor-7" 216 740 basemark 0
AnchorPoint: "Anchor-7" 216 510 mark 0
AnchorPoint: "Anchor-4" 216 510 mark 0
AnchorPoint: "Anchor-0" 216 510 mark 0
LayerCount: 2
Fore
SplineSet
139 583 m 1,0,-1
 60 583 l 1,1,-1
 115 740 l 1,2,-1
 232 740 l 1,3,-1
 139 583 l 1,0,-1
340 583 m 1,4,-1
 261 583 l 1,5,-1
 316 740 l 1,6,-1
 433 740 l 1,7,-1
 340 583 l 1,4,-1
EndSplineSet
Validated: 1
EndChar

StartChar: uni030C.alt
Encoding: 65687 -1 471
Width: 0
GlyphClass: 4
Flags: W
AnchorPoint: "Anchor-1" 60 720 mark 0
LayerCount: 2
Fore
SplineSet
125 496 m 1,0,-1
 60 496 l 1,1,-1
 60 720 l 1,2,-1
 151 720 l 1,3,-1
 125 496 l 1,0,-1
EndSplineSet
Validated: 1
EndChar

StartChar: uni0302
Encoding: 770 770 472
Width: 0
GlyphClass: 4
Flags: W
AnchorPoint: "Anchor-7" 247 740 basemark 0
AnchorPoint: "Anchor-7" 247 510 mark 0
AnchorPoint: "Anchor-4" 247 510 mark 0
AnchorPoint: "Anchor-0" 247 510 mark 0
LayerCount: 2
Fore
SplineSet
60 583 m 1,0,-1
 193 740 l 1,1,-1
 300 740 l 1,2,-1
 433 583 l 1,3,-1
 345 583 l 1,4,-1
 200 716 l 1,5,-1
 292 716 l 1,6,-1
 148 583 l 1,7,-1
 60 583 l 1,0,-1
EndSplineSet
Validated: 5
EndChar

StartChar: uni030C
Encoding: 780 780 473
Width: 0
GlyphClass: 4
Flags: W
AnchorPoint: "Anchor-7" 246 740 basemark 0
AnchorPoint: "Anchor-7" 246 510 mark 0
AnchorPoint: "Anchor-4" 246 510 mark 0
AnchorPoint: "Anchor-0" 246 510 mark 0
LayerCount: 2
Fore
SplineSet
193 583 m 1,0,-1
 60 740 l 1,1,-1
 148 740 l 1,2,-1
 292 607 l 1,3,-1
 200 607 l 1,4,-1
 345 740 l 1,5,-1
 433 740 l 1,6,-1
 300 583 l 1,7,-1
 193 583 l 1,0,-1
EndSplineSet
Validated: 5
EndChar

StartChar: uni0306
Encoding: 774 774 474
Width: 0
GlyphClass: 4
Flags: W
AnchorPoint: "Anchor-7" 225 740 basemark 0
AnchorPoint: "Anchor-7" 225 510 mark 0
AnchorPoint: "Anchor-4" 225 510 mark 0
AnchorPoint: "Anchor-0" 225 510 mark 0
LayerCount: 2
Fore
SplineSet
225 577 m 256,0,1
 178 577 178 577 140.5 597 c 128,-1,2
 103 617 103 617 81.5 653.5 c 128,-1,3
 60 690 60 690 60 740 c 1,4,-1
 134 740 l 1,5,6
 134 701 134 701 158 678 c 128,-1,7
 182 655 182 655 225 655 c 0,8,9
 267 655 267 655 290.5 678 c 128,-1,10
 314 701 314 701 314 740 c 1,11,-1
 389 740 l 1,12,13
 389 690 389 690 367 654 c 128,-1,14
 345 618 345 618 308.5 597.5 c 128,-1,15
 272 577 272 577 225 577 c 256,0,1
EndSplineSet
Validated: 1
EndChar

StartChar: uni030A
Encoding: 778 778 475
Width: 0
GlyphClass: 4
Flags: W
AnchorPoint: "Anchor-7" 168 776 basemark 0
AnchorPoint: "Anchor-7" 168 510 mark 0
AnchorPoint: "Anchor-4" 168 510 mark 0
AnchorPoint: "Anchor-0" 168 510 mark 0
LayerCount: 2
Fore
SplineSet
168 561 m 256,0,1
 122 561 122 561 91 592.5 c 128,-1,2
 60 624 60 624 60 669 c 0,3,4
 60 713 60 713 91 744.5 c 128,-1,5
 122 776 122 776 168 776 c 256,6,7
 214 776 214 776 244.5 744.5 c 128,-1,8
 275 713 275 713 275 669 c 0,9,10
 275 624 275 624 244.5 592.5 c 128,-1,11
 214 561 214 561 168 561 c 256,0,1
168 618 m 0,12,13
 189 618 189 618 202.5 633 c 128,-1,14
 216 648 216 648 216 669 c 256,15,16
 216 690 216 690 202.5 704.5 c 128,-1,17
 189 719 189 719 168 719 c 0,18,19
 146 719 146 719 132.5 704.5 c 128,-1,20
 119 690 119 690 119 669 c 256,21,22
 119 648 119 648 132.5 633 c 128,-1,23
 146 618 146 618 168 618 c 0,12,13
EndSplineSet
Validated: 1
EndChar

StartChar: tildecomb
Encoding: 771 771 476
Width: 0
GlyphClass: 4
Flags: W
AnchorPoint: "Anchor-7" 251 729 basemark 0
AnchorPoint: "Anchor-7" 251 510 mark 0
AnchorPoint: "Anchor-4" 251 510 mark 0
AnchorPoint: "Anchor-0" 251 510 mark 0
LayerCount: 2
Fore
SplineSet
326 593 m 0,0,1
 298 593 298 593 277 602.5 c 128,-1,2
 256 612 256 612 239 624.5 c 128,-1,3
 222 637 222 637 206 646.5 c 128,-1,4
 190 656 190 656 173 656 c 0,5,6
 153 656 153 656 140 642.5 c 128,-1,7
 127 629 127 629 127 602 c 1,8,-1
 60 602 l 1,9,10
 60 640 60 640 74.5 668.5 c 128,-1,11
 89 697 89 697 116 713 c 128,-1,12
 143 729 143 729 179 729 c 0,13,14
 209 729 209 729 229 719.5 c 128,-1,15
 249 710 249 710 264.5 697.5 c 128,-1,16
 280 685 280 685 295.5 675.5 c 128,-1,17
 311 666 311 666 329 666 c 0,18,19
 350 666 350 666 363 679.5 c 128,-1,20
 376 693 376 693 376 720 c 1,21,-1
 443 720 l 1,22,23
 443 684 443 684 428 655 c 128,-1,24
 413 626 413 626 387 609.5 c 128,-1,25
 361 593 361 593 326 593 c 0,0,1
EndSplineSet
Validated: 1
EndChar

StartChar: uni0304
Encoding: 772 772 477
Width: 0
GlyphClass: 4
Flags: W
AnchorPoint: "Anchor-7" 232 708 basemark 0
AnchorPoint: "Anchor-7" 232 510 mark 0
AnchorPoint: "Anchor-4" 232 510 mark 0
AnchorPoint: "Anchor-0" 232 510 mark 0
LayerCount: 2
Fore
SplineSet
60 634 m 1,0,-1
 60 708 l 1,1,-1
 403 708 l 1,2,-1
 403 634 l 1,3,-1
 60 634 l 1,0,-1
EndSplineSet
Validated: 1
EndChar

StartChar: uni0312
Encoding: 786 786 478
Width: 0
GlyphClass: 4
Flags: W
AnchorPoint: "Anchor-7" 126 821 basemark 0
AnchorPoint: "Anchor-7" 126 510 mark 0
AnchorPoint: "Anchor-4" 126 510 mark 0
AnchorPoint: "Anchor-0" 126 510 mark 0
LayerCount: 2
Fore
SplineSet
66 582 m 1,0,-1
 66 672 l 2,1,2
 66 729 66 729 96.5 769.5 c 128,-1,3
 127 810 127 810 186 821 c 1,4,-1
 186 772 l 1,5,6
 155 764 155 764 138.5 743.5 c 128,-1,7
 122 723 122 723 122 688 c 1,8,-1
 86 695 l 1,9,-1
 186 695 l 1,10,-1
 186 582 l 1,11,-1
 66 582 l 1,0,-1
EndSplineSet
Validated: 5
Substitution2: "'ss01' Style Set 1 in Latin lookup 22 subtable" uni0312.ss01
Substitution2: "'aalt' Access All Alternates in Latin lookup 0 subtable" uni0312.ss01
EndChar

StartChar: uni0326
Encoding: 806 806 479
Width: 0
GlyphClass: 4
Flags: W
AnchorPoint: "Anchor-6" 126 -312 basemark 0
AnchorPoint: "Anchor-6" 126 0 mark 0
AnchorPoint: "Anchor-5" 126 0 mark 0
AnchorPoint: "Anchor-2" 126 0 mark 0
LayerCount: 2
Fore
SplineSet
66 -312 m 1,0,-1
 66 -262 l 1,1,2
 97 -255 97 -255 113 -234.5 c 128,-1,3
 129 -214 129 -214 129 -179 c 1,4,-1
 166 -186 l 1,5,-1
 66 -186 l 1,6,-1
 66 -73 l 1,7,-1
 186 -73 l 1,8,-1
 186 -163 l 2,9,10
 186 -220 186 -220 155.5 -260 c 128,-1,11
 125 -300 125 -300 66 -312 c 1,0,-1
EndSplineSet
Validated: 5
Substitution2: "'ss01' Style Set 1 in Latin lookup 22 subtable" uni0326.ss01
Substitution2: "'aalt' Access All Alternates in Latin lookup 0 subtable" uni0326.ss01
EndChar

StartChar: uni0327
Encoding: 807 807 480
Width: 0
GlyphClass: 4
Flags: W
AnchorPoint: "Anchor-6" 180 -215 basemark 0
AnchorPoint: "Anchor-6" 189 0 mark 0
AnchorPoint: "Anchor-5" 189 0 mark 0
AnchorPoint: "Anchor-2" 189 0 mark 0
LayerCount: 2
Fore
SplineSet
181 -215 m 256,0,1
 127 -215 127 -215 94.5 -190.5 c 128,-1,2
 62 -166 62 -166 60 -125 c 1,3,-1
 128 -125 l 1,4,5
 130 -142 130 -142 145.5 -150 c 128,-1,6
 161 -158 161 -158 182 -158 c 0,7,8
 201 -158 201 -158 214.5 -150.5 c 128,-1,9
 228 -143 228 -143 228 -129 c 0,10,11
 228 -112 228 -112 209 -101.5 c 128,-1,12
 190 -91 190 -91 138 -88 c 1,13,-1
 162 12 l 1,14,-1
 227 12 l 1,15,-1
 213 -40 l 1,16,17
 258 -50 258 -50 278.5 -73.5 c 128,-1,18
 299 -97 299 -97 299 -128 c 0,19,20
 299 -168 299 -168 267 -191.5 c 128,-1,21
 235 -215 235 -215 181 -215 c 256,0,1
EndSplineSet
Validated: 1
EndChar

StartChar: uni0328
Encoding: 808 808 481
Width: 0
GlyphClass: 4
Flags: W
AnchorPoint: "Anchor-3" 223 0 mark 0
LayerCount: 2
Fore
SplineSet
154 -216 m 0,0,1
 108 -216 108 -216 84 -193 c 128,-1,2
 60 -170 60 -170 60 -134 c 0,3,4
 60 -90 60 -90 95.5 -51.5 c 128,-1,5
 131 -13 131 -13 187 17 c 1,6,-1
 223 0 l 1,7,8
 178 -34 178 -34 155 -63 c 128,-1,9
 132 -92 132 -92 132 -122 c 0,10,11
 132 -139 132 -139 140.5 -148 c 128,-1,12
 149 -157 149 -157 163 -157 c 0,13,14
 184 -157 184 -157 199 -142 c 1,15,-1
 229 -192 l 1,16,17
 215 -204 215 -204 196.5 -210 c 128,-1,18
 178 -216 178 -216 154 -216 c 0,0,1
EndSplineSet
Validated: 1
EndChar

StartChar: uni0308.ss01
Encoding: 65688 -1 482
Width: 0
GlyphClass: 4
Flags: W
AnchorPoint: "Anchor-7" 238 730 basemark 0
AnchorPoint: "Anchor-7" 238 510 mark 0
AnchorPoint: "Anchor-4" 238 510 mark 0
AnchorPoint: "Anchor-0" 238 510 mark 0
LayerCount: 2
Fore
SplineSet
125 598 m 256,0,1
 98 598 98 598 79 617.5 c 128,-1,2
 60 637 60 637 60 665 c 256,3,4
 60 693 60 693 79 711.5 c 128,-1,5
 98 730 98 730 125 730 c 256,6,7
 152 730 152 730 170.5 711.5 c 128,-1,8
 189 693 189 693 189 665 c 256,9,10
 189 637 189 637 170.5 617.5 c 128,-1,11
 152 598 152 598 125 598 c 256,0,1
350 598 m 256,12,13
 323 598 323 598 304.5 617.5 c 128,-1,14
 286 637 286 637 286 665 c 256,15,16
 286 693 286 693 305 711.5 c 128,-1,17
 324 730 324 730 350 730 c 0,18,19
 377 730 377 730 396 711.5 c 128,-1,20
 415 693 415 693 415 665 c 256,21,22
 415 637 415 637 396 617.5 c 128,-1,23
 377 598 377 598 350 598 c 256,12,13
EndSplineSet
Validated: 1
EndChar

StartChar: uni0307.ss01
Encoding: 65689 -1 483
Width: 0
GlyphClass: 4
Flags: W
AnchorPoint: "Anchor-7" 128 730 basemark 0
AnchorPoint: "Anchor-7" 128 510 mark 0
AnchorPoint: "Anchor-4" 128 510 mark 0
AnchorPoint: "Anchor-0" 128 510 mark 0
LayerCount: 2
Fore
SplineSet
129 593 m 0,0,1
 100 593 100 593 80 613 c 128,-1,2
 60 633 60 633 60 662 c 0,3,4
 60 693 60 693 80 711.5 c 128,-1,5
 100 730 100 730 129 730 c 0,6,7
 156 730 156 730 176 711.5 c 128,-1,8
 196 693 196 693 196 662 c 0,9,10
 196 633 196 633 176 613 c 128,-1,11
 156 593 156 593 129 593 c 0,0,1
EndSplineSet
Validated: 1
EndChar

StartChar: uni0312.ss01
Encoding: 65690 -1 484
Width: 0
GlyphClass: 4
Flags: W
AnchorPoint: "Anchor-7" 126 821 basemark 0
AnchorPoint: "Anchor-7" 126 510 mark 0
AnchorPoint: "Anchor-4" 126 510 mark 0
AnchorPoint: "Anchor-0" 126 510 mark 0
LayerCount: 2
Fore
SplineSet
129 576 m 0,0,1
 100 576 100 576 80 597.5 c 128,-1,2
 60 619 60 619 60 667 c 0,3,4
 60 704 60 704 74.5 736 c 128,-1,5
 89 768 89 768 115 790.5 c 128,-1,6
 141 813 141 813 179 821 c 1,7,-1
 179 772 l 1,8,9
 149 764 149 764 132.5 743.5 c 128,-1,10
 116 723 116 723 116 688 c 1,11,-1
 86 687 l 1,12,13
 94 693 94 693 104.5 697 c 128,-1,14
 115 701 115 701 126 701 c 0,15,16
 154 701 154 701 173 683.5 c 128,-1,17
 192 666 192 666 192 639 c 256,18,19
 192 612 192 612 173.5 594 c 128,-1,20
 155 576 155 576 129 576 c 0,0,1
EndSplineSet
Validated: 5
EndChar

StartChar: uni0326.ss01
Encoding: 65691 -1 485
Width: 0
GlyphClass: 4
Flags: W
AnchorPoint: "Anchor-6" 126 -312 basemark 0
AnchorPoint: "Anchor-6" 126 0 mark 0
AnchorPoint: "Anchor-5" 126 0 mark 0
AnchorPoint: "Anchor-2" 126 0 mark 0
LayerCount: 2
Fore
SplineSet
73 -312 m 1,0,-1
 73 -262 l 1,1,2
 103 -255 103 -255 119 -234.5 c 128,-1,3
 135 -214 135 -214 135 -179 c 1,4,-1
 166 -177 l 1,5,6
 158 -183 158 -183 147.5 -187.5 c 128,-1,7
 137 -192 137 -192 126 -192 c 0,8,9
 98 -192 98 -192 79 -174.5 c 128,-1,10
 60 -157 60 -157 60 -130 c 0,11,12
 60 -102 60 -102 78.5 -84.5 c 128,-1,13
 97 -67 97 -67 123 -67 c 0,14,15
 152 -67 152 -67 172 -88.5 c 128,-1,16
 192 -110 192 -110 192 -158 c 0,17,18
 192 -194 192 -194 177.5 -226.5 c 128,-1,19
 163 -259 163 -259 136.5 -281.5 c 128,-1,20
 110 -304 110 -304 73 -312 c 1,0,-1
EndSplineSet
Validated: 5
EndChar

